<svg width="40" height="40" viewBox="0 0 40 40" fill="none" xmlns="http://www.w3.org/2000/svg">
<g filter="url(#filter0_i_694_2611)">
<rect width="40" height="40" rx="20" fill="white"/>
<path d="M24.125 17V16.625C24.1243 15.6793 23.7544 14.7713 23.0942 14.0943C22.434 13.4172 21.5356 13.0246 20.5903 13H20.4097C19.4644 13.0246 18.566 13.4172 17.9058 14.0943C17.2456 14.7713 16.8757 15.6793 16.875 16.625V17H14.125C14.0918 17 14.0601 17.0132 14.0366 17.0366C14.0132 17.0601 14 17.0918 14 17.125V26.5C14 26.6326 14.0527 26.7598 14.1464 26.8536C14.2402 26.9473 14.3674 27 14.5 27H26.5C26.6326 27 26.7598 26.9473 26.8536 26.8536C26.9473 26.7598 27 26.6326 27 26.5V17.125C27 17.0918 26.9868 17.0601 26.9634 17.0366C26.9399 17.0132 26.9082 17 26.875 17H24.125ZM22.875 17H18.125V16.6562C18.125 15.3488 19.1691 14.2637 20.4766 14.25C20.7903 14.2472 21.1015 14.3066 21.3922 14.4247C21.683 14.5428 21.9474 14.7172 22.1704 14.938C22.3933 15.1588 22.5704 15.4215 22.6913 15.7111C22.8123 16.0006 22.8747 16.3112 22.875 16.625V17Z" fill="black"/>
</g>
<defs>
<filter id="filter0_i_694_2611" x="0" y="0" width="40" height="44" filterUnits="userSpaceOnUse" color-interpolation-filters="sRGB">
<feFlood flood-opacity="0" result="BackgroundImageFix"/>
<feBlend mode="normal" in="SourceGraphic" in2="BackgroundImageFix" result="shape"/>
<feColorMatrix in="SourceAlpha" type="matrix" values="0 0 0 0 0 0 0 0 0 0 0 0 0 0 0 0 0 0 127 0" result="hardAlpha"/>
<feOffset dy="4"/>
<feGaussianBlur stdDeviation="2"/>
<feComposite in2="hardAlpha" operator="arithmetic" k2="-1" k3="1"/>
<feColorMatrix type="matrix" values="0 0 0 0 0 0 0 0 0 0 0 0 0 0 0 0 0 0 0.25 0"/>
<feBlend mode="normal" in2="shape" result="effect1_innerShadow_694_2611"/>
</filter>
</defs>
</svg>
