<svg width="40" height="41" viewBox="0 0 40 41" fill="none" xmlns="http://www.w3.org/2000/svg">
<g filter="url(#filter0_i_694_2630)">
<rect y="0.5" width="40" height="40" rx="20" fill="white"/>
<path fill-rule="evenodd" clip-rule="evenodd" d="M19.3896 10.0002H22.5749C23.0549 9.99309 23.5248 10.1502 23.9033 10.4459C24.2847 10.7459 24.549 11.1673 24.6461 11.6416L24.9246 12.9773C25.0456 13.0421 25.1646 13.1087 25.2817 13.1773L26.6316 12.7344C26.9093 12.6448 27.2025 12.6136 27.4928 12.6429C27.7831 12.6722 28.0643 12.7612 28.3185 12.9044C28.6328 13.0816 28.897 13.3359 29.0813 13.6473L30.6882 16.2986C30.948 16.7095 31.0504 17.2004 30.9767 17.6808C30.9029 18.1613 30.6579 18.5989 30.2868 18.9128H30.284L29.2241 19.8171V20.1857L30.2711 21.1185C30.635 21.4273 30.8774 21.8554 30.9551 22.3263C31.0328 22.7972 30.9407 23.2805 30.6954 23.6898L29.1384 26.3469V26.3498C28.9531 26.6598 28.6905 26.9164 28.3763 27.0945C28.062 27.2725 27.7069 27.3659 27.3458 27.3655C27.1224 27.3667 26.9002 27.3329 26.6873 27.2655L26.6801 27.2626L25.3417 26.8212C25.2227 26.8917 25.1018 26.9588 24.9789 27.0226L24.7018 28.3569C24.604 28.8314 24.3407 29.2556 23.959 29.554C23.5796 29.8509 23.1095 30.0083 22.6278 29.9997H19.4167C18.936 30.0076 18.467 29.8503 18.0883 29.554C17.7069 29.256 17.4437 28.8323 17.3456 28.3583L17.067 27.0212C16.9464 26.9574 16.8274 26.8907 16.7099 26.8212L15.3601 27.264C15.0824 27.3537 14.7892 27.3848 14.4988 27.3556C14.2085 27.3263 13.9274 27.2373 13.6732 27.094C13.3585 26.9185 13.0954 26.6633 12.9104 26.3541L11.302 23.697C11.0526 23.2945 10.953 22.8169 11.0207 22.3483C11.0883 21.8796 11.3189 21.4497 11.672 21.1342L12.739 19.7885L11.7205 18.8814C11.3562 18.5722 11.1136 18.1436 11.0361 17.672C10.9587 17.2004 11.0514 16.7167 11.2977 16.3072L11.3006 16.3043L12.9104 13.6473C13.093 13.3401 13.3519 13.0854 13.662 12.908C13.9721 12.7305 14.3229 12.6363 14.6802 12.6344C14.8954 12.623 15.1077 12.6435 15.3172 12.6959L15.3487 12.7044L16.6842 13.1744C16.8013 13.1059 16.9204 13.0401 17.0413 12.9773L17.3184 11.643C17.4162 11.1685 17.6795 10.7443 18.0612 10.4459C18.4383 10.1502 18.9097 9.99309 19.3896 10.0002ZM20.9994 17.1429C20.2417 17.1429 19.5151 17.4439 18.9793 17.9797C18.4436 18.5155 18.1426 19.2422 18.1426 19.9999C18.1426 20.7577 18.4436 21.4844 18.9793 22.0202C19.5151 22.556 20.2417 22.857 20.9994 22.857C21.7571 22.857 22.4837 22.556 23.0195 22.0202C23.5552 21.4844 23.8562 20.7577 23.8562 19.9999C23.8562 19.2422 23.5552 18.5155 23.0195 17.9797C22.4837 17.4439 21.7571 17.1429 20.9994 17.1429ZM16.7142 19.9999C16.7142 18.8633 17.1657 17.7733 17.9693 16.9696C18.7729 16.1659 19.8629 15.7144 20.9994 15.7144C22.1359 15.7144 23.2259 16.1659 24.0295 16.9696C24.8331 17.7733 25.2846 18.8633 25.2846 19.9999C25.2846 21.1366 24.8331 22.2266 24.0295 23.0303C23.2259 23.834 22.1359 24.2855 20.9994 24.2855C19.8629 24.2855 18.7729 23.834 17.9693 23.0303C17.1657 22.2266 16.7142 21.1366 16.7142 19.9999Z" fill="black"/>
</g>
<defs>
<filter id="filter0_i_694_2630" x="0" y="0.5" width="40" height="44" filterUnits="userSpaceOnUse" color-interpolation-filters="sRGB">
<feFlood flood-opacity="0" result="BackgroundImageFix"/>
<feBlend mode="normal" in="SourceGraphic" in2="BackgroundImageFix" result="shape"/>
<feColorMatrix in="SourceAlpha" type="matrix" values="0 0 0 0 0 0 0 0 0 0 0 0 0 0 0 0 0 0 127 0" result="hardAlpha"/>
<feOffset dy="4"/>
<feGaussianBlur stdDeviation="2"/>
<feComposite in2="hardAlpha" operator="arithmetic" k2="-1" k3="1"/>
<feColorMatrix type="matrix" values="0 0 0 0 0 0 0 0 0 0 0 0 0 0 0 0 0 0 0.25 0"/>
<feBlend mode="normal" in2="shape" result="effect1_innerShadow_694_2630"/>
</filter>
</defs>
</svg>
