<svg width="40" height="41" viewBox="0 0 40 41" fill="none" xmlns="http://www.w3.org/2000/svg">
<g filter="url(#filter0_i_694_2659)">
<rect y="0.5" width="40" height="40" rx="20" fill="white"/>
<path d="M19.7692 13.5H17.3077C16.742 13.5 16.1818 13.6132 15.6592 13.833C15.1366 14.0529 14.6617 14.3752 14.2617 14.7814C13.8617 15.1877 13.5444 15.67 13.3279 16.2008C13.1114 16.7316 13 17.3005 13 17.875C13 18.4495 13.1114 19.0184 13.3279 19.5492C13.5444 20.08 13.8617 20.5623 14.2617 20.9686C14.6617 21.3748 15.1366 21.6971 15.6592 21.917C16.1818 22.1368 16.742 22.25 17.3077 22.25H19.7692V26H14.2308V28.5H19.7692V31H22.2308V28.5H24.6923C25.8348 28.5 26.9305 28.0391 27.7383 27.2186C28.5462 26.3981 29 25.2853 29 24.125C29 22.9647 28.5462 21.8519 27.7383 21.0314C26.9305 20.2109 25.8348 19.75 24.6923 19.75H22.2308V16H27.7692V13.5H22.2308V11H19.7692V13.5ZM22.2308 22.25H24.6923C25.1819 22.25 25.6515 22.4475 25.9977 22.7992C26.344 23.1508 26.5385 23.6277 26.5385 24.125C26.5385 24.6223 26.344 25.0992 25.9977 25.4508C25.6515 25.8025 25.1819 26 24.6923 26H22.2308V22.25ZM19.7692 19.75H17.3077C17.0653 19.75 16.8252 19.7015 16.6012 19.6073C16.3772 19.513 16.1737 19.3749 16.0023 19.2008C15.8308 19.0267 15.6948 18.82 15.6021 18.5925C15.5093 18.365 15.4615 18.1212 15.4615 17.875C15.4615 17.6288 15.5093 17.385 15.6021 17.1575C15.6948 16.93 15.8308 16.7233 16.0023 16.5492C16.1737 16.3751 16.3772 16.237 16.6012 16.1427C16.8252 16.0485 17.0653 16 17.3077 16H19.7692V19.75Z" fill="black"/>
</g>
<defs>
<filter id="filter0_i_694_2659" x="0" y="0.5" width="40" height="44" filterUnits="userSpaceOnUse" color-interpolation-filters="sRGB">
<feFlood flood-opacity="0" result="BackgroundImageFix"/>
<feBlend mode="normal" in="SourceGraphic" in2="BackgroundImageFix" result="shape"/>
<feColorMatrix in="SourceAlpha" type="matrix" values="0 0 0 0 0 0 0 0 0 0 0 0 0 0 0 0 0 0 127 0" result="hardAlpha"/>
<feOffset dy="4"/>
<feGaussianBlur stdDeviation="2"/>
<feComposite in2="hardAlpha" operator="arithmetic" k2="-1" k3="1"/>
<feColorMatrix type="matrix" values="0 0 0 0 0 0 0 0 0 0 0 0 0 0 0 0 0 0 0.25 0"/>
<feBlend mode="normal" in2="shape" result="effect1_innerShadow_694_2659"/>
</filter>
</defs>
</svg>
