<svg width="48" height="49" viewBox="0 0 48 49" fill="none" xmlns="http://www.w3.org/2000/svg">
<rect x="0.25" y="1" width="47.5" height="47.5" rx="23.75" fill="white"/>
<rect x="0.25" y="1" width="47.5" height="47.5" rx="23.75" stroke="black" stroke-width="0.5"/>
<path d="M16.5 31.5H34V34H14V14H16.5V31.5ZM19.625 30.25C19.3716 30.2505 19.1206 30.1996 18.8874 30.1004C18.6542 30.0012 18.4435 29.8558 18.2681 29.6729C18.0926 29.49 17.9561 29.2734 17.8667 29.0362C17.7773 28.7991 17.737 28.5462 17.748 28.293C17.7591 28.0398 17.8214 27.7915 17.9312 27.5631C18.0409 27.3346 18.1958 27.1308 18.3866 26.9639C18.5773 26.797 18.7999 26.6705 19.0409 26.5921C19.2819 26.5136 19.5363 26.4849 19.7888 26.5075L21.8038 23.1487C21.6195 22.8658 21.5151 22.5383 21.5015 22.201C21.4879 21.8636 21.5657 21.5288 21.7267 21.232C21.8876 20.9351 22.1257 20.6873 22.4158 20.5145C22.706 20.3418 23.0373 20.2506 23.375 20.2506C23.7127 20.2506 24.044 20.3418 24.3342 20.5145C24.6243 20.6873 24.8624 20.9351 25.0233 21.232C25.1843 21.5288 25.2621 21.8636 25.2485 22.201C25.2349 22.5383 25.1305 22.8658 24.9462 23.1487L26.9613 26.5075C27.0569 26.4988 27.153 26.4979 27.2487 26.505L30.5763 20.6825C30.3371 20.3322 30.2238 19.9113 30.2548 19.4883C30.2858 19.0653 30.4593 18.6653 30.7469 18.3537C31.0346 18.042 31.4193 17.8371 31.8385 17.7723C32.2576 17.7076 32.6863 17.7868 33.0546 17.9971C33.4229 18.2074 33.709 18.5364 33.8662 18.9303C34.0234 19.3241 34.0425 19.7597 33.9202 20.1658C33.798 20.5719 33.5417 20.9246 33.1931 21.1662C32.8446 21.4078 32.4244 21.5242 32.0012 21.4963L28.6737 27.3187C28.8649 27.5991 28.9764 27.9262 28.9964 28.265C29.0163 28.6038 28.9439 28.9416 28.7869 29.2425C28.6298 29.5434 28.3941 29.796 28.1048 29.9734C27.8155 30.1508 27.4835 30.2464 27.1441 30.2499C26.8048 30.2535 26.4708 30.1648 26.1779 29.9935C25.8849 29.8221 25.644 29.5745 25.4807 29.2769C25.3175 28.9794 25.2381 28.6431 25.2509 28.304C25.2638 27.9649 25.3684 27.6356 25.5538 27.3512L23.5387 23.9925C23.4298 24.0027 23.3202 24.0027 23.2113 23.9925L21.1962 27.3512C21.3807 27.6342 21.4852 27.9617 21.4989 28.2992C21.5125 28.6367 21.4348 28.9716 21.2738 29.2685C21.1129 29.5654 20.8747 29.8134 20.5845 29.9862C20.2942 30.1589 19.9628 30.2501 19.625 30.25Z" fill="black"/>
</svg>
