<svg width="48" height="49" viewBox="0 0 48 49" fill="none" xmlns="http://www.w3.org/2000/svg">
<rect x="0.25" y="1" width="47.5" height="47.5" rx="23.75" fill="white"/>
<rect x="0.25" y="1" width="47.5" height="47.5" rx="23.75" stroke="black" stroke-width="0.5"/>
<path d="M24.5 27.6842C19.8038 27.6842 16 29.5684 16 31.8947V34H33V31.8947C33 29.5684 29.1962 27.6842 24.5 27.6842ZM20.25 21.3684C20.25 22.4851 20.6978 23.5561 21.4948 24.3457C22.2918 25.1353 23.3728 25.5789 24.5 25.5789C25.6272 25.5789 26.7082 25.1353 27.5052 24.3457C28.3022 23.5561 28.75 22.4851 28.75 21.3684M23.9688 14C23.65 14 23.4375 14.2211 23.4375 14.5263V17.6842H22.375V15.0526C22.375 15.0526 19.9844 15.9579 19.9844 19C19.9844 19 19.1875 19.1474 19.1875 20.3158H29.8125C29.7594 19.1474 29.0156 19 29.0156 19C29.0156 15.9579 26.625 15.0526 26.625 15.0526V17.6842H25.5625V14.5263C25.5625 14.2211 25.3606 14 25.0312 14H23.9688Z" fill="black"/>
</svg>
