<svg width="48" height="48" viewBox="0 0 48 48" fill="none" xmlns="http://www.w3.org/2000/svg">
<rect x="0.25" y="0.25" width="47.5" height="47.5" rx="23.75" fill="white"/>
<rect x="0.25" y="0.25" width="47.5" height="47.5" rx="23.75" stroke="black" stroke-width="0.5"/>
<path d="M32.1762 21.545C32.3799 21.1475 32.5457 20.6075 32.3692 20.0567C32.1639 19.4183 31.5981 18.9942 30.685 18.7975L24.8941 17.5475L18.9809 14.3375C18.9168 14.3025 18.3412 14 17.7122 14C17.2433 14 16.8393 14.165 16.5428 14.4758C16.2661 14.7667 16.1002 15.1708 16.0477 15.6792C15.9933 15.6757 15.9388 15.674 15.8843 15.6742C14.99 15.6742 14.531 16.0542 14.3027 16.3733C13.9496 16.8667 13.9053 17.5342 14.1705 18.3583L16.3458 25.1233L16.5519 30.9842C16.588 32.0025 17.1423 33.0975 18.2747 33.0983C18.4915 33.0983 18.7159 33.0567 18.948 32.9733C19.2174 33.4367 19.7035 34 20.4787 34C21.0256 34 21.5659 33.7025 22.0849 33.1142L26.2811 28.3667L31.851 24.7975C31.9717 24.7192 33.0368 24.0058 32.999 22.94C32.981 22.405 32.7018 21.9383 32.1762 21.545ZM19.7199 30.805L17.8083 24.86L17.5488 17.4875L24.3858 18.9633L29.9459 21.9817L25.3228 27.2142L19.7199 30.805ZM30.3795 20.2583C30.827 20.355 30.9617 20.4908 30.9707 20.5192C30.988 20.5717 30.9568 20.6825 30.8993 20.8058L29.5665 20.0825L30.3795 20.2583ZM17.7122 15.4933C17.9331 15.4933 18.2106 15.6142 18.287 15.6542L19.7142 16.4283L17.5028 15.9508C17.5135 15.6817 17.5685 15.5475 17.6013 15.5125C17.6112 15.5033 17.6522 15.4933 17.7122 15.4933ZM15.5689 17.895C15.4088 17.3992 15.4926 17.2508 15.4934 17.25C15.509 17.2283 15.6305 17.1675 15.8843 17.1675C15.9533 17.1681 16.0137 17.1711 16.0658 17.1767L16.1553 19.7183L15.5689 17.895ZM18.0226 30.93L17.9988 30.265L18.4209 31.5767C18.3735 31.5925 18.3244 31.602 18.2747 31.605C18.1548 31.605 18.0341 31.1883 18.0226 30.93ZM20.9903 32.1167C20.6503 32.5025 20.4812 32.5067 20.4795 32.5067C20.4319 32.5067 20.3276 32.3967 20.2323 32.2425L21.7252 31.2858L20.9903 32.1167ZM31.066 23.5342L29.8794 24.295L31.2713 22.72C31.4758 22.865 31.5283 22.9683 31.5291 22.9942C31.5341 23.105 31.2935 23.3842 31.066 23.5342Z" fill="black"/>
</svg>
