<svg width="48" height="49" viewBox="0 0 48 49" fill="none" xmlns="http://www.w3.org/2000/svg">
<rect x="0.25" y="1" width="47.5" height="47.5" rx="23.75" fill="white"/>
<rect x="0.25" y="1" width="47.5" height="47.5" rx="23.75" stroke="black" stroke-width="0.5"/>
<path d="M28.6667 26.8358V24.4478H30.545C30.825 25.2955 31 26.1075 31 26.8358H28.6667ZM28.1767 19.6716C27.64 18.8239 27.0917 18.0119 26.5667 17.2836H26.3333V19.6716H28.1767ZM28.6667 24.4478V22.0597H26.3333V24.4478H28.6667ZM28.6667 20.4836V22.0597H29.53C29.25 21.5343 28.97 20.997 28.6667 20.4836ZM24 29.2239V26.8358H26.3333V24.4478H24V22.0597H26.3333V19.6716H24V17.2836H26.3333V16.9612C25.05 15.206 24 14 24 14C24 14 17 22.0597 17 26.8358C17 30.7881 20.1383 34 24 34V31.6119H26.3333V29.2239H24ZM26.3333 33.5821C27.2083 33.2716 27.99 32.806 28.6667 32.1612V31.6119H26.3333V33.5821ZM26.3333 29.2239H28.6667V26.8358H26.3333V29.2239ZM28.6667 31.6119H29.2033C29.8333 30.9194 30.2883 30.1194 30.5917 29.2239H28.6667V31.6119Z" fill="black"/>
</svg>
