<svg width="48" height="49" viewBox="0 0 48 49" fill="none" xmlns="http://www.w3.org/2000/svg">
<rect x="0.25" y="1" width="47.5" height="47.5" rx="23.75" fill="white"/>
<rect x="0.25" y="1" width="47.5" height="47.5" rx="23.75" stroke="black" stroke-width="0.5"/>
<path d="M30.6 29.85C29.379 29.85 28.4 30.829 28.4 32.05C28.4 32.6335 28.6318 33.1931 29.0444 33.6056C29.4569 34.0182 30.0165 34.25 30.6 34.25C31.1835 34.25 31.7431 34.0182 32.1556 33.6056C32.5682 33.1931 32.8 32.6335 32.8 32.05C32.8 31.4665 32.5682 30.9069 32.1556 30.4944C31.7431 30.0818 31.1835 29.85 30.6 29.85ZM13 12.25V14.45H15.2L19.16 22.799L17.664 25.494C17.499 25.802 17.4 26.165 17.4 26.55C17.4 27.1335 17.6318 27.6931 18.0444 28.1056C18.4569 28.5182 19.0165 28.75 19.6 28.75H32.8V26.55H20.062C19.9891 26.55 19.9191 26.521 19.8675 26.4695C19.816 26.4179 19.787 26.3479 19.787 26.275C19.787 26.22 19.798 26.176 19.82 26.143L20.81 24.35H29.005C29.83 24.35 30.556 23.888 30.93 23.217L34.868 16.1C34.945 15.924 35 15.737 35 15.55C35 15.2583 34.8841 14.9785 34.6778 14.7722C34.4715 14.5659 34.1917 14.45 33.9 14.45H17.631L16.597 12.25M19.6 29.85C18.379 29.85 17.4 30.829 17.4 32.05C17.4 32.6335 17.6318 33.1931 18.0444 33.6056C18.4569 34.0182 19.0165 34.25 19.6 34.25C20.1835 34.25 20.7431 34.0182 21.1556 33.6056C21.5682 33.1931 21.8 32.6335 21.8 32.05C21.8 31.4665 21.5682 30.9069 21.1556 30.4944C20.7431 30.0818 20.1835 29.85 19.6 29.85Z" fill="black"/>
</svg>
