<svg width="48" height="48" viewBox="0 0 48 48" fill="none" xmlns="http://www.w3.org/2000/svg">
<rect x="0.25" y="0.25" width="47.5" height="47.5" rx="23.75" fill="white"/>
<rect x="0.25" y="0.25" width="47.5" height="47.5" rx="23.75" stroke="black" stroke-width="0.5"/>
<path d="M21.0452 16.4642C21.646 14.706 24.0754 14.6527 24.7877 16.3044L24.848 16.4652L25.6588 18.8362C25.8446 19.38 26.1448 19.8776 26.5393 20.2955C26.9338 20.7133 27.4133 21.0417 27.9454 21.2585L28.1635 21.3399L30.5345 22.1497C32.2927 22.7505 32.346 25.1798 30.6953 25.8921L30.5345 25.9524L28.1635 26.7632C27.6195 26.9489 27.1217 27.2491 26.7037 27.6436C26.2856 28.038 25.9571 28.5176 25.7401 29.0499L25.6588 29.2669L24.849 31.639C24.2482 33.3972 21.8189 33.4504 21.1075 31.7997L21.0452 31.639L20.2355 29.2679C20.0498 28.7239 19.7496 28.2261 19.3551 27.8081C18.9606 27.3901 18.4811 27.0615 17.9488 26.8446L17.7318 26.7632L15.3607 25.9534C13.6015 25.3526 13.5483 22.9233 15.2 22.212L15.3607 22.1497L17.7318 21.3399C18.2756 21.1541 18.7732 20.8538 19.191 20.4594C19.6089 20.0649 19.9373 19.5854 20.1541 19.0532L20.2355 18.8362L21.0452 16.4642ZM30.9846 13C31.1726 13 31.3568 13.0527 31.5162 13.1522C31.6757 13.2516 31.8041 13.3938 31.8868 13.5626L31.9351 13.6802L32.2867 14.711L33.3185 15.0626C33.5069 15.1266 33.672 15.2451 33.7929 15.403C33.9139 15.561 33.9853 15.7513 33.998 15.9498C34.0106 16.1483 33.9641 16.3461 33.8643 16.5182C33.7644 16.6903 33.6157 16.8288 33.4371 16.9163L33.3185 16.9645L32.2877 17.3161L31.9361 18.3479C31.872 18.5363 31.7534 18.7013 31.5954 18.8222C31.4374 18.943 31.2471 19.0142 31.0486 19.0268C30.85 19.0394 30.6522 18.9928 30.4802 18.8929C30.3082 18.7929 30.1698 18.6442 30.0824 18.4655L30.0342 18.3479L29.6825 17.3171L28.6507 16.9655C28.4624 16.9015 28.2972 16.783 28.1763 16.6251C28.0553 16.4672 27.984 16.2769 27.9713 16.0783C27.9586 15.8798 28.0051 15.682 28.105 15.5099C28.2048 15.3379 28.3535 15.1993 28.5322 15.1119L28.6507 15.0636L29.6815 14.712L30.0332 13.6802C30.1009 13.4817 30.2291 13.3094 30.3997 13.1874C30.5704 13.0654 30.7749 12.9999 30.9846 13Z" fill="black"/>
</svg>
