<svg width="48" height="48" viewBox="0 0 48 48" fill="none" xmlns="http://www.w3.org/2000/svg">
<rect x="0.25" y="0.25" width="47.5" height="47.5" rx="23.75" fill="white"/>
<rect x="0.25" y="0.25" width="47.5" height="47.5" rx="23.75" stroke="black" stroke-width="0.5"/>
<path d="M33.8182 18C32.2364 18 31.3527 19.56 31.7127 20.7192L27.84 24.5758C27.5127 24.4783 27.0327 24.4783 26.7055 24.5758L23.9236 21.8133C24.2945 20.6542 23.4109 19.0833 21.8182 19.0833C20.2364 19.0833 19.3418 20.6433 19.7127 21.8133L14.7382 26.7425C13.5709 26.385 12 27.2625 12 28.8333C12 30.025 12.9818 31 14.1818 31C15.7636 31 16.6473 29.44 16.2873 28.2808L21.2509 23.3408C21.5782 23.4383 22.0582 23.4383 22.3855 23.3408L25.1673 26.1033C24.7964 27.2625 25.68 28.8333 27.2727 28.8333C28.8545 28.8333 29.7491 27.2733 29.3782 26.1033L33.2618 22.2575C34.4291 22.615 36 21.7375 36 20.1667C36 18.975 35.0182 18 33.8182 18Z" fill="black"/>
<path d="M26.1765 17L27.0612 14.93L29 14L27.0612 13.07L26.1765 11L25.3106 13.07L23.3529 14L25.3106 14.93L26.1765 17ZM15.3529 19L15.8235 17L17.7059 16.5L15.8235 16L15.3529 14L14.8824 16L13 16.5L14.8824 17L15.3529 19Z" fill="black"/>
</svg>
