<svg width="22" height="12" viewBox="0 0 22 12" fill="none" xmlns="http://www.w3.org/2000/svg">
<path d="M20 0C18.55 0 17.74 1.44 18.07 2.51L14.52 6.07C14.22 5.98 13.78 5.98 13.48 6.07L10.93 3.52C11.27 2.45 10.46 1 9 1C7.55 1 6.73 2.44 7.07 3.52L2.51 8.07C1.44 7.74 0 8.55 0 10C0 11.1 0.9 12 2 12C3.45 12 4.26 10.56 3.93 9.49L8.48 4.93C8.78 5.02 9.22 5.02 9.52 4.93L12.07 7.48C11.73 8.55 12.54 10 14 10C15.45 10 16.27 8.56 15.93 7.48L19.49 3.93C20.56 4.26 22 3.45 22 2C22 0.9 21.1 0 20 0Z" fill="black"/>
</svg>
