<svg width="48" height="48" viewBox="0 0 48 48" fill="none" xmlns="http://www.w3.org/2000/svg">
<rect x="0.25" y="0.25" width="47.5" height="47.5" rx="23.75" fill="white"/>
<rect x="0.25" y="0.25" width="47.5" height="47.5" rx="23.75" stroke="black" stroke-width="0.5"/>
<path d="M34 31.2848C34 31.693 33.8575 32.0397 33.5725 32.3247L32.3362 33.5725C32.0358 33.8575 31.6853 34 31.2848 34C30.8766 34 30.5299 33.8575 30.2449 33.5725L26.0508 29.3668C25.7581 29.0895 25.6118 28.7429 25.6118 28.327C25.6118 27.9187 25.7774 27.549 26.1086 27.2178L23.1508 24.26L21.695 25.7158C21.5871 25.8236 21.4562 25.8775 21.3021 25.8775C21.1481 25.8775 21.0171 25.8236 20.9093 25.7158C20.9247 25.7312 20.9728 25.7774 21.0537 25.8544C21.1346 25.9314 21.1827 25.9815 21.1982 26.0046C21.2136 26.0277 21.2521 26.072 21.3137 26.1375C21.3753 26.203 21.4138 26.255 21.4292 26.2935C21.4446 26.332 21.4677 26.384 21.4986 26.4495C21.5294 26.5149 21.5505 26.5785 21.5621 26.6401C21.5737 26.7017 21.5794 26.771 21.5794 26.8481C21.5794 27.1408 21.4716 27.4027 21.2559 27.6337C21.2328 27.6568 21.1693 27.7262 21.0653 27.8417C20.9613 27.9572 20.8881 28.0362 20.8458 28.0786C20.8034 28.1209 20.7321 28.1845 20.632 28.2692C20.5319 28.3539 20.4471 28.4136 20.3778 28.4483C20.3085 28.483 20.2238 28.5176 20.1236 28.5523C20.0235 28.5869 19.9234 28.6043 19.8232 28.6043C19.5151 28.6043 19.2532 28.4964 19.0376 28.2808L14.3235 23.5667C14.1078 23.351 14 23.0892 14 22.7811C14 22.6809 14.0173 22.5808 14.052 22.4806C14.0867 22.3805 14.1213 22.2958 14.156 22.2265C14.1906 22.1571 14.2503 22.0724 14.3351 21.9723C14.4198 21.8721 14.4833 21.8009 14.5257 21.7585C14.5681 21.7162 14.647 21.643 14.7626 21.539C14.8781 21.435 14.9474 21.3715 14.9705 21.3484C15.2016 21.1327 15.4635 21.0248 15.7562 21.0248C15.8332 21.0248 15.9026 21.0306 15.9642 21.0422C16.0258 21.0537 16.0894 21.0749 16.1548 21.1057C16.2203 21.1365 16.2723 21.1596 16.3108 21.175C16.3493 21.1904 16.4013 21.229 16.4668 21.2906C16.5323 21.3522 16.5765 21.3907 16.5997 21.4061C16.6228 21.4215 16.6728 21.4697 16.7499 21.5505C16.8269 21.6314 16.8731 21.6796 16.8885 21.695C16.7807 21.5871 16.7267 21.4562 16.7267 21.3021C16.7267 21.1481 16.7807 21.0171 16.8885 20.9093L20.9093 16.8885C21.0171 16.7807 21.1481 16.7267 21.3021 16.7267C21.4562 16.7267 21.5871 16.7807 21.695 16.8885C21.6796 16.8731 21.6314 16.8269 21.5505 16.7499C21.4697 16.6728 21.4215 16.6228 21.4061 16.5997C21.3907 16.5765 21.3522 16.5323 21.2906 16.4668C21.229 16.4013 21.1904 16.3493 21.175 16.3108C21.1596 16.2723 21.1365 16.2203 21.1057 16.1548C21.0749 16.0894 21.0537 16.0258 21.0422 15.9642C21.0306 15.9026 21.0248 15.8332 21.0248 15.7562C21.0248 15.4635 21.1327 15.2016 21.3484 14.9705C21.3715 14.9474 21.435 14.8781 21.539 14.7626C21.643 14.647 21.7162 14.5681 21.7585 14.5257C21.8009 14.4833 21.8721 14.4198 21.9723 14.3351C22.0724 14.2503 22.1571 14.1906 22.2265 14.156C22.2958 14.1213 22.3805 14.0867 22.4806 14.052C22.5808 14.0173 22.6809 14 22.7811 14C23.0892 14 23.351 14.1078 23.5667 14.3235L28.2808 19.0376C28.4964 19.2532 28.6043 19.5151 28.6043 19.8232C28.6043 19.9234 28.5869 20.0235 28.5523 20.1236C28.5176 20.2238 28.483 20.3085 28.4483 20.3778C28.4136 20.4471 28.3539 20.5319 28.2692 20.632C28.1845 20.7321 28.1209 20.8034 28.0786 20.8458C28.0362 20.8881 27.9572 20.9613 27.8417 21.0653C27.7262 21.1693 27.6568 21.2328 27.6337 21.2559C27.4027 21.4716 27.1408 21.5794 26.8481 21.5794C26.771 21.5794 26.7017 21.5737 26.6401 21.5621C26.5785 21.5505 26.5149 21.5294 26.4495 21.4986C26.384 21.4677 26.332 21.4446 26.2935 21.4292C26.255 21.4138 26.203 21.3753 26.1375 21.3137C26.072 21.2521 26.0277 21.2136 26.0046 21.1982C25.9815 21.1827 25.9314 21.1346 25.8544 21.0537C25.7774 20.9728 25.7312 20.9247 25.7158 20.9093C25.8236 21.0171 25.8775 21.1481 25.8775 21.3021C25.8775 21.4562 25.8236 21.5871 25.7158 21.695L24.26 23.1508L27.2178 26.1086C27.549 25.7774 27.9187 25.6118 28.327 25.6118C28.7275 25.6118 29.078 25.7543 29.3784 26.0393L33.5725 30.2334C33.8575 30.5338 34 30.8843 34 31.2848Z" fill="black"/>
</svg>
