<svg width="48" height="48" viewBox="0 0 48 48" fill="none" xmlns="http://www.w3.org/2000/svg">
<rect x="0.25" y="0.25" width="47.5" height="47.5" rx="23.75" fill="white"/>
<rect x="0.25" y="0.25" width="47.5" height="47.5" rx="23.75" stroke="black" stroke-width="0.5"/>
<path d="M31.6471 28.7059C31.6471 28.3791 31.5327 28.1013 31.3039 27.8725L28.7549 25.3235C28.5261 25.0948 28.2484 24.9804 27.9216 24.9804C27.5784 24.9804 27.2843 25.1111 27.0392 25.3725C27.0637 25.3971 27.1413 25.4726 27.2721 25.5993C27.4028 25.7259 27.4906 25.8137 27.5355 25.8627C27.5805 25.9118 27.6417 25.9894 27.7194 26.0956C27.797 26.2018 27.8501 26.306 27.8787 26.4081C27.9073 26.5102 27.9216 26.6225 27.9216 26.7451C27.9216 27.0719 27.8072 27.3497 27.5784 27.5784C27.3497 27.8072 27.0719 27.9216 26.7451 27.9216C26.6225 27.9216 26.5102 27.9073 26.4081 27.8787C26.306 27.8501 26.2018 27.797 26.0956 27.7194C25.9894 27.6417 25.9118 27.5805 25.8627 27.5355C25.8137 27.4906 25.7259 27.4028 25.5993 27.2721C25.4726 27.1413 25.3971 27.0637 25.3725 27.0392C25.1029 27.2925 24.9681 27.5907 24.9681 27.9338C24.9681 28.2606 25.0825 28.5384 25.3113 28.7672L27.8358 31.3039C28.0564 31.5245 28.3342 31.6348 28.6691 31.6348C28.9959 31.6348 29.2737 31.5286 29.5025 31.3162L31.3039 29.527C31.5327 29.2982 31.6471 29.0245 31.6471 28.7059ZM23.0319 20.0662C23.0319 19.7394 22.9175 19.4616 22.6887 19.2328L20.1642 16.6961C19.9355 16.4673 19.6577 16.3529 19.3309 16.3529C19.0123 16.3529 18.7345 16.4632 18.4975 16.6838L16.6961 18.473C16.4673 18.7018 16.3529 18.9755 16.3529 19.2941C16.3529 19.6209 16.4673 19.8987 16.6961 20.1275L19.2451 22.6765C19.4657 22.8971 19.7435 23.0074 20.0784 23.0074C20.4216 23.0074 20.7157 22.8807 20.9608 22.6275C20.9363 22.6029 20.8587 22.5274 20.7279 22.4007C20.5972 22.2741 20.5094 22.1863 20.4645 22.1373C20.4195 22.0882 20.3583 22.0106 20.2806 21.9044C20.203 21.7982 20.1499 21.694 20.1213 21.5919C20.0927 21.4898 20.0784 21.3775 20.0784 21.2549C20.0784 20.9281 20.1928 20.6503 20.4216 20.4216C20.6503 20.1928 20.9281 20.0784 21.2549 20.0784C21.3775 20.0784 21.4898 20.0927 21.5919 20.1213C21.694 20.1499 21.7982 20.203 21.9044 20.2806C22.0106 20.3583 22.0882 20.4195 22.1373 20.4645C22.1863 20.5094 22.2741 20.5972 22.4007 20.7279C22.5274 20.8587 22.6029 20.9363 22.6275 20.9608C22.8971 20.7075 23.0319 20.4093 23.0319 20.0662ZM34 28.7059C34 29.6863 33.6528 30.5155 32.9583 31.1936L31.1569 32.9828C30.4788 33.6609 29.6495 34 28.6691 34C27.6806 34 26.8472 33.6528 26.1691 32.9583L23.6446 30.4216C22.9665 29.7435 22.6275 28.9142 22.6275 27.9338C22.6275 26.9289 22.9869 26.0752 23.7059 25.3725L22.6275 24.2941C21.9248 25.0131 21.0752 25.3725 20.0784 25.3725C19.098 25.3725 18.2647 25.0294 17.5784 24.3431L15.0294 21.7941C14.3431 21.1078 14 20.2745 14 19.2941C14 18.3137 14.3472 17.4845 15.0417 16.8064L16.8431 15.0172C17.5212 14.3391 18.3505 14 19.3309 14C20.3194 14 21.1528 14.3472 21.8309 15.0417L24.3554 17.5784C25.0335 18.2565 25.3725 19.0858 25.3725 20.0662C25.3725 21.0711 25.0131 21.9248 24.2941 22.6275L25.3725 23.7059C26.0752 22.9869 26.9248 22.6275 27.9216 22.6275C28.902 22.6275 29.7353 22.9706 30.4216 23.6569L32.9706 26.2059C33.6569 26.8922 34 27.7255 34 28.7059Z" fill="black"/>
</svg>
