<svg width="48" height="49" viewBox="0 0 48 49" fill="none" xmlns="http://www.w3.org/2000/svg">
<rect x="0.25" y="0.5" width="47.5" height="47.5" rx="23.75" fill="white"/>
<rect x="0.25" y="0.5" width="47.5" height="47.5" rx="23.75" stroke="black" stroke-width="0.5"/>
<path d="M24 15.9426C24.0002 15.4577 23.9052 14.9775 23.7205 14.5294C23.5358 14.0814 23.265 13.6743 22.9235 13.3314C22.5821 12.9885 22.1768 12.7165 21.7307 12.531C21.2845 12.3455 20.8064 12.2501 20.3235 12.2503H16.7238C16.237 12.244 15.7539 12.3349 15.3024 12.5176C14.8509 12.7003 14.44 12.9712 14.0936 13.3147C13.7472 13.6582 13.4721 14.0673 13.2844 14.5183C13.0967 14.9694 13 15.4534 13 15.9423C13 16.4312 13.0967 16.9152 13.2844 17.3662C13.4721 17.8173 13.7472 18.2264 14.0936 18.5699C14.44 18.9133 14.8509 19.1843 15.3024 19.367C15.7539 19.5497 16.237 19.6405 16.7238 19.6343H17.4284V21.4168C17.4284 21.4168 24 20.5259 24 15.9426ZM20.6533 25.6946C20.6533 27.0451 19.5642 28.139 18.2194 28.139C16.8747 28.139 15.7855 27.0451 15.7855 25.6946C15.7855 24.344 16.8747 23.2502 18.2194 23.2502C19.5642 23.2502 20.6533 24.344 20.6533 25.6946ZM18.2194 29.3612C16.4931 29.3612 13.0473 30.2351 13.0473 31.9688V34.25H23.3915V31.9688C23.3915 30.2344 19.9457 29.3612 18.2194 29.3612ZM29.7806 28.139C31.1253 28.139 32.2145 27.0451 32.2145 25.6946C32.2145 24.344 31.1253 23.2502 29.7806 23.2502C28.4358 23.2502 27.3467 24.344 27.3467 25.6946C27.3467 27.0451 28.4358 28.139 29.7806 28.139ZM29.7806 29.3612C28.0543 29.3612 24.6085 30.2351 24.6085 31.9688V34.25H34.9527V31.9688C34.9527 30.2344 31.5069 29.3612 29.7806 29.3612ZM28.8934 12.8614C28.4106 12.8612 27.9324 12.9566 27.4863 13.1421C27.0402 13.3276 26.6348 13.5996 26.2934 13.9425C25.952 14.2854 25.6812 14.6925 25.4965 15.1405C25.3118 15.5886 25.2168 16.0688 25.217 16.5537C25.217 21.137 31.0584 22.0279 31.0584 22.0279V20.2454H31.2762C31.763 20.2517 32.2461 20.1608 32.6976 19.9781C33.1491 19.7954 33.56 19.5244 33.9064 19.181C34.2528 18.8375 34.5279 18.4284 34.7156 17.9773C34.9033 17.5263 35 17.0423 35 16.5534C35 16.0645 34.9033 15.5805 34.7156 15.1294C34.5279 14.6784 34.2528 14.2693 33.9064 13.9258C33.56 13.5824 33.1491 13.3114 32.6976 13.1287C32.2461 12.946 31.763 12.8551 31.2762 12.8614H28.8934Z" fill="black"/>
</svg>
