<svg width="48" height="48" viewBox="0 0 48 48" fill="none" xmlns="http://www.w3.org/2000/svg">
<rect x="0.25" y="0.25" width="47.5" height="47.5" rx="23.75" fill="white"/>
<rect x="0.25" y="0.25" width="47.5" height="47.5" rx="23.75" stroke="black" stroke-width="0.5"/>
<path d="M36.1333 29C35.1078 29 34.1243 28.5976 33.3992 27.8812C32.674 27.1649 32.2667 26.1933 32.2667 25.1802C32.2667 24.1671 32.674 23.1955 33.3992 22.4792C34.1243 21.7628 35.1078 21.3604 36.1333 21.3604C37.1588 21.3604 38.1423 21.7628 38.8675 22.4792C39.5926 23.1955 40 24.1671 40 25.1802C40 26.1933 39.5926 27.1649 38.8675 27.8812C38.1423 28.5976 37.1588 29 36.1333 29ZM36.1333 27.4194C36.431 27.4196 36.7258 27.3618 37.0009 27.2494C37.2759 27.1371 37.5259 26.9723 37.7365 26.7645C37.9471 26.5567 38.1142 26.3099 38.2283 26.0383C38.3424 25.7667 38.4012 25.4756 38.4013 25.1815C38.4015 24.8875 38.3431 24.5962 38.2293 24.3245C38.1156 24.0528 37.9487 23.8058 37.7384 23.5978C37.528 23.3897 37.2783 23.2246 37.0033 23.1119C36.7284 22.9993 36.4337 22.9412 36.136 22.941H36.1333C35.5322 22.941 34.9556 23.1769 34.5306 23.5968C34.1055 24.0168 33.8667 24.5863 33.8667 25.1802C33.8667 25.7741 34.1055 26.3436 34.5306 26.7635C34.9556 27.1835 35.5322 27.4194 36.1333 27.4194ZM28.0467 29C27.0212 29 26.0377 28.5976 25.3125 27.8812C24.5874 27.1649 24.18 26.1933 24.18 25.1802C24.18 24.1671 24.5874 23.1955 25.3125 22.4792C26.0377 21.7628 27.0212 21.3604 28.0467 21.3604C29.0722 21.3604 30.0557 21.7628 30.7808 22.4792C31.506 23.1955 31.9133 24.1671 31.9133 25.1802C31.9133 26.1933 31.506 27.1649 30.7808 27.8812C30.0557 28.5976 29.0722 29 28.0467 29ZM28.0467 27.4194C28.3443 27.4196 28.6391 27.3618 28.9142 27.2494C29.1893 27.1371 29.4392 26.9723 29.6498 26.7645C29.8604 26.5567 30.0275 26.3099 30.1416 26.0383C30.2557 25.7667 30.3145 25.4756 30.3147 25.1815C30.3148 24.8875 30.2564 24.5962 30.1426 24.3245C30.0289 24.0528 29.8621 23.8058 29.6517 23.5978C29.4414 23.3897 29.1916 23.2246 28.9166 23.1119C28.6417 22.9993 28.347 22.9412 28.0493 22.941H28.0467C27.4455 22.941 26.869 23.1769 26.4439 23.5968C26.0188 24.0168 25.78 24.5863 25.78 25.1802C25.78 25.7741 26.0188 26.3436 26.4439 26.7635C26.869 27.1835 27.4455 27.4194 28.0467 27.4194ZM23.82 25.1301C23.82 27.264 22.0893 29 19.956 29C17.8227 29 16.0893 27.2692 16.0893 25.1328C16.0893 22.9963 17.664 21.3656 19.9573 21.3656C20.8053 21.3656 21.5893 21.5421 22.224 22.0032V19.7903C22.224 19.5807 22.3083 19.3797 22.4583 19.2315C22.6083 19.0833 22.8118 19 23.024 19C23.2362 19 23.4397 19.0833 23.5897 19.2315C23.7397 19.3797 23.824 19.5807 23.824 19.7903V25.1301H23.82ZM19.956 27.422C20.5572 27.4224 21.1338 27.1868 21.5592 26.7671C21.9845 26.3474 22.2236 25.778 22.224 25.1841C22.2244 24.5903 21.9859 24.0206 21.5611 23.6004C21.1362 23.1802 20.5598 22.944 19.9587 22.9436H19.956C19.3548 22.9436 18.7783 23.1795 18.3532 23.5995C17.9281 24.0194 17.6893 24.589 17.6893 25.1828C17.6893 25.7767 17.9281 26.3462 18.3532 26.7662C18.7783 27.1861 19.3548 27.422 19.956 27.422ZM11.8667 29C10.8412 29 9.85766 28.5976 9.13252 27.8812C8.40738 27.1649 8 26.1933 8 25.1802C8 24.1671 8.40738 23.1955 9.13252 22.4792C9.85766 21.7628 10.8412 21.3604 11.8667 21.3604C12.8922 21.3604 13.8757 21.7628 14.6008 22.4792C15.326 23.1955 15.7333 24.1671 15.7333 25.1802C15.7333 26.1933 15.326 27.1649 14.6008 27.8812C13.8757 28.5976 12.8922 29 11.8667 29ZM11.8667 27.4194C12.1643 27.4196 12.4591 27.3618 12.7342 27.2494C13.0093 27.1371 13.2592 26.9723 13.4698 26.7645C13.6804 26.5567 13.8475 26.3099 13.9616 26.0383C14.0757 25.7667 14.1345 25.4756 14.1347 25.1815C14.1348 24.8875 14.0764 24.5962 13.9626 24.3245C13.8489 24.0528 13.6821 23.8058 13.4717 23.5978C13.2614 23.3897 13.0116 23.2246 12.7366 23.1119C12.4617 22.9993 12.167 22.9412 11.8693 22.941H11.8667C11.2655 22.941 10.689 23.1769 10.2639 23.5968C9.83881 24.0168 9.6 24.5863 9.6 25.1802C9.6 25.7741 9.83881 26.3436 10.2639 26.7635C10.689 27.1835 11.2655 27.4194 11.8667 27.4194Z" fill="black"/>
</svg>
