<svg width="48" height="48" viewBox="0 0 48 48" fill="none" xmlns="http://www.w3.org/2000/svg">
<rect x="0.25" y="0.25" width="47.5" height="47.5" rx="23.75" fill="white"/>
<rect x="0.25" y="0.25" width="47.5" height="47.5" rx="23.75" stroke="black" stroke-width="0.5"/>
<path d="M27.0725 13L26.4589 13.9167C28.1372 14.9875 29.4336 16.4606 30.7173 19.2257L31.457 18.1565C31.2304 17.4064 30.9822 16.6109 30.7537 15.9432C30.5076 15.2243 30.2465 14.6129 30.1776 14.5126C30.1196 14.4281 29.7052 14.1052 29.0994 13.8083C28.5594 13.5437 27.8567 13.2629 27.0726 13L27.0725 13ZM27.4387 15.6519L25.0448 17.505C25.5178 17.7711 25.858 18.2412 25.9378 18.7906L28.4652 16.834C28.1346 16.3819 27.7954 15.9942 27.4387 15.6519ZM24.1538 18.0473C23.5908 18.0473 23.1429 18.4865 23.1429 19.0386C23.1429 19.5907 23.5908 20.0299 24.1538 20.0299C24.7169 20.0299 25.1648 19.5907 25.1648 19.0386C25.1648 18.4865 24.7169 18.0473 24.1538 18.0473ZM22.4245 19.5333L16.593 24.0475C17.1133 24.2488 17.4899 24.7377 17.5149 25.3106L23.4945 20.6818C22.9813 20.4821 22.5817 20.0572 22.4245 19.5333ZM30.0879 19.725V28.7762H30.8791V20.3736L30.5678 20.8236L30.2842 20.1676C30.22 20.0196 30.1546 19.872 30.0879 19.725ZM26.016 19.7484L25.3207 20.2761L25.4875 21.0525L24.849 20.6342L24.1892 21.135L25.4549 21.9644L22.3207 23.3795L22.5325 22.3926L21.5665 23.1259L20.496 28.1116L20.4767 28.12L20.4887 28.1463L19.6131 32.2242H18.9231V33H28.6813V32.1622L26.016 19.7484ZM25.8302 22.649L26.3586 25.1095L22.8835 23.9795L25.8302 22.649ZM22.073 24.5332L25.8722 25.7687L21.3881 27.7228L22.073 24.5332ZM16.0659 24.7249C15.6971 24.7249 15.4066 25.0097 15.4066 25.3714C15.4066 25.733 15.6971 26.0179 16.0659 26.0179C16.4347 26.0179 16.7253 25.733 16.7253 25.3714C16.7253 25.0097 16.4347 24.7249 16.0659 24.7249ZM26.613 26.2949L27.2702 29.3562L22.3492 28.153L26.613 26.2949ZM16.9943 26.4609C16.7924 26.6269 16.5442 26.7402 16.2726 26.7788L17.2073 28.7763H18.0778L16.9943 26.4609ZM15.138 26.4612L14.054 28.7763H14.9247L15.8599 26.7789C15.5882 26.7404 15.34 26.6272 15.138 26.4612ZM21.1852 28.6679L26.3184 29.9229L20.4678 32.0091L21.1852 28.6679ZM14 29.552V32.2242H18.1319V29.552H14ZM29.4725 29.552V30.2416H31.4945V29.552H29.4725ZM27.4803 30.3342L27.8861 32.2242H22.1797L27.4803 30.3342ZM29.4725 31.0174V32.2242H31.4945V31.0174H29.4725ZM32.2857 32.2242V33H34V32.2242H32.2857Z" fill="black"/>
</svg>
