<svg width="48" height="49" viewBox="0 0 48 49" fill="none" xmlns="http://www.w3.org/2000/svg">
<rect x="0.25" y="1" width="47.5" height="47.5" rx="23.75" fill="white"/>
<rect x="0.25" y="1" width="47.5" height="47.5" rx="23.75" stroke="black" stroke-width="0.5"/>
<path d="M14 16.2535V31.5587L25.7718 34V14L14 16.2535ZM19.9307 27.4655C16.1885 27.2268 16.5739 20.5552 20.0181 20.5021C23.7077 20.7434 23.3458 27.4123 19.9307 27.4655ZM19.9847 21.8084C18.0132 21.9438 18.1014 26.1212 19.9542 26.1547C21.9173 26.0296 21.802 21.8409 19.9847 21.8084ZM27.7776 24.4691C27.9554 24.5983 28.1695 24.4691 28.1695 24.4691C27.9561 24.5983 34 20.6276 34 20.6276V27.8179C34 28.6005 33.4934 28.9288 32.9238 28.9288H26.5154L26.5158 23.612L27.7776 24.4691ZM26.5161 18.2404V22.1525L27.8983 23.0133C27.9348 23.0239 28.0138 23.0246 28.0502 23.0133L33.9992 19.0464C33.9992 18.5769 33.5564 18.2404 33.3065 18.2404H26.5161Z" fill="black"/>
</svg>
