<svg width="48" height="49" viewBox="0 0 48 49" fill="none" xmlns="http://www.w3.org/2000/svg">
<rect x="0.25" y="1" width="47.5" height="47.5" rx="23.75" fill="white"/>
<rect x="0.25" y="1" width="47.5" height="47.5" rx="23.75" stroke="black" stroke-width="0.5"/>
<path d="M34 16.8571V15.4286H31.8571V14H30.4286V15.4286H29.7143C28.9264 15.4286 28.2857 16.07 28.2857 16.8571V18.2857C28.2857 19.0736 28.9264 19.7143 29.7143 19.7143H32.5714V21.1429H28.2857V22.5714H30.4286V24H31.8571V22.5714H32.5714C33.3593 22.5714 34 21.9307 34 21.1429V19.7143C34 18.9271 33.3593 18.2857 32.5714 18.2857H29.7143V16.8571H34ZM29.7143 26.8571V28.2857H31.5614L29 30.8471L27.3629 29.2093C27.2291 29.0755 27.0477 29.0002 26.8586 29H26.8571C26.668 29.0002 26.4866 29.0755 26.3529 29.2093L22.5714 32.99L23.5814 34L26.8579 30.7243L28.495 32.3621C28.6289 32.4961 28.8106 32.5713 29 32.5713C29.1894 32.5713 29.3711 32.4961 29.505 32.3621L32.5714 29.2957V31.1429H34V26.8571H29.7143ZM15.4286 34H14V30.4286C14 27.6714 16.2429 25.4286 19 25.4286H23.2857C24.7064 25.4286 26.0643 26.0357 27.0121 27.095L25.9479 28.0479C25.6129 27.6733 25.2026 27.3736 24.7439 27.1684C24.2851 26.9632 23.7882 26.8572 23.2857 26.8571H19C17.0307 26.8571 15.4286 28.4593 15.4286 30.4286V34ZM21.1429 24C22.4689 24 23.7407 23.4732 24.6784 22.5355C25.6161 21.5979 26.1429 20.3261 26.1429 19C26.1429 17.6739 25.6161 16.4021 24.6784 15.4645C23.7407 14.5268 22.4689 14 21.1429 14C19.8168 14 18.545 14.5268 17.6073 15.4645C16.6696 16.4021 16.1429 17.6739 16.1429 19C16.1429 20.3261 16.6696 21.5979 17.6073 22.5355C18.545 23.4732 19.8168 24 21.1429 24ZM21.1429 15.4286C22.0901 15.4286 22.9985 15.8048 23.6682 16.4746C24.338 17.1444 24.7143 18.0528 24.7143 19C24.7143 19.9472 24.338 20.8556 23.6682 21.5254C22.9985 22.1952 22.0901 22.5714 21.1429 22.5714C20.1957 22.5714 19.2872 22.1952 18.6175 21.5254C17.9477 20.8556 17.5714 19.9472 17.5714 19C17.5714 18.0528 17.9477 17.1444 18.6175 16.4746C19.2872 15.8048 20.1957 15.4286 21.1429 15.4286Z" fill="black"/>
</svg>
