<svg width="48" height="48" viewBox="0 0 48 48" fill="none" xmlns="http://www.w3.org/2000/svg">
<rect x="0.25" y="0.25" width="47.5" height="47.5" rx="23.75" fill="white"/>
<rect x="0.25" y="0.25" width="47.5" height="47.5" rx="23.75" stroke="black" stroke-width="0.5"/>
<path d="M11 31.1176V30.0823C11 29.349 11.1808 28.6752 11.5425 28.0609C11.9041 27.4467 12.4041 26.9773 13.0423 26.6529C14.2549 26.0274 15.5155 25.5314 16.8243 25.1647C18.133 24.798 19.4677 24.6147 20.8284 24.6147C21.1262 24.6147 21.3602 24.7497 21.5304 25.0198C21.7006 25.2898 21.7325 25.5754 21.6262 25.8765C21.4985 26.3294 21.4028 26.7823 21.339 27.2353C21.2751 27.6882 21.2432 28.152 21.2432 28.6265C21.2432 29.252 21.307 29.8559 21.4347 30.4382C21.5623 31.0206 21.7432 31.5922 21.9772 32.1529C22.1474 32.5196 22.1316 32.8703 21.9299 33.2051C21.7283 33.5398 21.4462 33.7067 21.0837 33.7059H13.5528C12.8508 33.7059 12.25 33.4527 11.7505 32.9462C11.251 32.4398 11.0009 31.8303 11 31.1176ZM30.1462 31.1176C30.8482 31.1176 31.4494 30.8644 31.9498 30.358C32.4501 29.8516 32.6999 29.242 32.6991 28.5294C32.6982 27.8168 32.4484 27.2077 31.9498 26.7021C31.4511 26.1965 30.85 25.9429 30.1462 25.9412C29.4425 25.9394 28.8417 26.1931 28.3439 26.7021C27.8461 27.2111 27.5959 27.8202 27.5934 28.5294C27.5908 29.2386 27.841 29.8481 28.3439 30.358C28.8468 30.8679 29.4476 31.1211 30.1462 31.1176ZM21.2113 23.3529C19.8073 23.3529 18.6053 22.8461 17.6054 21.8324C16.6056 20.8186 16.1057 19.6 16.1057 18.1765C16.1057 16.7529 16.6056 15.5343 17.6054 14.5206C18.6053 13.5069 19.8073 13 21.2113 13C22.6154 13 23.8173 13.5069 24.8172 14.5206C25.817 15.5343 26.317 16.7529 26.317 18.1765C26.317 19.6 25.817 20.8186 24.8172 21.8324C23.8173 22.8461 22.6154 23.3529 21.2113 23.3529ZM28.6783 33.9647L28.4869 33.0588C28.2316 32.951 27.9925 32.838 27.7695 32.7198C27.5466 32.6016 27.3177 32.4558 27.0828 32.2823L26.1574 32.5735C25.8809 32.6598 25.6098 32.649 25.3443 32.5412C25.0789 32.4333 24.8712 32.2608 24.7215 32.0235L24.4662 31.5706C24.3173 31.3118 24.2641 31.0314 24.3066 30.7294C24.3492 30.4274 24.4874 30.1794 24.7215 29.9853L25.4235 29.3706C25.3809 29.0686 25.3597 28.7882 25.3597 28.5294C25.3597 28.2706 25.3809 27.9902 25.4235 27.6882L24.7215 27.0735C24.4874 26.8794 24.3492 26.6365 24.3066 26.3449C24.2641 26.0533 24.3173 25.7785 24.4662 25.5206L24.7534 25.0353C24.9023 24.798 25.1044 24.6255 25.3597 24.5176C25.6149 24.4098 25.8809 24.399 26.1574 24.4853L27.0828 24.7765C27.3168 24.6039 27.5457 24.4581 27.7695 24.3391C27.9933 24.22 28.2325 24.107 28.4869 24L28.6783 23.0618C28.7422 22.7598 28.886 22.5174 29.1098 22.3345C29.3336 22.1516 29.594 22.0597 29.8909 22.0588H30.4015C30.6993 22.0588 30.9601 22.1559 31.1839 22.35C31.4077 22.5441 31.5511 22.7922 31.6141 23.0941L31.8056 24C32.0608 24.1078 32.3 24.2265 32.5229 24.3559C32.7459 24.4853 32.9748 24.6471 33.2096 24.8412L34.0712 24.55C34.369 24.4422 34.6562 24.4422 34.9328 24.55C35.2093 24.6578 35.4221 24.8412 35.571 25.1L35.8263 25.5529C35.9752 25.8118 36.0284 26.0922 35.9858 26.3941C35.9433 26.6961 35.805 26.9441 35.571 27.1382L34.869 27.7529C34.9115 28.0118 34.9328 28.2814 34.9328 28.5618C34.9328 28.8422 34.9115 29.1118 34.869 29.3706L35.571 29.9853C35.805 30.1794 35.9433 30.4223 35.9858 30.7139C36.0284 31.0055 35.9752 31.2803 35.8263 31.5382L35.5391 32.0235C35.3902 32.2608 35.1881 32.4333 34.9328 32.5412C34.6775 32.649 34.4116 32.6598 34.135 32.5735L33.2096 32.2823C32.9756 32.4549 32.7467 32.6003 32.5229 32.7185C32.2991 32.8367 32.06 32.9501 31.8056 33.0588L31.6141 33.9971C31.5503 34.299 31.4069 34.5419 31.1839 34.7256C30.961 34.9094 30.7002 35.0009 30.4015 35H29.8909C29.5931 35 29.3327 34.9029 29.1098 34.7088C28.8868 34.5147 28.743 34.2667 28.6783 33.9647Z" fill="black"/>
</svg>
