<svg width="48" height="49" viewBox="0 0 48 49" fill="none" xmlns="http://www.w3.org/2000/svg">
<rect x="0.25" y="0.75" width="47.5" height="47.5" rx="23.75" fill="white"/>
<rect x="0.25" y="0.75" width="47.5" height="47.5" rx="23.75" stroke="black" stroke-width="0.5"/>
<path d="M22.5068 22.4932V24.7138H20.2861V22.4932H22.5068Z" fill="black"/>
<path fill-rule="evenodd" clip-rule="evenodd" d="M17.4879 12.5C17.155 12.5 16.8264 12.5749 16.5264 12.719C16.2264 12.8632 15.9627 13.0729 15.7546 13.3327L12.3681 17.5664C11.4954 18.6568 12.2727 20.2723 13.6683 20.2723H14.7342V28.0446C14.7342 28.6335 14.9682 29.1983 15.3847 29.6148C15.8011 30.0313 16.3659 30.2652 16.9549 30.2652H25.8375C26.4265 30.2652 26.9913 30.0313 27.4077 29.6148C27.8242 29.1983 28.0582 28.6335 28.0582 28.0446V20.2723H30.2788V29.1549C30.2788 29.4494 30.3958 29.7318 30.604 29.94C30.8122 30.1482 31.0947 30.2652 31.3891 30.2652C31.6836 30.2652 31.966 30.1482 32.1743 29.94C32.3825 29.7318 32.4995 29.4494 32.4995 29.1549V20.2723H33.5654C34.9622 20.2723 35.7383 18.6568 34.8656 17.5664L31.4791 13.3339C31.2712 13.0738 31.0074 12.8639 30.7074 12.7195C30.4074 12.5752 30.0788 12.5002 29.7459 12.5H17.4879ZM19.1756 20.2723C18.8811 20.2723 18.5987 20.3893 18.3904 20.5975C18.1822 20.8057 18.0652 21.0881 18.0652 21.3826V25.8239C18.0652 26.1184 18.1822 26.4008 18.3904 26.609C18.5987 26.8173 18.8811 26.9342 19.1756 26.9342H23.6169C23.9113 26.9342 24.1937 26.8173 24.402 26.609C24.6102 26.4008 24.7272 26.1184 24.7272 25.8239V21.3826C24.7272 21.0881 24.6102 20.8057 24.402 20.5975C24.1937 20.3893 23.9113 20.2723 23.6169 20.2723H19.1756Z" fill="black"/>
</svg>
