<svg width="48" height="48" viewBox="0 0 48 48" fill="none" xmlns="http://www.w3.org/2000/svg">
<rect x="0.25" y="0.25" width="47.5" height="47.5" rx="23.75" fill="white"/>
<rect x="0.25" y="0.25" width="47.5" height="47.5" rx="23.75" stroke="black" stroke-width="0.5"/>
<path d="M18.949 34H29.051C31.0202 34 32 33.0205 32 31.0802V22.6101H25.1129C23.8953 22.6101 23.3246 22.041 23.3246 20.847V14H18.949C16.9895 14 16 14.9887 16 16.9294V31.0802C16 33.0297 16.9895 34 18.949 34ZM25.1417 21.3321H31.8953C31.8287 20.9497 31.5527 20.5763 31.1059 20.1194L25.8548 14.8864C25.4173 14.4386 25.0179 14.168 24.6181 14.1023V20.8287C24.6181 21.1642 24.7991 21.3321 25.1417 21.3321Z" fill="black"/>
</svg>
