<svg width="48" height="48" viewBox="0 0 48 48" fill="none" xmlns="http://www.w3.org/2000/svg">
<rect x="0.25" y="0.25" width="47.5" height="47.5" rx="23.75" fill="white"/>
<rect x="0.25" y="0.25" width="47.5" height="47.5" rx="23.75" stroke="black" stroke-width="0.5"/>
<path d="M15 26.2222C15 24.2778 15.4688 22.5463 16.4062 21.0278C17.3438 19.5093 18.375 18.2315 19.5 17.1944C20.625 16.1574 21.6562 15.3656 22.5938 14.8189L24 14V17.6667C24 18.3519 24.2344 18.8933 24.7031 19.2911C25.1719 19.6889 25.6969 19.8881 26.2781 19.8889C26.5969 19.8889 26.9018 19.8241 27.1927 19.6944C27.4838 19.5648 27.7508 19.3519 27.9938 19.0556L28.5 18.4444C29.85 19.2222 30.9375 20.3007 31.7625 21.68C32.5875 23.0593 33 24.5733 33 26.2222C33 27.8519 32.5969 29.3381 31.7906 30.6811C30.9844 32.0241 29.925 33.0837 28.6125 33.86C28.9313 33.4156 29.1799 32.9296 29.3584 32.4022C29.5369 31.8748 29.6257 31.3148 29.625 30.7222C29.625 29.9815 29.4844 29.2822 29.2031 28.6244C28.9219 27.9667 28.5188 27.3789 27.9938 26.8611L24 23L20.0344 26.8611C19.4906 27.3981 19.0781 27.9907 18.7969 28.6389C18.5156 29.287 18.375 29.9815 18.375 30.7222C18.375 31.3148 18.4642 31.8752 18.6427 32.4033C18.8212 32.9315 19.0695 33.4174 19.3875 33.8611C18.075 33.0833 17.0156 32.023 16.2094 30.68C15.4031 29.337 15 27.8511 15 26.2222ZM24 26.1111L26.3906 28.4167C26.7094 28.7315 26.9531 29.0833 27.1219 29.4722C27.2906 29.8611 27.375 30.2778 27.375 30.7222C27.375 31.6296 27.0469 32.403 26.3906 33.0422C25.7344 33.6815 24.9375 34.0007 24 34C23.0625 33.9993 22.2656 33.68 21.6094 33.0422C20.9531 32.4044 20.625 31.6311 20.625 30.7222C20.625 30.2963 20.7094 29.8844 20.8781 29.4867C21.0469 29.0889 21.2906 28.7322 21.6094 28.4167L24 26.1111Z" fill="black"/>
</svg>
