<svg width="48" height="49" viewBox="0 0 48 49" fill="none" xmlns="http://www.w3.org/2000/svg">
<rect x="0.25" y="1" width="47.5" height="47.5" rx="23.75" fill="white"/>
<rect x="0.25" y="1" width="47.5" height="47.5" rx="23.75" stroke="black" stroke-width="0.5"/>
<path d="M24 37.75C20.8146 36.9333 18.1847 35.0723 16.1103 32.1668C14.0358 29.2613 12.9991 26.0357 13 22.49V13.95L24 9.75L35 13.95V22.49C35 26.0367 33.9633 29.2627 31.8898 32.1682C29.8163 35.0737 27.1863 36.9343 24 37.75ZM24 34.81C26.2229 34.11 28.0792 32.7273 29.5687 30.6618C31.0583 28.5963 31.9292 26.2924 32.1813 23.75H24V12.725L15.75 15.875V23.12C15.75 23.2833 15.7729 23.4933 15.8188 23.75H24V34.81Z" fill="black"/>
</svg>
