<svg width="48" height="49" viewBox="0 0 48 49" fill="none" xmlns="http://www.w3.org/2000/svg">
<rect x="0.25" y="0.875" width="47.5" height="47.5" rx="23.75" fill="white"/>
<rect x="0.25" y="0.875" width="47.5" height="47.5" rx="23.75" stroke="black" stroke-width="0.5"/>
<path fill-rule="evenodd" clip-rule="evenodd" d="M24 14C18.477 14 14 18.477 14 24C14 25.89 14.525 27.66 15.438 29.168L14.546 32.2C14.4948 32.3741 14.4914 32.5587 14.5362 32.7346C14.5811 32.9104 14.6724 33.0709 14.8008 33.1992C14.9291 33.3276 15.0896 33.4189 15.2654 33.4638C15.4413 33.5086 15.6259 33.5052 15.8 33.454L18.832 32.562C20.3907 33.5049 22.1782 34.0023 24 34C29.523 34 34 29.523 34 24C34 18.477 29.523 14 24 14ZM21.738 26.263C23.761 28.285 25.692 28.552 26.374 28.577C27.411 28.615 28.421 27.823 28.814 26.904C28.8632 26.7896 28.881 26.6641 28.8655 26.5405C28.85 26.417 28.8019 26.2998 28.726 26.201C28.178 25.501 27.437 24.998 26.713 24.498C26.5619 24.3932 26.3761 24.3512 26.1946 24.3806C26.0131 24.4101 25.8502 24.5088 25.74 24.656L25.14 25.571C25.1083 25.62 25.0591 25.6551 25.0025 25.6692C24.9459 25.6833 24.886 25.6754 24.835 25.647C24.428 25.414 23.835 25.018 23.409 24.592C22.983 24.166 22.611 23.6 22.402 23.219C22.3767 23.1705 22.3696 23.1145 22.3819 23.0611C22.3941 23.0078 22.425 22.9606 22.469 22.928L23.393 22.242C23.5252 22.1276 23.6106 21.9684 23.6328 21.7949C23.6549 21.6215 23.6123 21.446 23.513 21.302C23.065 20.646 22.543 19.812 21.786 19.259C21.6881 19.1887 21.5737 19.1448 21.4539 19.1317C21.334 19.1185 21.2128 19.1365 21.102 19.184C20.182 19.578 19.386 20.588 19.424 21.627C19.449 22.309 19.716 24.24 21.738 26.263Z" fill="black"/>
</svg>
