<svg width="41" height="41" viewBox="0 0 41 41" fill="none" xmlns="http://www.w3.org/2000/svg">
<g filter="url(#filter0_i_2369_721)">
<rect x="0.5" y="0.5" width="40" height="40" rx="20" fill="white"/>
<path d="M24.3867 11.4375C24.3867 11.1889 24.4854 10.9504 24.6613 10.7746C24.8371 10.5988 25.0755 10.5 25.3242 10.5H28.4492C28.6978 10.5 28.9363 10.5988 29.1121 10.7746C29.2879 10.9504 29.3867 11.1889 29.3867 11.4375V14.5625C29.3867 14.8111 29.2879 15.0496 29.1121 15.2254C28.9363 15.4012 28.6978 15.5 28.4492 15.5C28.2005 15.5 27.9621 15.4012 27.7863 15.2254C27.6104 15.0496 27.5117 14.8111 27.5117 14.5625V13.7L21.9242 19.2875C21.7484 19.4631 21.5101 19.5617 21.2617 19.5617C21.0132 19.5617 20.7749 19.4631 20.5992 19.2875L17.5117 16.2L12.2367 21.475C12.1508 21.5671 12.0473 21.641 11.9323 21.6922C11.8173 21.7435 11.6932 21.771 11.5673 21.7732C11.4414 21.7755 11.3164 21.7523 11.1997 21.7052C11.0829 21.658 10.9769 21.5878 10.8879 21.4988C10.7988 21.4098 10.7287 21.3037 10.6815 21.187C10.6344 21.0703 10.6112 20.9452 10.6134 20.8193C10.6156 20.6935 10.6432 20.5693 10.6944 20.4543C10.7457 20.3393 10.8196 20.2358 10.9117 20.15L16.8492 14.2125C17.0249 14.0369 17.2632 13.9383 17.5117 13.9383C17.7601 13.9383 17.9984 14.0369 18.1742 14.2125L21.2617 17.3L26.1867 12.375H25.3242C25.0755 12.375 24.8371 12.2762 24.6613 12.1004C24.4854 11.9246 24.3867 11.6861 24.3867 11.4375ZM11.5742 25.5C11.8228 25.5 12.0613 25.5988 12.2371 25.7746C12.4129 25.9504 12.5117 26.1889 12.5117 26.4375V29.5625C12.5117 29.8111 12.4129 30.0496 12.2371 30.2254C12.0613 30.4012 11.8228 30.5 11.5742 30.5C11.3255 30.5 11.0871 30.4012 10.9113 30.2254C10.7354 30.0496 10.6367 29.8111 10.6367 29.5625V26.4375C10.6367 26.1889 10.7354 25.9504 10.9113 25.7746C11.0871 25.5988 11.3255 25.5 11.5742 25.5ZM17.5117 22.6875C17.5117 22.4389 17.4129 22.2004 17.2371 22.0246C17.0613 21.8488 16.8228 21.75 16.5742 21.75C16.3255 21.75 16.0871 21.8488 15.9113 22.0246C15.7354 22.2004 15.6367 22.4389 15.6367 22.6875V29.5625C15.6367 29.8111 15.7354 30.0496 15.9113 30.2254C16.0871 30.4012 16.3255 30.5 16.5742 30.5C16.8228 30.5 17.0613 30.4012 17.2371 30.2254C17.4129 30.0496 17.5117 29.8111 17.5117 29.5625V22.6875ZM21.5742 24.25C21.8228 24.25 22.0613 24.3488 22.2371 24.5246C22.4129 24.7004 22.5117 24.9389 22.5117 25.1875V29.5625C22.5117 29.8111 22.4129 30.0496 22.2371 30.2254C22.0613 30.4012 21.8228 30.5 21.5742 30.5C21.3255 30.5 21.0871 30.4012 20.9113 30.2254C20.7354 30.0496 20.6367 29.8111 20.6367 29.5625V25.1875C20.6367 24.9389 20.7354 24.7004 20.9113 24.5246C21.0871 24.3488 21.3255 24.25 21.5742 24.25ZM27.5117 20.1875C27.5117 19.9389 27.4129 19.7004 27.2371 19.5246C27.0613 19.3488 26.8228 19.25 26.5742 19.25C26.3255 19.25 26.0871 19.3488 25.9113 19.5246C25.7354 19.7004 25.6367 19.9389 25.6367 20.1875V29.5625C25.6367 29.8111 25.7354 30.0496 25.9113 30.2254C26.0871 30.4012 26.3255 30.5 26.5742 30.5C26.8228 30.5 27.0613 30.4012 27.2371 30.2254C27.4129 30.0496 27.5117 29.8111 27.5117 29.5625V20.1875Z" fill="black"/>
</g>
<defs>
<filter id="filter0_i_2369_721" x="0.5" y="0.5" width="40" height="44" filterUnits="userSpaceOnUse" color-interpolation-filters="sRGB">
<feFlood flood-opacity="0" result="BackgroundImageFix"/>
<feBlend mode="normal" in="SourceGraphic" in2="BackgroundImageFix" result="shape"/>
<feColorMatrix in="SourceAlpha" type="matrix" values="0 0 0 0 0 0 0 0 0 0 0 0 0 0 0 0 0 0 127 0" result="hardAlpha"/>
<feOffset dy="4"/>
<feGaussianBlur stdDeviation="2"/>
<feComposite in2="hardAlpha" operator="arithmetic" k2="-1" k3="1"/>
<feColorMatrix type="matrix" values="0 0 0 0 0 0 0 0 0 0 0 0 0 0 0 0 0 0 0.25 0"/>
<feBlend mode="normal" in2="shape" result="effect1_innerShadow_2369_721"/>
</filter>
</defs>
</svg>
