<svg width="20" height="21" viewBox="0 0 20 21" fill="none" xmlns="http://www.w3.org/2000/svg">
<path d="M9.16667 4.66683H6.66667L10 1.3335L13.3333 4.66683H10.8333V8.3585C10.2083 8.74183 9.65 9.21683 9.16667 9.76683V4.66683ZM18.3333 9.66683L15 6.3335V8.8335C13.5525 8.77397 12.138 9.27544 11.0512 10.2334C9.96443 11.1913 9.28934 12.5317 9.16667 13.9752C8.54182 14.197 8.03042 14.6576 7.74456 15.2558C7.4587 15.8541 7.4217 16.5413 7.64167 17.1668C7.86352 17.7917 8.32406 18.3031 8.92234 18.5889C9.52062 18.8748 10.2078 18.9118 10.8333 18.6918C11.4576 18.4692 11.9685 18.0086 12.2542 17.4106C12.54 16.8125 12.5774 16.1257 12.3583 15.5002C12.1083 14.7835 11.5417 14.2252 10.8333 13.9752C11.225 10.6418 14.5583 10.4752 14.9583 10.4752V12.9752L18.3333 9.66683ZM8.85834 10.1585C7.75267 9.30504 6.39674 8.83939 5.00001 8.8335V6.3335L1.66667 9.66683L5.00001 13.0002V10.5002C6.11667 10.5252 7.19167 10.9168 8.03334 11.6668C8.24167 11.1335 8.51667 10.6252 8.85834 10.1585Z" fill="black"/>
</svg>
