<svg width="40" height="41" viewBox="0 0 40 41" fill="none" xmlns="http://www.w3.org/2000/svg">
<g filter="url(#filter0_i_2369_492)">
<rect y="0.5" width="40" height="40" rx="20" fill="white"/>
<path d="M17.81 15.029C18.2486 13.7454 20.0222 13.7066 20.5422 14.9124L20.5862 15.0298L21.1781 16.7607C21.3138 17.1577 21.533 17.521 21.821 17.8261C22.109 18.1311 22.459 18.3709 22.8475 18.5292L23.0067 18.5886L24.7377 19.1797C26.0213 19.6184 26.0601 21.3919 24.855 21.9119L24.7377 21.9559L23.0067 22.5479C22.6096 22.6834 22.2462 22.9026 21.941 23.1906C21.6358 23.4786 21.3959 23.8287 21.2375 24.2172L21.1781 24.3757L20.587 26.1074C20.1483 27.391 18.3748 27.4299 17.8555 26.2248L17.81 26.1074L17.2188 24.3764C17.0833 23.9793 16.8641 23.6159 16.5761 23.3107C16.2881 23.0055 15.938 22.7656 15.5495 22.6073L15.391 22.5479L13.66 21.9567C12.3757 21.5181 12.3368 19.7445 13.5427 19.2252L13.66 19.1797L15.391 18.5886C15.788 18.4529 16.1513 18.2337 16.4563 17.9457C16.7614 17.6577 17.0012 17.3077 17.1594 16.9192L17.2188 16.7607L17.81 15.029ZM25.0663 12.5C25.2035 12.5 25.338 12.5385 25.4544 12.6111C25.5708 12.6837 25.6646 12.7875 25.7249 12.9107L25.7601 12.9966L26.0169 13.7491L26.7701 14.0058C26.9077 14.0525 27.0282 14.139 27.1165 14.2543C27.2048 14.3696 27.2569 14.5086 27.2662 14.6535C27.2754 14.7984 27.2415 14.9429 27.1686 15.0685C27.0957 15.1941 26.9871 15.2952 26.8567 15.3591L26.7701 15.3943L26.0176 15.651L25.7609 16.4043C25.7141 16.5418 25.6275 16.6622 25.5122 16.7505C25.3968 16.8387 25.2579 16.8907 25.113 16.8999C24.968 16.9091 24.8236 16.8751 24.6981 16.8021C24.5725 16.7291 24.4714 16.6206 24.4076 16.4901L24.3724 16.4043L24.1157 15.6517L23.3624 15.395C23.2249 15.3483 23.1044 15.2618 23.0161 15.1465C22.9277 15.0312 22.8757 14.8923 22.8664 14.7473C22.8571 14.6024 22.8911 14.458 22.964 14.3324C23.0369 14.2068 23.1454 14.1056 23.2759 14.0418L23.3624 14.0066L24.115 13.7498L24.3717 12.9966C24.4211 12.8516 24.5147 12.7258 24.6393 12.6368C24.7638 12.5477 24.9132 12.4999 25.0663 12.5Z" fill="black"/>
</g>
<defs>
<filter id="filter0_i_2369_492" x="0" y="0.5" width="40" height="44" filterUnits="userSpaceOnUse" color-interpolation-filters="sRGB">
<feFlood flood-opacity="0" result="BackgroundImageFix"/>
<feBlend mode="normal" in="SourceGraphic" in2="BackgroundImageFix" result="shape"/>
<feColorMatrix in="SourceAlpha" type="matrix" values="0 0 0 0 0 0 0 0 0 0 0 0 0 0 0 0 0 0 127 0" result="hardAlpha"/>
<feOffset dy="4"/>
<feGaussianBlur stdDeviation="2"/>
<feComposite in2="hardAlpha" operator="arithmetic" k2="-1" k3="1"/>
<feColorMatrix type="matrix" values="0 0 0 0 0 0 0 0 0 0 0 0 0 0 0 0 0 0 0.25 0"/>
<feBlend mode="normal" in2="shape" result="effect1_innerShadow_2369_492"/>
</filter>
</defs>
</svg>
