<svg width="32" height="32" viewBox="0 0 32 32" fill="none" xmlns="http://www.w3.org/2000/svg">
<rect x="31.25" y="31.25" width="30.5" height="30.5" rx="15.25" transform="rotate(180 31.25 31.25)" stroke="#252525" stroke-width="1.5"/>
<path d="M6 15.9992C6 15.6812 6.129 15.3761 6.35863 15.1513C6.58825 14.9264 6.89969 14.8 7.22444 14.8H21.5699L16.2036 10.0976C16.0827 9.99293 15.9841 9.86586 15.9135 9.72371C15.8429 9.58157 15.8017 9.42716 15.7923 9.26937C15.7828 9.11157 15.8053 8.95351 15.8585 8.80426C15.9116 8.65501 15.9944 8.51753 16.102 8.39971C16.2096 8.2819 16.3399 8.18608 16.4854 8.11777C16.631 8.04946 16.7889 8.01 16.9501 8.00167C17.1112 7.99333 17.2725 8.01629 17.4246 8.06921C17.5766 8.12213 17.7165 8.20398 17.8362 8.31004L25.591 15.1054C25.7196 15.2179 25.8226 15.3557 25.8931 15.5099C25.9636 15.6641 26 15.8311 26 16C26 16.1689 25.9636 16.3359 25.8931 16.4901C25.8226 16.6443 25.7196 16.7821 25.591 16.8946L17.8362 23.69C17.7165 23.796 17.5766 23.8779 17.4246 23.9308C17.2725 23.9837 17.1112 24.0067 16.9501 23.9983C16.7889 23.99 16.631 23.9505 16.4854 23.8822C16.3399 23.8139 16.2096 23.7181 16.102 23.6003C15.9944 23.4825 15.9116 23.345 15.8585 23.1957C15.8053 23.0465 15.7828 22.8884 15.7923 22.7306C15.8017 22.5728 15.8429 22.4184 15.9135 22.2763C15.9841 22.1341 16.0827 22.0071 16.2036 21.9024L21.5699 17.1984H7.22444C6.89969 17.1984 6.58825 17.072 6.35863 16.8472C6.129 16.6223 6 16.3172 6 15.9992Z" fill="#252525"/>
</svg>
