<svg width="40" height="40" viewBox="0 0 40 40" fill="none" xmlns="http://www.w3.org/2000/svg">
<path d="M0 29.9999C0 31.1786 0.468253 32.3091 1.30175 33.1426C2.13524 33.9761 3.2657 34.4443 4.44444 34.4443H35.5556C36.7343 34.4443 37.8648 33.9761 38.6983 33.1426C39.5317 32.3091 40 31.1786 40 29.9999V24.4443H0V29.9999Z" fill="#138808"/>
<path d="M40 15.5557V10.0001C40 8.82137 39.5317 7.69091 38.6983 6.85741C37.8648 6.02392 36.7343 5.55566 35.5556 5.55566H4.44444C3.2657 5.55566 2.13524 6.02392 1.30175 6.85741C0.468253 7.69091 0 8.82137 0 10.0001L0 15.5557H40Z" fill="#FF9933"/>
<path d="M0 15.1855H40V24.8155H0V15.1855Z" fill="#F7F7F7"/>
<path d="M20.0001 24.4446C22.4547 24.4446 24.4446 22.4547 24.4446 20.0001C24.4446 17.5455 22.4547 15.5557 20.0001 15.5557C17.5455 15.5557 15.5557 17.5455 15.5557 20.0001C15.5557 22.4547 17.5455 24.4446 20.0001 24.4446Z" fill="#000080"/>
<path d="M20 23.75C22.0711 23.75 23.75 22.0711 23.75 20C23.75 17.9289 22.0711 16.25 20 16.25C17.9289 16.25 16.25 17.9289 16.25 20C16.25 22.0711 17.9289 23.75 20 23.75Z" fill="#F7F7F7"/>
<path d="M20.111 18.611L19.9999 19.3332L19.8888 18.611L19.9999 16.4443L20.111 18.611ZM19.0799 16.5654L19.5332 18.6866L19.8277 19.3554L19.7477 18.6299L19.0799 16.5654ZM18.2221 16.921L19.2088 18.8521L19.6666 19.4221L19.4021 18.741L18.2221 16.921ZM17.4854 17.4854L18.9388 19.0966L19.5288 19.5288L19.0966 18.9388L17.4854 17.4854ZM16.921 18.2221L18.741 19.4021L19.4221 19.6666L18.8521 19.2088L16.921 18.2221ZM16.5654 19.0799L18.6299 19.7477L19.3554 19.8277L18.6866 19.5332L16.5654 19.0799ZM16.4443 19.9999L18.611 20.111L19.3332 19.9999L18.611 19.8888L16.4443 19.9999ZM16.5654 20.9199L18.6866 20.4666L19.3554 20.1721L18.6299 20.2521L16.5654 20.9199ZM16.921 21.7777L18.8521 20.791L19.4221 20.3332L18.741 20.5977L16.921 21.7777ZM17.4854 22.5143L19.0966 21.061L19.5288 20.471L18.9388 20.9032L17.4854 22.5143ZM18.2221 23.0788L19.4021 21.2588L19.6666 20.5777L19.2088 21.1477L18.2221 23.0788ZM19.0799 23.4343L19.7477 21.3699L19.8277 20.6443L19.5332 21.3132L19.0799 23.4343ZM19.9999 23.5554L20.111 21.3888L19.9999 20.6666L19.8888 21.3888L19.9999 23.5554ZM20.9199 23.4343L20.4666 21.3132L20.1721 20.6443L20.2521 21.3699L20.9199 23.4343ZM21.7777 23.0788L20.791 21.1477L20.3332 20.5777L20.5977 21.2588L21.7777 23.0788ZM22.5143 22.5143L21.061 20.9032L20.471 20.471L20.9032 21.061L22.5143 22.5143ZM23.0788 21.7777L21.2588 20.5977L20.5777 20.3332L21.1477 20.791L23.0788 21.7777ZM23.4343 20.9199L21.3699 20.2521L20.6443 20.1721L21.3132 20.4666L23.4343 20.9199ZM23.5554 19.9999L21.3888 19.8888L20.6666 19.9999L21.3888 20.111L23.5554 19.9999ZM23.4343 19.0799L21.3132 19.5332L20.6443 19.8277L21.3699 19.7477L23.4343 19.0799ZM23.0788 18.2221L21.1477 19.2088L20.5777 19.6666L21.2588 19.4021L23.0788 18.2221ZM22.5143 17.4854L20.9032 18.9388L20.471 19.5288L21.061 19.0966L22.5143 17.4854ZM21.7777 16.921L20.5977 18.741L20.3332 19.4221L20.791 18.8521L21.7777 16.921ZM20.9199 16.5654L20.2521 18.6299L20.1721 19.3554L20.4666 18.6866L20.9199 16.5654Z" fill="#6666B3"/>
<path d="M19.5113 16.5099C19.634 16.5099 19.7335 16.4104 19.7335 16.2877C19.7335 16.1649 19.634 16.0654 19.5113 16.0654C19.3886 16.0654 19.2891 16.1649 19.2891 16.2877C19.2891 16.4104 19.3886 16.5099 19.5113 16.5099Z" fill="#000080"/>
<path d="M18.5667 16.7633C18.6894 16.7633 18.7889 16.6638 18.7889 16.5411C18.7889 16.4183 18.6894 16.3188 18.5667 16.3188C18.444 16.3188 18.3445 16.4183 18.3445 16.5411C18.3445 16.6638 18.444 16.7633 18.5667 16.7633Z" fill="#000080"/>
<path d="M17.72 17.2511C17.8428 17.2511 17.9422 17.1516 17.9422 17.0289C17.9422 16.9061 17.8428 16.8066 17.72 16.8066C17.5973 16.8066 17.4978 16.9061 17.4978 17.0289C17.4978 17.1516 17.5973 17.2511 17.72 17.2511Z" fill="#000080"/>
<path d="M17.0291 17.942C17.1518 17.942 17.2513 17.8425 17.2513 17.7198C17.2513 17.5971 17.1518 17.4976 17.0291 17.4976C16.9064 17.4976 16.8069 17.5971 16.8069 17.7198C16.8069 17.8425 16.9064 17.942 17.0291 17.942Z" fill="#000080"/>
<path d="M16.5413 18.7887C16.664 18.7887 16.7635 18.6892 16.7635 18.5665C16.7635 18.4437 16.664 18.3442 16.5413 18.3442C16.4186 18.3442 16.3191 18.4437 16.3191 18.5665C16.3191 18.6892 16.4186 18.7887 16.5413 18.7887Z" fill="#000080"/>
<path d="M16.2879 19.733C16.4106 19.733 16.5101 19.6335 16.5101 19.5108C16.5101 19.3881 16.4106 19.2886 16.2879 19.2886C16.1652 19.2886 16.0657 19.3881 16.0657 19.5108C16.0657 19.6335 16.1652 19.733 16.2879 19.733Z" fill="#000080"/>
<path d="M16.2879 20.711C16.4106 20.711 16.5101 20.6116 16.5101 20.4888C16.5101 20.3661 16.4106 20.2666 16.2879 20.2666C16.1652 20.2666 16.0657 20.3661 16.0657 20.4888C16.0657 20.6116 16.1652 20.711 16.2879 20.711Z" fill="#000080"/>
<path d="M16.5413 21.6554C16.664 21.6554 16.7635 21.5559 16.7635 21.4332C16.7635 21.3104 16.664 21.2109 16.5413 21.2109C16.4186 21.2109 16.3191 21.3104 16.3191 21.4332C16.3191 21.5559 16.4186 21.6554 16.5413 21.6554Z" fill="#000080"/>
<path d="M17.0291 22.5021C17.1518 22.5021 17.2513 22.4026 17.2513 22.2798C17.2513 22.1571 17.1518 22.0576 17.0291 22.0576C16.9064 22.0576 16.8069 22.1571 16.8069 22.2798C16.8069 22.4026 16.9064 22.5021 17.0291 22.5021Z" fill="#000080"/>
<path d="M17.72 23.193C17.8428 23.193 17.9422 23.0935 17.9422 22.9708C17.9422 22.848 17.8428 22.7485 17.72 22.7485C17.5973 22.7485 17.4978 22.848 17.4978 22.9708C17.4978 23.0935 17.5973 23.193 17.72 23.193Z" fill="#000080"/>
<path d="M18.5667 23.6808C18.6894 23.6808 18.7889 23.5813 18.7889 23.4586C18.7889 23.3358 18.6894 23.2363 18.5667 23.2363C18.444 23.2363 18.3445 23.3358 18.3445 23.4586C18.3445 23.5813 18.444 23.6808 18.5667 23.6808Z" fill="#000080"/>
<path d="M19.5113 23.9342C19.634 23.9342 19.7335 23.8347 19.7335 23.712C19.7335 23.5892 19.634 23.4897 19.5113 23.4897C19.3886 23.4897 19.2891 23.5892 19.2891 23.712C19.2891 23.8347 19.3886 23.9342 19.5113 23.9342Z" fill="#000080"/>
<path d="M20.4891 23.9342C20.6118 23.9342 20.7113 23.8347 20.7113 23.712C20.7113 23.5892 20.6118 23.4897 20.4891 23.4897C20.3663 23.4897 20.2668 23.5892 20.2668 23.712C20.2668 23.8347 20.3663 23.9342 20.4891 23.9342Z" fill="#000080"/>
<path d="M21.4334 23.6808C21.5561 23.6808 21.6556 23.5813 21.6556 23.4586C21.6556 23.3358 21.5561 23.2363 21.4334 23.2363C21.3107 23.2363 21.2112 23.3358 21.2112 23.4586C21.2112 23.5813 21.3107 23.6808 21.4334 23.6808Z" fill="#000080"/>
<path d="M22.2801 23.193C22.4028 23.193 22.5023 23.0935 22.5023 22.9708C22.5023 22.848 22.4028 22.7485 22.2801 22.7485C22.1574 22.7485 22.0579 22.848 22.0579 22.9708C22.0579 23.0935 22.1574 23.193 22.2801 23.193Z" fill="#000080"/>
<path d="M22.9712 22.5021C23.094 22.5021 23.1935 22.4026 23.1935 22.2798C23.1935 22.1571 23.094 22.0576 22.9712 22.0576C22.8485 22.0576 22.749 22.1571 22.749 22.2798C22.749 22.4026 22.8485 22.5021 22.9712 22.5021Z" fill="#000080"/>
<path d="M23.459 21.6554C23.5818 21.6554 23.6813 21.5559 23.6813 21.4332C23.6813 21.3104 23.5818 21.2109 23.459 21.2109C23.3363 21.2109 23.2368 21.3104 23.2368 21.4332C23.2368 21.5559 23.3363 21.6554 23.459 21.6554Z" fill="#000080"/>
<path d="M23.7125 20.711C23.8352 20.711 23.9347 20.6116 23.9347 20.4888C23.9347 20.3661 23.8352 20.2666 23.7125 20.2666C23.5897 20.2666 23.4902 20.3661 23.4902 20.4888C23.4902 20.6116 23.5897 20.711 23.7125 20.711Z" fill="#000080"/>
<path d="M23.7125 19.733C23.8352 19.733 23.9347 19.6335 23.9347 19.5108C23.9347 19.3881 23.8352 19.2886 23.7125 19.2886C23.5897 19.2886 23.4902 19.3881 23.4902 19.5108C23.4902 19.6335 23.5897 19.733 23.7125 19.733Z" fill="#000080"/>
<path d="M23.459 18.7887C23.5818 18.7887 23.6813 18.6892 23.6813 18.5665C23.6813 18.4437 23.5818 18.3442 23.459 18.3442C23.3363 18.3442 23.2368 18.4437 23.2368 18.5665C23.2368 18.6892 23.3363 18.7887 23.459 18.7887Z" fill="#000080"/>
<path d="M22.9712 17.942C23.094 17.942 23.1935 17.8425 23.1935 17.7198C23.1935 17.5971 23.094 17.4976 22.9712 17.4976C22.8485 17.4976 22.749 17.5971 22.749 17.7198C22.749 17.8425 22.8485 17.942 22.9712 17.942Z" fill="#000080"/>
<path d="M22.2801 17.2511C22.4028 17.2511 22.5023 17.1516 22.5023 17.0289C22.5023 16.9061 22.4028 16.8066 22.2801 16.8066C22.1574 16.8066 22.0579 16.9061 22.0579 17.0289C22.0579 17.1516 22.1574 17.2511 22.2801 17.2511Z" fill="#000080"/>
<path d="M21.4334 16.7633C21.5561 16.7633 21.6556 16.6638 21.6556 16.5411C21.6556 16.4183 21.5561 16.3188 21.4334 16.3188C21.3107 16.3188 21.2112 16.4183 21.2112 16.5411C21.2112 16.6638 21.3107 16.7633 21.4334 16.7633Z" fill="#000080"/>
<path d="M20.4891 16.5099C20.6118 16.5099 20.7113 16.4104 20.7113 16.2877C20.7113 16.1649 20.6118 16.0654 20.4891 16.0654C20.3663 16.0654 20.2668 16.1649 20.2668 16.2877C20.2668 16.4104 20.3663 16.5099 20.4891 16.5099Z" fill="#000080"/>
<path d="M20 21C20.5523 21 21 20.5523 21 20C21 19.4477 20.5523 19 20 19C19.4477 19 19 19.4477 19 20C19 20.5523 19.4477 21 20 21Z" fill="#000080"/>
</svg>
