<svg width="32" height="32" viewBox="0 0 32 32" fill="none" xmlns="http://www.w3.org/2000/svg">
<path d="M16 2.66665C19.5362 2.66665 22.9276 4.07141 25.4281 6.57189C27.9286 9.07238 29.3333 12.4638 29.3333 16C29.3333 19.5362 27.9286 22.9276 25.4281 25.4281C22.9276 27.9286 19.5362 29.3333 16 29.3333C12.4638 29.3333 9.07238 27.9286 6.5719 25.4281C4.07141 22.9276 2.66666 19.5362 2.66666 16C2.66666 12.4638 4.07141 9.07238 6.5719 6.57189C9.07238 4.07141 12.4638 2.66665 16 2.66665ZM16.2613 9.72265C16.1372 9.8465 16.0386 9.99364 15.9714 10.1556C15.9042 10.3176 15.8696 10.4913 15.8696 10.6666C15.8696 10.842 15.9042 11.0157 15.9714 11.1777C16.0386 11.3397 16.1372 11.4868 16.2613 11.6106L19.3173 14.6666H9.33332C8.9797 14.6666 8.64056 14.8071 8.39051 15.0572C8.14047 15.3072 7.99999 15.6464 7.99999 16C7.99999 16.3536 8.14047 16.6927 8.39051 16.9428C8.64056 17.1928 8.9797 17.3333 9.33332 17.3333H19.3173L16.2613 20.3893C16.1374 20.5131 16.039 20.6601 15.9718 20.8219C15.9047 20.9837 15.87 21.1572 15.8699 21.3324C15.8698 21.5076 15.9042 21.6811 15.9711 21.843C16.038 22.0049 16.1362 22.152 16.26 22.276C16.3838 22.3999 16.5308 22.4983 16.6926 22.5655C16.8544 22.6326 17.0279 22.6673 17.203 22.6674C17.3782 22.6675 17.5517 22.6331 17.7136 22.5662C17.8756 22.4993 18.0227 22.4011 18.1467 22.2773L23.48 16.944C23.6042 16.8201 23.7027 16.673 23.7699 16.511C23.8371 16.349 23.8717 16.1754 23.8717 16C23.8717 15.8246 23.8371 15.6509 23.7699 15.489C23.7027 15.327 23.6042 15.1798 23.48 15.056L18.1467 9.72265C17.8966 9.47269 17.5575 9.33227 17.204 9.33227C16.8504 9.33227 16.5114 9.47269 16.2613 9.72265Z" fill="white"/>
</svg>
