<svg width="32" height="32" viewBox="0 0 32 32" fill="none" xmlns="http://www.w3.org/2000/svg">
<path d="M12.3867 21.1733L17.56 16L12.3867 10.8267C12.2632 10.7032 12.1653 10.5567 12.0985 10.3954C12.0317 10.2341 11.9973 10.0613 11.9973 9.88668C11.9973 9.71211 12.0317 9.53924 12.0985 9.37795C12.1653 9.21667 12.2632 9.07012 12.3867 8.94668C12.5101 8.82324 12.6567 8.72532 12.818 8.65851C12.9792 8.5917 13.1521 8.55732 13.3267 8.55732C13.5012 8.55732 13.6741 8.5917 13.8354 8.65851C13.9967 8.72532 14.1432 8.82324 14.2667 8.94668L20.3867 15.0667C20.5103 15.19 20.6083 15.3365 20.6753 15.4978C20.7422 15.6591 20.7766 15.8321 20.7766 16.0067C20.7766 16.1813 20.7422 16.3542 20.6753 16.5155C20.6083 16.6768 20.5103 16.8233 20.3867 16.9467L14.2667 23.0667C14.1433 23.1903 13.9968 23.2883 13.8355 23.3553C13.6742 23.4222 13.5013 23.4566 13.3267 23.4566C13.1521 23.4566 12.9791 23.4222 12.8178 23.3553C12.6565 23.2883 12.51 23.1903 12.3867 23.0667C11.88 22.5467 11.8667 21.6933 12.3867 21.1733Z" fill="#055087"/>
</svg>
