<svg width="41" height="41" viewBox="0 0 41 41" fill="none" xmlns="http://www.w3.org/2000/svg">
<g filter="url(#filter0_i_1077_156)">
<rect x="0.5" y="0.5" width="40" height="40" rx="20" fill="white"/>
<path d="M19.6666 14.6663H17.1666L20.5 11.333L23.8333 14.6663H21.3333V18.358C20.7083 18.7413 20.15 19.2163 19.6666 19.7663V14.6663ZM28.8333 19.6663L25.5 16.333V18.833C24.0525 18.7735 22.6379 19.275 21.5512 20.2329C20.4644 21.1908 19.7893 22.5312 19.6666 23.9747C19.0418 24.1965 18.5304 24.6571 18.2445 25.2553C17.9587 25.8536 17.9217 26.5408 18.1416 27.1663C18.3635 27.7912 18.824 28.3026 19.4223 28.5885C20.0206 28.8743 20.7078 28.9113 21.3333 28.6913C21.9576 28.4688 22.4684 28.0081 22.7542 27.4101C23.0399 26.812 23.0773 26.1252 22.8583 25.4997C22.6083 24.783 22.0416 24.2247 21.3333 23.9747C21.725 20.6413 25.0583 20.4747 25.4583 20.4747V22.9747L28.8333 19.6663ZM19.3583 20.158C18.2526 19.3045 16.8967 18.8389 15.5 18.833V16.333L12.1666 19.6663L15.5 22.9997V20.4997C16.6166 20.5247 17.6916 20.9163 18.5333 21.6663C18.7416 21.133 19.0166 20.6247 19.3583 20.158Z" fill="black"/>
</g>
<defs>
<filter id="filter0_i_1077_156" x="0.5" y="0.5" width="40" height="44" filterUnits="userSpaceOnUse" color-interpolation-filters="sRGB">
<feFlood flood-opacity="0" result="BackgroundImageFix"/>
<feBlend mode="normal" in="SourceGraphic" in2="BackgroundImageFix" result="shape"/>
<feColorMatrix in="SourceAlpha" type="matrix" values="0 0 0 0 0 0 0 0 0 0 0 0 0 0 0 0 0 0 127 0" result="hardAlpha"/>
<feOffset dy="4"/>
<feGaussianBlur stdDeviation="2"/>
<feComposite in2="hardAlpha" operator="arithmetic" k2="-1" k3="1"/>
<feColorMatrix type="matrix" values="0 0 0 0 0 0 0 0 0 0 0 0 0 0 0 0 0 0 0.25 0"/>
<feBlend mode="normal" in2="shape" result="effect1_innerShadow_1077_156"/>
</filter>
</defs>
</svg>
