<svg width="40" height="41" viewBox="0 0 40 41" fill="none" xmlns="http://www.w3.org/2000/svg">
<g filter="url(#filter0_i_679_2005)">
<rect y="0.5" width="40" height="40" rx="20" fill="white"/>
<path d="M27.7128 16.1291L27.4668 16.6951C27.4284 16.7872 27.3635 16.866 27.2804 16.9214C27.1973 16.9767 27.0997 17.0063 26.9998 17.0063C26.8999 17.0063 26.8023 16.9767 26.7192 16.9214C26.6361 16.866 26.5713 16.7872 26.5328 16.6951L26.2868 16.1291C25.8543 15.1278 25.0622 14.325 24.0668 13.8791L23.3078 13.5401C23.2157 13.4977 23.1377 13.4299 23.083 13.3445C23.0284 13.2592 22.9993 13.1599 22.9993 13.0586C22.9993 12.9572 23.0284 12.858 23.083 12.7727C23.1377 12.6873 23.2157 12.6194 23.3078 12.5771L24.0248 12.2581C25.0452 11.7995 25.8509 10.967 26.2758 9.93208L26.5298 9.32108C26.567 9.22643 26.6318 9.14518 26.7158 9.08791C26.7998 9.03063 26.8991 9 27.0008 9C27.1025 9 27.2018 9.03063 27.2858 9.08791C27.3698 9.14518 27.4346 9.22643 27.4718 9.32108L27.7248 9.93108C28.1493 10.9662 28.9546 11.799 29.9748 12.2581L30.6928 12.5781C30.7846 12.6206 30.8623 12.6884 30.9168 12.7737C30.9713 12.8589 31.0002 12.9579 31.0002 13.0591C31.0002 13.1602 30.9713 13.2593 30.9168 13.3445C30.8623 13.4297 30.7846 13.4976 30.6928 13.5401L29.9328 13.8781C28.9376 14.3244 28.1459 15.1276 27.7138 16.1291M15.9998 11.0011C17.9425 11.0008 19.8189 11.7074 21.2788 12.989C22.7388 14.2706 23.6825 16.0397 23.9338 17.9661L26.1838 21.5051C26.3318 21.7381 26.3018 22.0851 25.9588 22.2331L23.9998 23.0711V26.0011C23.9998 26.5315 23.7891 27.0402 23.414 27.4153C23.0389 27.7904 22.5302 28.0011 21.9998 28.0011H20.0008L19.9998 31.0011H10.9998V27.3071C10.9998 26.1271 10.5638 25.0101 9.75581 24.0021C8.81356 22.8256 8.22285 21.4069 8.05173 19.9093C7.88061 18.4118 8.13603 16.8964 8.78858 15.5376C9.44113 14.1789 10.4643 13.0322 11.7401 12.2296C13.0159 11.427 14.4925 11.0011 15.9998 11.0011ZM28.1538 27.1031L26.4888 25.9931C27.4764 24.5157 28.0023 22.7781 27.9998 21.0011C27.9991 20.4897 27.9578 19.9897 27.8758 19.5011L29.8188 19.0011C29.9388 19.6511 29.9991 20.3177 29.9998 21.0011C29.9998 23.2591 29.3198 25.3571 28.1538 27.1031Z" fill="black"/>
</g>
<defs>
<filter id="filter0_i_679_2005" x="0" y="0.5" width="40" height="44" filterUnits="userSpaceOnUse" color-interpolation-filters="sRGB">
<feFlood flood-opacity="0" result="BackgroundImageFix"/>
<feBlend mode="normal" in="SourceGraphic" in2="BackgroundImageFix" result="shape"/>
<feColorMatrix in="SourceAlpha" type="matrix" values="0 0 0 0 0 0 0 0 0 0 0 0 0 0 0 0 0 0 127 0" result="hardAlpha"/>
<feOffset dy="4"/>
<feGaussianBlur stdDeviation="2"/>
<feComposite in2="hardAlpha" operator="arithmetic" k2="-1" k3="1"/>
<feColorMatrix type="matrix" values="0 0 0 0 0 0 0 0 0 0 0 0 0 0 0 0 0 0 0.25 0"/>
<feBlend mode="normal" in2="shape" result="effect1_innerShadow_679_2005"/>
</filter>
</defs>
</svg>
