<svg width="40" height="41" viewBox="0 0 40 41" fill="none" xmlns="http://www.w3.org/2000/svg">
<g filter="url(#filter0_i_679_1972)">
<rect y="0.5" width="40" height="40" rx="20" fill="white"/>
<path d="M29.0184 19.7597C29.3133 18.9338 29.397 18.0448 29.2617 17.1766C29.1264 16.3085 28.7765 15.4899 28.2451 14.7981C27.7136 14.1064 27.0182 13.5643 26.2245 13.2231C25.4307 12.882 24.5649 12.753 23.7087 12.8483C23.1551 12.1745 22.4424 11.656 21.6378 11.3417C20.8332 11.0273 19.9633 10.9276 19.1105 11.0519C18.2576 11.1763 17.4499 11.5205 16.7637 12.0522C16.0775 12.5838 15.5354 13.2853 15.1887 14.0903C14.3404 14.2426 13.5441 14.6131 12.8752 15.1669C12.2062 15.7206 11.6866 16.4393 11.3654 17.2551C11.0442 18.0708 10.9321 18.9567 11.0396 19.829C11.1472 20.7012 11.4708 21.5311 11.9799 22.2402C11.7012 23.0227 11.6114 23.8622 11.7182 24.6876C11.825 25.513 12.1252 26.3 12.5934 26.9818C13.0616 27.6635 13.6839 28.22 14.4076 28.6041C15.1314 28.9881 15.9351 29.1884 16.7508 29.1879C16.9328 29.1879 17.1146 29.1775 17.2955 29.1569C17.8496 29.8295 18.5625 30.3468 19.3668 30.6601C20.1712 30.9735 21.0405 31.0724 21.8928 30.9476C22.745 30.8228 23.552 30.4783 24.2376 29.9468C24.9232 29.4153 25.4649 28.7142 25.8113 27.9097C26.6596 27.7574 27.4559 27.3869 28.1248 26.8331C28.7938 26.2793 29.3134 25.5606 29.6346 24.7449C29.9558 23.9291 30.0679 23.0433 29.9604 22.171C29.8528 21.2987 29.5292 20.4688 29.0201 19.7597H29.0184ZM25.0437 14.9927C25.7298 15.1801 26.33 15.6069 26.74 16.1988C27.1499 16.7908 27.3439 17.5106 27.2882 18.2333L24.0465 16.3225C23.8925 16.2318 23.7177 16.184 23.5399 16.184C23.362 16.184 23.1873 16.2318 23.0332 16.3225L19.8245 18.2135V17.0189L22.7377 15.3029C23.0828 15.0981 23.4644 14.9652 23.8602 14.9119C24.2561 14.8587 24.6584 14.8861 25.0437 14.9927ZM21.1755 20.6018V21.3982L20.5 21.7964L19.8245 21.3982V20.6018L20.5 20.2036L21.1755 20.6018ZM16.7846 16.1734C16.7846 15.6081 16.9359 15.0535 17.2222 14.5696C17.5085 14.0856 17.9188 13.6907 18.409 13.4275C18.8992 13.1642 19.4505 13.0427 20.0034 13.0759C20.5563 13.1092 21.0898 13.296 21.5462 13.6162L18.3045 15.5262C18.1505 15.6169 18.0226 15.7475 17.9337 15.9046C17.8448 16.0618 17.7979 16.2401 17.7979 16.4217V20.2036L16.7846 19.6063V16.1734ZM13.4349 17.6326C13.7411 17.0884 14.2027 16.6524 14.758 16.3829V20.2036C14.7579 20.3853 14.8047 20.5638 14.8936 20.7211C14.9826 20.8785 15.1105 21.0091 15.2647 21.1L18.4734 22.9901L17.4601 23.5856L14.5469 21.8705C13.849 21.4589 13.3397 20.7813 13.1312 19.9866C12.9227 19.1919 13.0319 18.3451 13.4349 17.6326ZM15.9562 27.0073C15.2702 26.8199 14.67 26.3931 14.26 25.8011C13.8501 25.2092 13.6561 24.4893 13.7118 23.7666L16.9535 25.6774C17.1075 25.7682 17.2823 25.816 17.4601 25.816C17.638 25.816 17.8127 25.7682 17.9668 25.6774L21.1755 23.7865V24.981L18.2623 26.697C17.9172 26.9019 17.5356 27.0348 17.1398 27.0881C16.7439 27.1413 16.3416 27.1139 15.9562 27.0073ZM24.2154 25.8265C24.2154 26.3919 24.0641 26.9465 23.7778 27.4304C23.4915 27.9144 23.0812 28.3093 22.591 28.5725C22.1008 28.8358 21.5495 28.9573 20.9966 28.924C20.4437 28.8908 19.9102 28.7039 19.4538 28.3837L22.6955 26.4738C22.8495 26.3831 22.9774 26.2525 23.0663 26.0953C23.1552 25.9381 23.2021 25.7598 23.2021 25.5783V21.7964L24.2154 22.3937V25.8265ZM27.5651 24.3674C27.2589 24.9116 26.7973 25.3476 26.242 25.6171V21.7964C26.2421 21.6147 26.1953 21.4362 26.1064 21.2789C26.0174 21.1215 25.8895 20.9908 25.7353 20.9L22.5266 19.0099L23.5399 18.4143L26.4531 20.1312C27.1506 20.5428 27.6595 21.2201 27.868 22.0144C28.0765 22.8087 27.9676 23.655 27.5651 24.3674Z" fill="black"/>
</g>
<defs>
<filter id="filter0_i_679_1972" x="0" y="0.5" width="40" height="44" filterUnits="userSpaceOnUse" color-interpolation-filters="sRGB">
<feFlood flood-opacity="0" result="BackgroundImageFix"/>
<feBlend mode="normal" in="SourceGraphic" in2="BackgroundImageFix" result="shape"/>
<feColorMatrix in="SourceAlpha" type="matrix" values="0 0 0 0 0 0 0 0 0 0 0 0 0 0 0 0 0 0 127 0" result="hardAlpha"/>
<feOffset dy="4"/>
<feGaussianBlur stdDeviation="2"/>
<feComposite in2="hardAlpha" operator="arithmetic" k2="-1" k3="1"/>
<feColorMatrix type="matrix" values="0 0 0 0 0 0 0 0 0 0 0 0 0 0 0 0 0 0 0.25 0"/>
<feBlend mode="normal" in2="shape" result="effect1_innerShadow_679_1972"/>
</filter>
</defs>
</svg>
