<svg width="41" height="41" viewBox="0 0 41 41" fill="none" xmlns="http://www.w3.org/2000/svg">
<g filter="url(#filter0_i_1077_91)">
<rect x="0.5" y="0.5" width="40" height="40" rx="20" fill="white"/>
<mask id="mask0_1077_91" style="mask-type:luminance" maskUnits="userSpaceOnUse" x="10" y="11" width="19" height="19">
<path d="M19.5 28.8337C24.1025 28.8337 27.8333 25.1028 27.8333 20.5003C27.8333 15.8978 24.1025 12.167 19.5 12.167C14.8975 12.167 11.1666 15.8978 11.1666 20.5003C11.1666 25.1028 14.8975 28.8337 19.5 28.8337Z" fill="white" stroke="white" stroke-width="2" stroke-linejoin="round"/>
<path d="M22.4166 18V18.4167M16.5833 18V18.4167M22.4166 23.4167C22.4166 23.4167 21.5833 25.0833 19.4999 25.0833C17.4166 25.0833 16.5833 23.4167 16.5833 23.4167" stroke="black" stroke-width="2" stroke-linecap="round" stroke-linejoin="round"/>
</mask>
<g mask="url(#mask0_1077_91)">
<path d="M9.5 10.5H29.5V30.5H9.5V10.5Z" fill="black"/>
</g>
</g>
<defs>
<filter id="filter0_i_1077_91" x="0.5" y="0.5" width="40" height="44" filterUnits="userSpaceOnUse" color-interpolation-filters="sRGB">
<feFlood flood-opacity="0" result="BackgroundImageFix"/>
<feBlend mode="normal" in="SourceGraphic" in2="BackgroundImageFix" result="shape"/>
<feColorMatrix in="SourceAlpha" type="matrix" values="0 0 0 0 0 0 0 0 0 0 0 0 0 0 0 0 0 0 127 0" result="hardAlpha"/>
<feOffset dy="4"/>
<feGaussianBlur stdDeviation="2"/>
<feComposite in2="hardAlpha" operator="arithmetic" k2="-1" k3="1"/>
<feColorMatrix type="matrix" values="0 0 0 0 0 0 0 0 0 0 0 0 0 0 0 0 0 0 0.25 0"/>
<feBlend mode="normal" in2="shape" result="effect1_innerShadow_1077_91"/>
</filter>
</defs>
</svg>
