<svg width="40" height="41" viewBox="0 0 40 41" fill="none" xmlns="http://www.w3.org/2000/svg">
<g filter="url(#filter0_i_679_1999)">
<rect y="0.5" width="40" height="40" rx="20" fill="white"/>
<path d="M27.713 17.1291L27.467 17.6951C27.4286 17.7872 27.3637 17.866 27.2806 17.9214C27.1975 17.9767 27.0999 18.0063 27 18.0063C26.9001 18.0063 26.8025 17.9767 26.7194 17.9214C26.6363 17.866 26.5714 17.7872 26.533 17.6951L26.287 17.1291C25.8545 16.1278 25.0624 15.325 24.067 14.8791L23.308 14.5401C23.2159 14.4977 23.1379 14.4299 23.0832 14.3445C23.0286 14.2592 22.9995 14.1599 22.9995 14.0586C22.9995 13.9572 23.0286 13.858 23.0832 13.7727C23.1379 13.6873 23.2159 13.6194 23.308 13.5771L24.025 13.2581C25.0454 12.7995 25.8511 11.967 26.276 10.9321L26.529 10.3211C26.5662 10.2264 26.631 10.1452 26.715 10.0879C26.799 10.0306 26.8983 10 27 10C27.1017 10 27.201 10.0306 27.285 10.0879C27.369 10.1452 27.4338 10.2264 27.471 10.3211L27.724 10.9311C28.1485 11.9662 28.9538 12.799 29.974 13.2581L30.692 13.5781C30.7838 13.6206 30.8615 13.6884 30.916 13.7737C30.9705 13.8589 30.9994 13.9579 30.9994 14.0591C30.9994 14.1602 30.9705 14.2593 30.916 14.3445C30.8615 14.4297 30.7838 14.4976 30.692 14.5401L29.932 14.8781C28.9368 15.3244 28.1451 16.1276 27.713 17.1291ZM27 20.0011C27.6787 20.0016 28.3526 19.887 28.993 19.6621C28.9977 19.7754 29 19.8884 29 20.0011C29 22.1228 28.1571 24.1576 26.6569 25.6579C25.1566 27.1582 23.1217 28.0011 21 28.0011V31.5011C16 29.5011 9 26.5011 9 20.0011C9 17.8793 9.84285 15.8445 11.3431 14.3442C12.8434 12.8439 14.8783 12.0011 17 12.0011H21C21.1133 12.0011 21.2263 12.0034 21.339 12.0081C21.0203 12.913 20.9233 13.8812 21.056 14.8313C21.1888 15.7815 21.5475 16.686 22.102 17.4689C22.6565 18.2518 23.3906 18.8904 24.2429 19.331C25.0951 19.7715 26.0406 20.0013 27 20.0011Z" fill="black"/>
</g>
<defs>
<filter id="filter0_i_679_1999" x="0" y="0.5" width="40" height="44" filterUnits="userSpaceOnUse" color-interpolation-filters="sRGB">
<feFlood flood-opacity="0" result="BackgroundImageFix"/>
<feBlend mode="normal" in="SourceGraphic" in2="BackgroundImageFix" result="shape"/>
<feColorMatrix in="SourceAlpha" type="matrix" values="0 0 0 0 0 0 0 0 0 0 0 0 0 0 0 0 0 0 127 0" result="hardAlpha"/>
<feOffset dy="4"/>
<feGaussianBlur stdDeviation="2"/>
<feComposite in2="hardAlpha" operator="arithmetic" k2="-1" k3="1"/>
<feColorMatrix type="matrix" values="0 0 0 0 0 0 0 0 0 0 0 0 0 0 0 0 0 0 0.25 0"/>
<feBlend mode="normal" in2="shape" result="effect1_innerShadow_679_1999"/>
</filter>
</defs>
</svg>
