<svg width="41" height="41" viewBox="0 0 41 41" fill="none" xmlns="http://www.w3.org/2000/svg">
<g filter="url(#filter0_i_1077_127)">
<rect x="0.5" y="0.5" width="40" height="40" rx="20" fill="white"/>
<path d="M18.3101 15.029C18.7488 13.7454 20.5223 13.7066 21.0423 14.9124L21.0863 15.0298L21.6783 16.7607C21.8139 17.1577 22.0331 17.521 22.3211 17.8261C22.6091 18.1311 22.9591 18.3709 23.3476 18.5292L23.5068 18.5886L25.2378 19.1797C26.5214 19.6184 26.5603 21.3919 25.3552 21.9119L25.2378 21.9559L23.5068 22.5479C23.1097 22.6834 22.7463 22.9026 22.4411 23.1906C22.1359 23.4786 21.896 23.8287 21.7377 24.2172L21.6783 24.3757L21.0871 26.1074C20.6485 27.391 18.8749 27.4299 18.3556 26.2248L18.3101 26.1074L17.719 24.3764C17.5834 23.9793 17.3642 23.6159 17.0763 23.3107C16.7883 23.0055 16.4382 22.7656 16.0496 22.6073L15.8911 22.5479L14.1601 21.9567C12.8758 21.5181 12.837 19.7445 14.0428 19.2252L14.1601 19.1797L15.8911 18.5886C16.2881 18.4529 16.6514 18.2337 16.9565 17.9457C17.2615 17.6577 17.5013 17.3077 17.6596 16.9192L17.719 16.7607L18.3101 15.029ZM25.5664 12.5C25.7036 12.5 25.8381 12.5385 25.9545 12.6111C26.071 12.6837 26.1647 12.7875 26.2251 12.9107L26.2603 12.9966L26.517 13.7491L27.2703 14.0058C27.4078 14.0525 27.5283 14.139 27.6166 14.2543C27.7049 14.3696 27.757 14.5086 27.7663 14.6535C27.7756 14.7984 27.7416 14.9429 27.6687 15.0685C27.5958 15.1941 27.4873 15.2952 27.3568 15.3591L27.2703 15.3943L26.5177 15.651L26.261 16.4043C26.2142 16.5418 26.1276 16.6622 26.0123 16.7505C25.897 16.8387 25.758 16.8907 25.6131 16.8999C25.4682 16.9091 25.3238 16.8751 25.1982 16.8021C25.0726 16.7291 24.9715 16.6206 24.9077 16.4901L24.8725 16.4043L24.6158 15.6517L23.8625 15.395C23.725 15.3483 23.6045 15.2618 23.5162 15.1465C23.4279 15.0312 23.3758 14.8923 23.3665 14.7473C23.3572 14.6024 23.3912 14.458 23.4641 14.3324C23.537 14.2068 23.6456 14.1056 23.776 14.0418L23.8625 14.0066L24.6151 13.7498L24.8718 12.9966C24.9213 12.8516 25.0148 12.7258 25.1394 12.6368C25.264 12.5477 25.4133 12.4999 25.5664 12.5Z" fill="black"/>
</g>
<defs>
<filter id="filter0_i_1077_127" x="0.5" y="0.5" width="40" height="44" filterUnits="userSpaceOnUse" color-interpolation-filters="sRGB">
<feFlood flood-opacity="0" result="BackgroundImageFix"/>
<feBlend mode="normal" in="SourceGraphic" in2="BackgroundImageFix" result="shape"/>
<feColorMatrix in="SourceAlpha" type="matrix" values="0 0 0 0 0 0 0 0 0 0 0 0 0 0 0 0 0 0 127 0" result="hardAlpha"/>
<feOffset dy="4"/>
<feGaussianBlur stdDeviation="2"/>
<feComposite in2="hardAlpha" operator="arithmetic" k2="-1" k3="1"/>
<feColorMatrix type="matrix" values="0 0 0 0 0 0 0 0 0 0 0 0 0 0 0 0 0 0 0.25 0"/>
<feBlend mode="normal" in2="shape" result="effect1_innerShadow_1077_127"/>
</filter>
</defs>
</svg>
