<svg width="40" height="40" viewBox="0 0 40 40" fill="none" xmlns="http://www.w3.org/2000/svg">
<g filter="url(#filter0_i_679_1979)">
<rect width="40" height="40" rx="20" fill="white"/>
<path d="M19.0025 10C20.5408 10.0005 22.0582 10.3559 23.4368 11.0384C24.8153 11.7209 26.0179 12.7122 26.9508 13.9352C27.8837 15.1582 28.522 16.5799 28.8158 18.0897C29.1097 19.5995 29.0513 21.1568 28.6451 22.6403C28.2389 24.1239 27.496 25.4938 26.474 26.6434C25.4521 27.7931 24.1787 28.6915 22.7529 29.2688C21.327 29.8462 19.7872 30.0869 18.2532 29.9722C16.7192 29.8574 15.2324 29.3905 13.9083 28.6075L9.82412 29.9675C9.71409 30.004 9.59608 30.0092 9.48327 29.9825C9.37046 29.9558 9.2673 29.8982 9.18533 29.8162C9.10336 29.7343 9.0458 29.6311 9.01908 29.5183C8.99236 29.4055 8.99755 29.2875 9.03405 29.1775L10.3954 25.095C9.49616 23.5764 9.01484 21.8469 9.00034 20.0821C8.98584 18.3174 9.43868 16.5802 10.3129 15.0471C11.1871 13.5139 12.4515 12.2394 13.9777 11.353C15.5039 10.4665 17.2375 9.99973 19.0025 10ZM15.5197 15.005C15.3925 15.0093 15.2678 15.0412 15.1542 15.0987C15.0406 15.1561 14.9409 15.2376 14.8621 15.3375C14.6371 15.6012 14.002 16.2437 14.002 17.5462C14.002 18.8512 14.8834 20.1137 15.0071 20.2912C15.1296 20.4637 16.7423 23.1412 19.2113 24.2912C19.6697 24.5037 20.1364 24.6896 20.6114 24.8487C21.2015 25.0487 21.739 25.0225 22.1641 24.955C22.6379 24.88 23.6192 24.3137 23.8255 23.6925C24.0292 23.0762 24.0292 22.545 23.9667 22.4337C23.9055 22.3237 23.7417 22.2562 23.4942 22.1212C23.2492 21.99 22.0378 21.3487 21.8128 21.2625C21.5878 21.1712 21.4227 21.13 21.259 21.3937C21.094 21.66 20.6252 22.2575 20.4802 22.4337C20.3389 22.6075 20.1926 22.6325 19.9488 22.5C19.7013 22.3687 18.91 22.0875 17.9687 21.1825C17.2373 20.4812 16.7435 19.61 16.601 19.3462C16.456 19.08 16.5848 18.9387 16.7073 18.805C16.8198 18.6875 16.9548 18.4975 17.0773 18.3412C17.1986 18.1887 17.2423 18.0787 17.3248 17.9C17.4049 17.7237 17.3636 17.5675 17.3023 17.4362C17.2411 17.305 16.7485 15.9962 16.5435 15.465C16.3435 14.9488 16.1397 15.0212 15.9897 15.0112C15.8472 15.005 15.6834 15.005 15.5197 15.005Z" fill="black"/>
</g>
<defs>
<filter id="filter0_i_679_1979" x="0" y="0" width="40" height="44" filterUnits="userSpaceOnUse" color-interpolation-filters="sRGB">
<feFlood flood-opacity="0" result="BackgroundImageFix"/>
<feBlend mode="normal" in="SourceGraphic" in2="BackgroundImageFix" result="shape"/>
<feColorMatrix in="SourceAlpha" type="matrix" values="0 0 0 0 0 0 0 0 0 0 0 0 0 0 0 0 0 0 127 0" result="hardAlpha"/>
<feOffset dy="4"/>
<feGaussianBlur stdDeviation="2"/>
<feComposite in2="hardAlpha" operator="arithmetic" k2="-1" k3="1"/>
<feColorMatrix type="matrix" values="0 0 0 0 0 0 0 0 0 0 0 0 0 0 0 0 0 0 0.25 0"/>
<feBlend mode="normal" in2="shape" result="effect1_innerShadow_679_1979"/>
</filter>
</defs>
</svg>
