<svg width="41" height="41" viewBox="0 0 41 41" fill="none" xmlns="http://www.w3.org/2000/svg">
<g filter="url(#filter0_i_1077_68)">
<rect x="0.5" y="0.5" width="40" height="40" rx="20" fill="white"/>
<path d="M30 18C28.55 18 27.74 19.44 28.07 20.51L24.52 24.07C24.22 23.98 23.78 23.98 23.48 24.07L20.93 21.52C21.27 20.45 20.46 19 19 19C17.55 19 16.73 20.44 17.07 21.52L12.51 26.07C11.44 25.74 10 26.55 10 28C10 29.1 10.9 30 12 30C13.45 30 14.26 28.56 13.93 27.49L18.48 22.93C18.78 23.02 19.22 23.02 19.52 22.93L22.07 25.48C21.73 26.55 22.54 28 24 28C25.45 28 26.27 26.56 25.93 25.48L29.49 21.93C30.56 22.26 32 21.45 32 20C32 18.9 31.1 18 30 18Z" fill="black"/>
<path d="M24 19L24.94 16.93L27 16L24.94 15.07L24 13L23.08 15.07L21 16L23.08 16.93L24 19ZM12.5 21L13 19L15 18.5L13 18L12.5 16L12 18L10 18.5L12 19L12.5 21Z" fill="black"/>
</g>
<defs>
<filter id="filter0_i_1077_68" x="0.5" y="0.5" width="40" height="44" filterUnits="userSpaceOnUse" color-interpolation-filters="sRGB">
<feFlood flood-opacity="0" result="BackgroundImageFix"/>
<feBlend mode="normal" in="SourceGraphic" in2="BackgroundImageFix" result="shape"/>
<feColorMatrix in="SourceAlpha" type="matrix" values="0 0 0 0 0 0 0 0 0 0 0 0 0 0 0 0 0 0 127 0" result="hardAlpha"/>
<feOffset dy="4"/>
<feGaussianBlur stdDeviation="2"/>
<feComposite in2="hardAlpha" operator="arithmetic" k2="-1" k3="1"/>
<feColorMatrix type="matrix" values="0 0 0 0 0 0 0 0 0 0 0 0 0 0 0 0 0 0 0.25 0"/>
<feBlend mode="normal" in2="shape" result="effect1_innerShadow_1077_68"/>
</filter>
</defs>
</svg>
