<svg width="41" height="40" viewBox="0 0 41 40" fill="none" xmlns="http://www.w3.org/2000/svg">
<path d="M13.7502 3.3335H27.7502C33.0835 3.3335 37.4168 7.66683 37.4168 13.0002V27.0002C37.4168 29.5639 36.3984 32.0227 34.5855 33.8355C32.7727 35.6484 30.3139 36.6668 27.7502 36.6668H13.7502C8.41683 36.6668 4.0835 32.3335 4.0835 27.0002V13.0002C4.0835 10.4364 5.10195 7.97765 6.9148 6.1648C8.72765 4.35195 11.1864 3.3335 13.7502 3.3335ZM13.4168 6.66683C11.8255 6.66683 10.2994 7.29897 9.17419 8.42419C8.04897 9.54941 7.41683 11.0755 7.41683 12.6668V27.3335C7.41683 30.6502 10.1002 33.3335 13.4168 33.3335H28.0835C29.6748 33.3335 31.2009 32.7014 32.3261 31.5761C33.4514 30.4509 34.0835 28.9248 34.0835 27.3335V12.6668C34.0835 9.35016 31.4002 6.66683 28.0835 6.66683H13.4168ZM29.5002 9.16683C30.0527 9.16683 30.5826 9.38632 30.9733 9.77702C31.364 10.1677 31.5835 10.6976 31.5835 11.2502C31.5835 11.8027 31.364 12.3326 30.9733 12.7233C30.5826 13.114 30.0527 13.3335 29.5002 13.3335C28.9476 13.3335 28.4177 13.114 28.027 12.7233C27.6363 12.3326 27.4168 11.8027 27.4168 11.2502C27.4168 10.6976 27.6363 10.1677 28.027 9.77702C28.4177 9.38632 28.9476 9.16683 29.5002 9.16683ZM20.7502 11.6668C22.9603 11.6668 25.0799 12.5448 26.6427 14.1076C28.2055 15.6704 29.0835 17.79 29.0835 20.0002C29.0835 22.2103 28.2055 24.3299 26.6427 25.8927C25.0799 27.4555 22.9603 28.3335 20.7502 28.3335C18.54 28.3335 16.4204 27.4555 14.8576 25.8927C13.2948 24.3299 12.4168 22.2103 12.4168 20.0002C12.4168 17.79 13.2948 15.6704 14.8576 14.1076C16.4204 12.5448 18.54 11.6668 20.7502 11.6668ZM20.7502 15.0002C19.4241 15.0002 18.1523 15.5269 17.2146 16.4646C16.2769 17.4023 15.7502 18.6741 15.7502 20.0002C15.7502 21.3262 16.2769 22.598 17.2146 23.5357C18.1523 24.4734 19.4241 25.0002 20.7502 25.0002C22.0762 25.0002 23.348 24.4734 24.2857 23.5357C25.2234 22.598 25.7502 21.3262 25.7502 20.0002C25.7502 18.6741 25.2234 17.4023 24.2857 16.4646C23.348 15.5269 22.0762 15.0002 20.7502 15.0002Z" fill="black"/>
</svg>
