<svg width="40" height="40" viewBox="0 0 40 40" fill="none" xmlns="http://www.w3.org/2000/svg">
<path d="M32.8451 5.00002H7.24505C6.95884 4.9987 6.67519 5.0541 6.41051 5.16302C6.14583 5.27193 5.90535 5.43222 5.70296 5.6346C5.50058 5.83699 5.34029 6.07747 5.23137 6.34215C5.12246 6.60683 5.06706 6.89048 5.06838 7.17669V32.8234C5.06838 33.9834 6.03505 35 7.24505 35H32.745C33.0314 35.0016 33.3152 34.9463 33.5801 34.8375C33.845 34.7287 34.0857 34.5684 34.2882 34.366C34.4908 34.1636 34.6512 33.9231 34.7602 33.6583C34.8693 33.3935 34.9247 33.1097 34.9234 32.8234V7.12836C35.0217 5.96836 34.0534 5.00002 32.8451 5.00002ZM13.9234 30.5H9.52172V16.225H13.925L13.9234 30.5ZM11.6984 14.2417C11.3611 14.2435 11.0269 14.1783 10.715 14.05C10.4031 13.9217 10.1197 13.7328 9.8813 13.4943C9.64289 13.2557 9.45418 12.9722 9.32609 12.6602C9.19799 12.3482 9.13306 12.0139 9.13505 11.6767C9.13505 10.275 10.295 9.11336 11.6984 9.11336C13.1017 9.11336 14.265 10.275 14.265 11.6767C14.265 13.0784 13.1984 14.2417 11.6984 14.2417ZM30.6184 30.5H26.215V23.58C26.215 21.935 26.1667 19.7584 23.8934 19.7584C21.57 19.7584 21.2317 21.5967 21.2317 23.435V30.5H16.8284V16.225H21.135V18.2084H21.1834C21.8117 17.0484 23.2167 15.8867 25.3934 15.8867C29.8934 15.8867 30.715 18.79 30.715 22.7584V30.5H30.6184Z" fill="black"/>
</svg>
