<svg width="32" height="32" viewBox="0 0 32 32" fill="none" xmlns="http://www.w3.org/2000/svg">
  <rect width="32" height="32" rx="8" fill="url(#gradient)"/>
  <path d="M8 24V8h4.5c1.5 0 2.8.5 3.9 1.5s1.6 2.3 1.6 3.9c0 1-.3 1.9-.8 2.6s-1.2 1.3-2 1.7c1 .3 1.8.9 2.4 1.7s.9 1.8.9 2.9c0 1.7-.6 3.1-1.7 4.1S14.4 28 12.7 28H8v-4zm3.2-10h1.3c.7 0 1.2-.2 1.6-.6s.6-.9.6-1.5-.2-1.1-.6-1.5-.9-.6-1.6-.6h-1.3v4.2zm0 7.2h1.8c.8 0 1.4-.2 1.9-.7s.7-1 .7-1.7-.2-1.2-.7-1.7-1.1-.7-1.9-.7h-1.8v4.8z" fill="white"/>
  <defs>
    <linearGradient id="gradient" x1="0" y1="0" x2="32" y2="32" gradientUnits="userSpaceOnUse">
      <stop stop-color="#3B82F6"/>
      <stop offset="1" stop-color="#1D4ED8"/>
    </linearGradient>
  </defs>
</svg>
