<svg width="41" height="41" viewBox="0 0 41 41" fill="none" xmlns="http://www.w3.org/2000/svg">
<g filter="url(#filter0_i_2090_379)">
<rect x="0.5" y="0.5" width="40" height="40" rx="20" fill="white"/>
<path d="M29.5184 18.7597C29.8133 17.9338 29.897 17.0448 29.7617 16.1766C29.6264 15.3085 29.2765 14.4899 28.7451 13.7981C28.2136 13.1064 27.5182 12.5643 26.7245 12.2231C25.9307 11.882 25.0649 11.753 24.2087 11.8483C23.6551 11.1745 22.9424 10.656 22.1378 10.3417C21.3332 10.0273 20.4633 9.92762 19.6105 10.0519C18.7576 10.1763 17.9499 10.5205 17.2637 11.0522C16.5775 11.5838 16.0354 12.2853 15.6887 13.0903C14.8404 13.2426 14.0441 13.6131 13.3752 14.1669C12.7062 14.7206 12.1866 15.4393 11.8654 16.2551C11.5442 17.0708 11.4321 17.9567 11.5396 18.829C11.6472 19.7012 11.9708 20.5311 12.4799 21.2402C12.2012 22.0227 12.1114 22.8622 12.2182 23.6876C12.325 24.513 12.6252 25.3 13.0934 25.9818C13.5616 26.6635 14.1839 27.22 14.9076 27.6041C15.6314 27.9881 16.4351 28.1884 17.2508 28.1879C17.4328 28.1879 17.6146 28.1775 17.7955 28.1569C18.3496 28.8295 19.0625 29.3468 19.8668 29.6601C20.6712 29.9735 21.5405 30.0724 22.3928 29.9476C23.245 29.8228 24.052 29.4783 24.7376 28.9468C25.4232 28.4153 25.9649 27.7142 26.3113 26.9097C27.1596 26.7574 27.9559 26.3869 28.6248 25.8331C29.2938 25.2793 29.8134 24.5606 30.1346 23.7449C30.4558 22.9291 30.5679 22.0433 30.4604 21.171C30.3528 20.2987 30.0292 19.4688 29.5201 18.7597H29.5184ZM25.5437 13.9927C26.2298 14.1801 26.83 14.6069 27.24 15.1988C27.6499 15.7908 27.8439 16.5106 27.7882 17.2333L24.5465 15.3225C24.3925 15.2318 24.2177 15.184 24.0399 15.184C23.862 15.184 23.6873 15.2318 23.5332 15.3225L20.3245 17.2135V16.0189L23.2377 14.3029C23.5828 14.0981 23.9644 13.9652 24.3602 13.9119C24.7561 13.8587 25.1584 13.8861 25.5437 13.9927ZM21.6755 19.6018V20.3982L21 20.7964L20.3245 20.3982V19.6018L21 19.2036L21.6755 19.6018ZM17.2846 15.1734C17.2846 14.6081 17.4359 14.0535 17.7222 13.5696C18.0085 13.0856 18.4188 12.6907 18.909 12.4275C19.3992 12.1642 19.9505 12.0427 20.5034 12.0759C21.0563 12.1092 21.5898 12.296 22.0462 12.6162L18.8045 14.5262C18.6505 14.6169 18.5226 14.7475 18.4337 14.9046C18.3448 15.0618 18.2979 15.2401 18.2979 15.4217V19.2036L17.2846 18.6063V15.1734ZM13.9349 16.6326C14.2411 16.0884 14.7027 15.6524 15.258 15.3829V19.2036C15.2579 19.3853 15.3047 19.5638 15.3936 19.7211C15.4826 19.8785 15.6105 20.0091 15.7647 20.1L18.9734 21.9901L17.9601 22.5856L15.0469 20.8705C14.349 20.4589 13.8397 19.7813 13.6312 18.9866C13.4227 18.1919 13.5319 17.3451 13.9349 16.6326ZM16.4562 26.0073C15.7702 25.8199 15.17 25.3931 14.76 24.8011C14.3501 24.2092 14.1561 23.4893 14.2118 22.7666L17.4535 24.6774C17.6075 24.7682 17.7823 24.816 17.9601 24.816C18.138 24.816 18.3127 24.7682 18.4668 24.6774L21.6755 22.7865V23.981L18.7623 25.697C18.4172 25.9019 18.0356 26.0348 17.6398 26.0881C17.2439 26.1413 16.8416 26.1139 16.4562 26.0073ZM24.7154 24.8265C24.7154 25.3919 24.5641 25.9465 24.2778 26.4304C23.9915 26.9144 23.5812 27.3093 23.091 27.5725C22.6008 27.8358 22.0495 27.9573 21.4966 27.924C20.9437 27.8908 20.4102 27.7039 19.9538 27.3837L23.1955 25.4738C23.3495 25.3831 23.4774 25.2525 23.5663 25.0953C23.6552 24.9381 23.7021 24.7598 23.7021 24.5783V20.7964L24.7154 21.3937V24.8265ZM28.0651 23.3674C27.7589 23.9116 27.2973 24.3476 26.742 24.6171V20.7964C26.7421 20.6147 26.6953 20.4362 26.6064 20.2789C26.5174 20.1215 26.3895 19.9908 26.2353 19.9L23.0266 18.0099L24.0399 17.4143L26.9531 19.1312C27.6506 19.5428 28.1595 20.2201 28.368 21.0144C28.5765 21.8087 28.4676 22.655 28.0651 23.3674Z" fill="black"/>
</g>
<defs>
<filter id="filter0_i_2090_379" x="0.5" y="0.5" width="40" height="44" filterUnits="userSpaceOnUse" color-interpolation-filters="sRGB">
<feFlood flood-opacity="0" result="BackgroundImageFix"/>
<feBlend mode="normal" in="SourceGraphic" in2="BackgroundImageFix" result="shape"/>
<feColorMatrix in="SourceAlpha" type="matrix" values="0 0 0 0 0 0 0 0 0 0 0 0 0 0 0 0 0 0 127 0" result="hardAlpha"/>
<feOffset dy="4"/>
<feGaussianBlur stdDeviation="2"/>
<feComposite in2="hardAlpha" operator="arithmetic" k2="-1" k3="1"/>
<feColorMatrix type="matrix" values="0 0 0 0 0 0 0 0 0 0 0 0 0 0 0 0 0 0 0.25 0"/>
<feBlend mode="normal" in2="shape" result="effect1_innerShadow_2090_379"/>
</filter>
</defs>
</svg>
