<svg width="41" height="41" viewBox="0 0 41 41" fill="none" xmlns="http://www.w3.org/2000/svg">
<g filter="url(#filter0_i_2090_383)">
<rect x="0.5" y="0.5" width="40" height="40" rx="20" fill="white"/>
<path d="M28.2128 16.1291L27.9668 16.6951C27.9284 16.7872 27.8635 16.866 27.7804 16.9214C27.6973 16.9767 27.5997 17.0063 27.4998 17.0063C27.3999 17.0063 27.3023 16.9767 27.2192 16.9214C27.1361 16.866 27.0713 16.7872 27.0328 16.6951L26.7868 16.1291C26.3543 15.1278 25.5622 14.325 24.5668 13.8791L23.8078 13.5401C23.7157 13.4977 23.6377 13.4299 23.583 13.3445C23.5284 13.2592 23.4993 13.1599 23.4993 13.0586C23.4993 12.9572 23.5284 12.858 23.583 12.7727C23.6377 12.6873 23.7157 12.6194 23.8078 12.5771L24.5248 12.2581C25.5452 11.7995 26.3509 10.967 26.7758 9.93208L27.0298 9.32108C27.067 9.22643 27.1318 9.14518 27.2158 9.08791C27.2998 9.03063 27.3991 9 27.5008 9C27.6025 9 27.7018 9.03063 27.7858 9.08791C27.8698 9.14518 27.9346 9.22643 27.9718 9.32108L28.2248 9.93108C28.6493 10.9662 29.4546 11.799 30.4748 12.2581L31.1928 12.5781C31.2846 12.6206 31.3623 12.6884 31.4168 12.7737C31.4713 12.8589 31.5002 12.9579 31.5002 13.0591C31.5002 13.1602 31.4713 13.2593 31.4168 13.3445C31.3623 13.4297 31.2846 13.4976 31.1928 13.5401L30.4328 13.8781C29.4376 14.3244 28.6459 15.1276 28.2138 16.1291M16.4998 11.0011C18.4425 11.0008 20.3189 11.7074 21.7788 12.989C23.2388 14.2706 24.1825 16.0397 24.4338 17.9661L26.6838 21.5051C26.8318 21.7381 26.8018 22.0851 26.4588 22.2331L24.4998 23.0711V26.0011C24.4998 26.5315 24.2891 27.0402 23.914 27.4153C23.5389 27.7904 23.0302 28.0011 22.4998 28.0011H20.5008L20.4998 31.0011H11.4998V27.3071C11.4998 26.1271 11.0638 25.0101 10.2558 24.0021C9.31356 22.8256 8.72285 21.4069 8.55173 19.9093C8.38061 18.4118 8.63603 16.8964 9.28858 15.5376C9.94113 14.1789 10.9643 13.0322 12.2401 12.2296C13.5159 11.427 14.9925 11.0011 16.4998 11.0011ZM28.6538 27.1031L26.9888 25.9931C27.9764 24.5157 28.5023 22.7781 28.4998 21.0011C28.4991 20.4897 28.4578 19.9897 28.3758 19.5011L30.3188 19.0011C30.4388 19.6511 30.4991 20.3177 30.4998 21.0011C30.4998 23.2591 29.8198 25.3571 28.6538 27.1031Z" fill="black"/>
</g>
<defs>
<filter id="filter0_i_2090_383" x="0.5" y="0.5" width="40" height="44" filterUnits="userSpaceOnUse" color-interpolation-filters="sRGB">
<feFlood flood-opacity="0" result="BackgroundImageFix"/>
<feBlend mode="normal" in="SourceGraphic" in2="BackgroundImageFix" result="shape"/>
<feColorMatrix in="SourceAlpha" type="matrix" values="0 0 0 0 0 0 0 0 0 0 0 0 0 0 0 0 0 0 127 0" result="hardAlpha"/>
<feOffset dy="4"/>
<feGaussianBlur stdDeviation="2"/>
<feComposite in2="hardAlpha" operator="arithmetic" k2="-1" k3="1"/>
<feColorMatrix type="matrix" values="0 0 0 0 0 0 0 0 0 0 0 0 0 0 0 0 0 0 0.25 0"/>
<feBlend mode="normal" in2="shape" result="effect1_innerShadow_2090_383"/>
</filter>
</defs>
</svg>
