<svg width="41" height="41" viewBox="0 0 41 41" fill="none" xmlns="http://www.w3.org/2000/svg">
<g filter="url(#filter0_i_2090_287)">
<rect x="0.5" y="0.5" width="40" height="40" rx="20" fill="white"/>
<path d="M18.3099 15.029C18.7485 13.7454 20.5221 13.7066 21.0421 14.9124L21.0861 15.0298L21.678 16.7607C21.8137 17.1577 22.0329 17.521 22.3209 17.8261C22.6088 18.1311 22.9589 18.3709 23.3474 18.5292L23.5066 18.5886L25.2376 19.1797C26.5211 19.6184 26.56 21.3919 25.3549 21.9119L25.2376 21.9559L23.5066 22.5479C23.1094 22.6834 22.746 22.9026 22.4408 23.1906C22.1356 23.4786 21.8958 23.8287 21.7374 24.2172L21.678 24.3757L21.0868 26.1074C20.6482 27.391 18.8747 27.4299 18.3554 26.2248L18.3099 26.1074L17.7187 24.3764C17.5832 23.9793 17.364 23.6159 17.076 23.3107C16.788 23.0055 16.4379 22.7656 16.0493 22.6073L15.8909 22.5479L14.1599 21.9567C12.8756 21.5181 12.8367 19.7445 14.0425 19.2252L14.1599 19.1797L15.8909 18.5886C16.2879 18.4529 16.6512 18.2337 16.9562 17.9457C17.2613 17.6577 17.501 17.3077 17.6593 16.9192L17.7187 16.7607L18.3099 15.029ZM25.5662 12.5C25.7034 12.5 25.8378 12.5385 25.9543 12.6111C26.0707 12.6837 26.1644 12.7875 26.2248 12.9107L26.26 12.9966L26.5167 13.7491L27.27 14.0058C27.4075 14.0525 27.5281 14.139 27.6164 14.2543C27.7047 14.3696 27.7568 14.5086 27.7661 14.6535C27.7753 14.7984 27.7414 14.9429 27.6685 15.0685C27.5956 15.1941 27.487 15.2952 27.3566 15.3591L27.27 15.3943L26.5175 15.651L26.2608 16.4043C26.214 16.5418 26.1274 16.6622 26.0121 16.7505C25.8967 16.8387 25.7578 16.8907 25.6128 16.8999C25.4679 16.9091 25.3235 16.8751 25.1979 16.8021C25.0724 16.7291 24.9713 16.6206 24.9075 16.4901L24.8723 16.4043L24.6156 15.6517L23.8623 15.395C23.7248 15.3483 23.6042 15.2618 23.5159 15.1465C23.4276 15.0312 23.3755 14.8923 23.3663 14.7473C23.357 14.6024 23.391 14.458 23.4639 14.3324C23.5368 14.2068 23.6453 14.1056 23.7757 14.0418L23.8623 14.0066L24.6148 13.7498L24.8716 12.9966C24.921 12.8516 25.0146 12.7258 25.1392 12.6368C25.2637 12.5477 25.413 12.4999 25.5662 12.5Z" fill="black"/>
</g>
<defs>
<filter id="filter0_i_2090_287" x="0.5" y="0.5" width="40" height="44" filterUnits="userSpaceOnUse" color-interpolation-filters="sRGB">
<feFlood flood-opacity="0" result="BackgroundImageFix"/>
<feBlend mode="normal" in="SourceGraphic" in2="BackgroundImageFix" result="shape"/>
<feColorMatrix in="SourceAlpha" type="matrix" values="0 0 0 0 0 0 0 0 0 0 0 0 0 0 0 0 0 0 127 0" result="hardAlpha"/>
<feOffset dy="4"/>
<feGaussianBlur stdDeviation="2"/>
<feComposite in2="hardAlpha" operator="arithmetic" k2="-1" k3="1"/>
<feColorMatrix type="matrix" values="0 0 0 0 0 0 0 0 0 0 0 0 0 0 0 0 0 0 0.25 0"/>
<feBlend mode="normal" in2="shape" result="effect1_innerShadow_2090_287"/>
</filter>
</defs>
</svg>
