<svg width="41" height="41" viewBox="0 0 41 41" fill="none" xmlns="http://www.w3.org/2000/svg">
<g filter="url(#filter0_i_2090_117)">
<rect x="0.5" y="0.5" width="40" height="40" rx="20" fill="white"/>
<path d="M28.213 17.1291L27.967 17.6951C27.9286 17.7872 27.8637 17.866 27.7806 17.9214C27.6975 17.9767 27.5999 18.0063 27.5 18.0063C27.4001 18.0063 27.3025 17.9767 27.2194 17.9214C27.1363 17.866 27.0714 17.7872 27.033 17.6951L26.787 17.1291C26.3545 16.1278 25.5624 15.325 24.567 14.8791L23.808 14.5401C23.7159 14.4977 23.6379 14.4299 23.5832 14.3445C23.5286 14.2592 23.4995 14.1599 23.4995 14.0586C23.4995 13.9572 23.5286 13.858 23.5832 13.7727C23.6379 13.6873 23.7159 13.6194 23.808 13.5771L24.525 13.2581C25.5454 12.7995 26.3511 11.967 26.776 10.9321L27.029 10.3211C27.0662 10.2264 27.131 10.1452 27.215 10.0879C27.299 10.0306 27.3983 10 27.5 10C27.6017 10 27.701 10.0306 27.785 10.0879C27.869 10.1452 27.9338 10.2264 27.971 10.3211L28.224 10.9311C28.6485 11.9662 29.4538 12.799 30.474 13.2581L31.192 13.5781C31.2838 13.6206 31.3615 13.6884 31.416 13.7737C31.4705 13.8589 31.4994 13.9579 31.4994 14.0591C31.4994 14.1602 31.4705 14.2593 31.416 14.3445C31.3615 14.4297 31.2838 14.4976 31.192 14.5401L30.432 14.8781C29.4368 15.3244 28.6451 16.1276 28.213 17.1291ZM27.5 20.0011C28.1787 20.0016 28.8526 19.887 29.493 19.6621C29.4977 19.7754 29.5 19.8884 29.5 20.0011C29.5 22.1228 28.6571 24.1576 27.1569 25.6579C25.6566 27.1582 23.6217 28.0011 21.5 28.0011V31.5011C16.5 29.5011 9.5 26.5011 9.5 20.0011C9.5 17.8793 10.3429 15.8445 11.8431 14.3442C13.3434 12.8439 15.3783 12.0011 17.5 12.0011H21.5C21.6133 12.0011 21.7263 12.0034 21.839 12.0081C21.5203 12.913 21.4233 13.8812 21.556 14.8313C21.6888 15.7815 22.0475 16.686 22.602 17.4689C23.1565 18.2518 23.8906 18.8904 24.7429 19.331C25.5951 19.7715 26.5406 20.0013 27.5 20.0011Z" fill="black"/>
</g>
<defs>
<filter id="filter0_i_2090_117" x="0.5" y="0.5" width="40" height="44" filterUnits="userSpaceOnUse" color-interpolation-filters="sRGB">
<feFlood flood-opacity="0" result="BackgroundImageFix"/>
<feBlend mode="normal" in="SourceGraphic" in2="BackgroundImageFix" result="shape"/>
<feColorMatrix in="SourceAlpha" type="matrix" values="0 0 0 0 0 0 0 0 0 0 0 0 0 0 0 0 0 0 127 0" result="hardAlpha"/>
<feOffset dy="4"/>
<feGaussianBlur stdDeviation="2"/>
<feComposite in2="hardAlpha" operator="arithmetic" k2="-1" k3="1"/>
<feColorMatrix type="matrix" values="0 0 0 0 0 0 0 0 0 0 0 0 0 0 0 0 0 0 0.25 0"/>
<feBlend mode="normal" in2="shape" result="effect1_innerShadow_2090_117"/>
</filter>
</defs>
</svg>
