<svg width="41" height="41" viewBox="0 0 41 41" fill="none" xmlns="http://www.w3.org/2000/svg">
<g filter="url(#filter0_i_2090_104)">
<rect x="0.5" y="0.5" width="40" height="40" rx="20" fill="white"/>
<path d="M19.5025 10C21.0408 10.0005 22.5582 10.3559 23.9368 11.0384C25.3153 11.7209 26.5179 12.7122 27.4508 13.9352C28.3837 15.1582 29.022 16.5799 29.3158 18.0897C29.6097 19.5995 29.5513 21.1568 29.1451 22.6403C28.7389 24.1239 27.996 25.4938 26.974 26.6434C25.9521 27.7931 24.6787 28.6915 23.2529 29.2688C21.827 29.8462 20.2872 30.0869 18.7532 29.9722C17.2192 29.8574 15.7324 29.3905 14.4083 28.6075L10.3241 29.9675C10.2141 30.004 10.0961 30.0092 9.98327 29.9825C9.87046 29.9558 9.7673 29.8982 9.68533 29.8162C9.60336 29.7343 9.5458 29.6311 9.51908 29.5183C9.49236 29.4055 9.49755 29.2875 9.53405 29.1775L10.8954 25.095C9.99616 23.5764 9.51484 21.8469 9.50034 20.0821C9.48584 18.3174 9.93868 16.5802 10.8129 15.0471C11.6871 13.5139 12.9515 12.2394 14.4777 11.353C16.0039 10.4665 17.7375 9.99973 19.5025 10ZM16.0197 15.005C15.8925 15.0093 15.7678 15.0412 15.6542 15.0987C15.5406 15.1561 15.4409 15.2376 15.3621 15.3375C15.1371 15.6012 14.502 16.2437 14.502 17.5462C14.502 18.8512 15.3834 20.1137 15.5071 20.2912C15.6296 20.4637 17.2423 23.1412 19.7113 24.2912C20.1697 24.5037 20.6364 24.6896 21.1114 24.8487C21.7015 25.0487 22.239 25.0225 22.6641 24.955C23.1379 24.88 24.1192 24.3137 24.3255 23.6925C24.5292 23.0762 24.5292 22.545 24.4667 22.4337C24.4055 22.3237 24.2417 22.2562 23.9942 22.1212C23.7492 21.99 22.5378 21.3487 22.3128 21.2625C22.0878 21.1712 21.9227 21.13 21.759 21.3937C21.594 21.66 21.1252 22.2575 20.9802 22.4337C20.8389 22.6075 20.6926 22.6325 20.4488 22.5C20.2013 22.3687 19.41 22.0875 18.4687 21.1825C17.7373 20.4812 17.2435 19.61 17.101 19.3462C16.956 19.08 17.0848 18.9387 17.2073 18.805C17.3198 18.6875 17.4548 18.4975 17.5773 18.3412C17.6986 18.1887 17.7423 18.0787 17.8248 17.9C17.9049 17.7237 17.8636 17.5675 17.8023 17.4362C17.7411 17.305 17.2485 15.9962 17.0435 15.465C16.8435 14.9488 16.6397 15.0212 16.4897 15.0112C16.3472 15.005 16.1834 15.005 16.0197 15.005Z" fill="black"/>
</g>
<defs>
<filter id="filter0_i_2090_104" x="0.5" y="0.5" width="40" height="44" filterUnits="userSpaceOnUse" color-interpolation-filters="sRGB">
<feFlood flood-opacity="0" result="BackgroundImageFix"/>
<feBlend mode="normal" in="SourceGraphic" in2="BackgroundImageFix" result="shape"/>
<feColorMatrix in="SourceAlpha" type="matrix" values="0 0 0 0 0 0 0 0 0 0 0 0 0 0 0 0 0 0 127 0" result="hardAlpha"/>
<feOffset dy="4"/>
<feGaussianBlur stdDeviation="2"/>
<feComposite in2="hardAlpha" operator="arithmetic" k2="-1" k3="1"/>
<feColorMatrix type="matrix" values="0 0 0 0 0 0 0 0 0 0 0 0 0 0 0 0 0 0 0.25 0"/>
<feBlend mode="normal" in2="shape" result="effect1_innerShadow_2090_104"/>
</filter>
</defs>
</svg>
