<svg width="40" height="40" viewBox="0 0 40 40" fill="none" xmlns="http://www.w3.org/2000/svg">
<path d="M0 29.9999C0 31.1786 0.468253 32.3091 1.30175 33.1426C2.13524 33.9761 3.2657 34.4443 4.44444 34.4443H35.5556C36.7343 34.4443 37.8648 33.9761 38.6983 33.1426C39.5317 32.3091 40 31.1786 40 29.9999V24.4443H0V29.9999Z" fill="#138808"/>
<path d="M40 15.5557V10.0001C40 8.82137 39.5317 7.69091 38.6983 6.85741C37.8648 6.02392 36.7343 5.55566 35.5556 5.55566H4.44444C3.2657 5.55566 2.13524 6.02392 1.30175 6.85741C0.468253 7.69091 0 8.82137 0 10.0001L0 15.5557H40Z" fill="#FF9933"/>
<path d="M0 15.1855H40V24.8155H0V15.1855Z" fill="#F7F7F7"/>
<path d="M20 24.4446C22.4546 24.4446 24.4444 22.4547 24.4444 20.0001C24.4444 17.5455 22.4546 15.5557 20 15.5557C17.5454 15.5557 15.5555 17.5455 15.5555 20.0001C15.5555 22.4547 17.5454 24.4446 20 24.4446Z" fill="#000080"/>
<path d="M20 23.75C22.0711 23.75 23.75 22.0711 23.75 20C23.75 17.9289 22.0711 16.25 20 16.25C17.9289 16.25 16.25 17.9289 16.25 20C16.25 22.0711 17.9289 23.75 20 23.75Z" fill="#F7F7F7"/>
<path d="M20.1111 18.611L20 19.3332L19.8889 18.611L20 16.4443L20.1111 18.611ZM19.08 16.5654L19.5333 18.6866L19.8278 19.3554L19.7478 18.6299L19.08 16.5654ZM18.2222 16.921L19.2089 18.8521L19.6667 19.4221L19.4022 18.741L18.2222 16.921ZM17.4856 17.4854L18.9389 19.0966L19.5289 19.5288L19.0967 18.9388L17.4856 17.4854ZM16.9211 18.2221L18.7411 19.4021L19.4222 19.6666L18.8522 19.2088L16.9211 18.2221ZM16.5656 19.0799L18.63 19.7477L19.3556 19.8277L18.6867 19.5332L16.5656 19.0799ZM16.4445 19.9999L18.6111 20.111L19.3333 19.9999L18.6111 19.8888L16.4445 19.9999ZM16.5656 20.9199L18.6867 20.4666L19.3556 20.1721L18.63 20.2521L16.5656 20.9199ZM16.9211 21.7777L18.8522 20.791L19.4222 20.3332L18.7411 20.5977L16.9211 21.7777ZM17.4856 22.5143L19.0967 21.061L19.5289 20.471L18.9389 20.9032L17.4856 22.5143ZM18.2222 23.0788L19.4022 21.2588L19.6667 20.5777L19.2089 21.1477L18.2222 23.0788ZM19.08 23.4343L19.7478 21.3699L19.8278 20.6443L19.5333 21.3132L19.08 23.4343ZM20 23.5554L20.1111 21.3888L20 20.6666L19.8889 21.3888L20 23.5554ZM20.92 23.4343L20.4667 21.3132L20.1722 20.6443L20.2522 21.3699L20.92 23.4343ZM21.7778 23.0788L20.7911 21.1477L20.3333 20.5777L20.5978 21.2588L21.7778 23.0788ZM22.5145 22.5143L21.0611 20.9032L20.4711 20.471L20.9033 21.061L22.5145 22.5143ZM23.0789 21.7777L21.2589 20.5977L20.5778 20.3332L21.1478 20.791L23.0789 21.7777ZM23.4345 20.9199L21.37 20.2521L20.6445 20.1721L21.3133 20.4666L23.4345 20.9199ZM23.5556 19.9999L21.3889 19.8888L20.6667 19.9999L21.3889 20.111L23.5556 19.9999ZM23.4345 19.0799L21.3133 19.5332L20.6445 19.8277L21.37 19.7477L23.4345 19.0799ZM23.0789 18.2221L21.1478 19.2088L20.5778 19.6666L21.2589 19.4021L23.0789 18.2221ZM22.5145 17.4854L20.9033 18.9388L20.4711 19.5288L21.0611 19.0966L22.5145 17.4854ZM21.7778 16.921L20.5978 18.741L20.3333 19.4221L20.7911 18.8521L21.7778 16.921ZM20.92 16.5654L20.2522 18.6299L20.1722 19.3554L20.4667 18.6866L20.92 16.5654Z" fill="#6666B3"/>
<path d="M19.5112 16.5099C19.6339 16.5099 19.7334 16.4104 19.7334 16.2877C19.7334 16.1649 19.6339 16.0654 19.5112 16.0654C19.3884 16.0654 19.2889 16.1649 19.2889 16.2877C19.2889 16.4104 19.3884 16.5099 19.5112 16.5099Z" fill="#000080"/>
<path d="M18.5667 16.7628C18.6894 16.7628 18.7889 16.6633 18.7889 16.5406C18.7889 16.4179 18.6894 16.3184 18.5667 16.3184C18.444 16.3184 18.3445 16.4179 18.3445 16.5406C18.3445 16.6633 18.444 16.7628 18.5667 16.7628Z" fill="#000080"/>
<path d="M17.72 17.2511C17.8428 17.2511 17.9422 17.1516 17.9422 17.0289C17.9422 16.9061 17.8428 16.8066 17.72 16.8066C17.5973 16.8066 17.4978 16.9061 17.4978 17.0289C17.4978 17.1516 17.5973 17.2511 17.72 17.2511Z" fill="#000080"/>
<path d="M17.0289 17.9425C17.1516 17.9425 17.2511 17.843 17.2511 17.7203C17.2511 17.5975 17.1516 17.498 17.0289 17.498C16.9061 17.498 16.8066 17.5975 16.8066 17.7203C16.8066 17.843 16.9061 17.9425 17.0289 17.9425Z" fill="#000080"/>
<path d="M16.5411 18.7892C16.6638 18.7892 16.7633 18.6897 16.7633 18.5669C16.7633 18.4442 16.6638 18.3447 16.5411 18.3447C16.4183 18.3447 16.3188 18.4442 16.3188 18.5669C16.3188 18.6897 16.4183 18.7892 16.5411 18.7892Z" fill="#000080"/>
<path d="M16.2878 19.7335C16.4105 19.7335 16.51 19.634 16.51 19.5113C16.51 19.3886 16.4105 19.2891 16.2878 19.2891C16.165 19.2891 16.0656 19.3886 16.0656 19.5113C16.0656 19.634 16.165 19.7335 16.2878 19.7335Z" fill="#000080"/>
<path d="M16.2878 20.711C16.4105 20.711 16.51 20.6116 16.51 20.4888C16.51 20.3661 16.4105 20.2666 16.2878 20.2666C16.165 20.2666 16.0656 20.3661 16.0656 20.4888C16.0656 20.6116 16.165 20.711 16.2878 20.711Z" fill="#000080"/>
<path d="M16.5411 21.6554C16.6638 21.6554 16.7633 21.5559 16.7633 21.4332C16.7633 21.3104 16.6638 21.2109 16.5411 21.2109C16.4183 21.2109 16.3188 21.3104 16.3188 21.4332C16.3188 21.5559 16.4183 21.6554 16.5411 21.6554Z" fill="#000080"/>
<path d="M17.0289 22.5021C17.1516 22.5021 17.2511 22.4026 17.2511 22.2798C17.2511 22.1571 17.1516 22.0576 17.0289 22.0576C16.9061 22.0576 16.8066 22.1571 16.8066 22.2798C16.8066 22.4026 16.9061 22.5021 17.0289 22.5021Z" fill="#000080"/>
<path d="M17.72 23.1935C17.8428 23.1935 17.9422 23.094 17.9422 22.9712C17.9422 22.8485 17.8428 22.749 17.72 22.749C17.5973 22.749 17.4978 22.8485 17.4978 22.9712C17.4978 23.094 17.5973 23.1935 17.72 23.1935Z" fill="#000080"/>
<path d="M18.5667 23.6808C18.6894 23.6808 18.7889 23.5813 18.7889 23.4586C18.7889 23.3358 18.6894 23.2363 18.5667 23.2363C18.444 23.2363 18.3445 23.3358 18.3445 23.4586C18.3445 23.5813 18.444 23.6808 18.5667 23.6808Z" fill="#000080"/>
<path d="M19.5112 23.9347C19.6339 23.9347 19.7334 23.8352 19.7334 23.7125C19.7334 23.5897 19.6339 23.4902 19.5112 23.4902C19.3884 23.4902 19.2889 23.5897 19.2889 23.7125C19.2889 23.8352 19.3884 23.9347 19.5112 23.9347Z" fill="#000080"/>
<path d="M20.4888 23.9347C20.6116 23.9347 20.711 23.8352 20.711 23.7125C20.711 23.5897 20.6116 23.4902 20.4888 23.4902C20.3661 23.4902 20.2666 23.5897 20.2666 23.7125C20.2666 23.8352 20.3661 23.9347 20.4888 23.9347Z" fill="#000080"/>
<path d="M21.4333 23.6808C21.556 23.6808 21.6555 23.5813 21.6555 23.4586C21.6555 23.3358 21.556 23.2363 21.4333 23.2363C21.3106 23.2363 21.2111 23.3358 21.2111 23.4586C21.2111 23.5813 21.3106 23.6808 21.4333 23.6808Z" fill="#000080"/>
<path d="M22.28 23.1935C22.4027 23.1935 22.5022 23.094 22.5022 22.9712C22.5022 22.8485 22.4027 22.749 22.28 22.749C22.1572 22.749 22.0577 22.8485 22.0577 22.9712C22.0577 23.094 22.1572 23.1935 22.28 23.1935Z" fill="#000080"/>
<path d="M22.9711 22.5021C23.0939 22.5021 23.1933 22.4026 23.1933 22.2798C23.1933 22.1571 23.0939 22.0576 22.9711 22.0576C22.8484 22.0576 22.7489 22.1571 22.7489 22.2798C22.7489 22.4026 22.8484 22.5021 22.9711 22.5021Z" fill="#000080"/>
<path d="M23.4589 21.6554C23.5816 21.6554 23.6811 21.5559 23.6811 21.4332C23.6811 21.3104 23.5816 21.2109 23.4589 21.2109C23.3362 21.2109 23.2367 21.3104 23.2367 21.4332C23.2367 21.5559 23.3362 21.6554 23.4589 21.6554Z" fill="#000080"/>
<path d="M23.7122 20.711C23.8349 20.711 23.9344 20.6116 23.9344 20.4888C23.9344 20.3661 23.8349 20.2666 23.7122 20.2666C23.5895 20.2666 23.49 20.3661 23.49 20.4888C23.49 20.6116 23.5895 20.711 23.7122 20.711Z" fill="#000080"/>
<path d="M23.7122 19.7335C23.8349 19.7335 23.9344 19.634 23.9344 19.5113C23.9344 19.3886 23.8349 19.2891 23.7122 19.2891C23.5895 19.2891 23.49 19.3886 23.49 19.5113C23.49 19.634 23.5895 19.7335 23.7122 19.7335Z" fill="#000080"/>
<path d="M23.4589 18.7892C23.5816 18.7892 23.6811 18.6897 23.6811 18.5669C23.6811 18.4442 23.5816 18.3447 23.4589 18.3447C23.3362 18.3447 23.2367 18.4442 23.2367 18.5669C23.2367 18.6897 23.3362 18.7892 23.4589 18.7892Z" fill="#000080"/>
<path d="M22.9711 17.9425C23.0939 17.9425 23.1933 17.843 23.1933 17.7203C23.1933 17.5975 23.0939 17.498 22.9711 17.498C22.8484 17.498 22.7489 17.5975 22.7489 17.7203C22.7489 17.843 22.8484 17.9425 22.9711 17.9425Z" fill="#000080"/>
<path d="M22.28 17.2511C22.4027 17.2511 22.5022 17.1516 22.5022 17.0289C22.5022 16.9061 22.4027 16.8066 22.28 16.8066C22.1572 16.8066 22.0577 16.9061 22.0577 17.0289C22.0577 17.1516 22.1572 17.2511 22.28 17.2511Z" fill="#000080"/>
<path d="M21.4333 16.7628C21.556 16.7628 21.6555 16.6633 21.6555 16.5406C21.6555 16.4179 21.556 16.3184 21.4333 16.3184C21.3106 16.3184 21.2111 16.4179 21.2111 16.5406C21.2111 16.6633 21.3106 16.7628 21.4333 16.7628Z" fill="#000080"/>
<path d="M20.4888 16.5099C20.6116 16.5099 20.711 16.4104 20.711 16.2877C20.711 16.1649 20.6116 16.0654 20.4888 16.0654C20.3661 16.0654 20.2666 16.1649 20.2666 16.2877C20.2666 16.4104 20.3661 16.5099 20.4888 16.5099Z" fill="#000080"/>
<path d="M20 21C20.5523 21 21 20.5523 21 20C21 19.4477 20.5523 19 20 19C19.4477 19 19 19.4477 19 20C19 20.5523 19.4477 21 20 21Z" fill="#000080"/>
</svg>
