<svg width="48" height="48" viewBox="0 0 48 48" fill="none" xmlns="http://www.w3.org/2000/svg">
<rect width="48" height="48" rx="24" fill="#0066B3"/>
<path d="M22.5068 21.9929V24.2136H20.2861V21.9929H22.5068Z" fill="white"/>
<path fill-rule="evenodd" clip-rule="evenodd" d="M17.4879 12C17.155 12 16.8264 12.0749 16.5264 12.219C16.2264 12.3632 15.9627 12.5729 15.7546 12.8327L12.3681 17.0664C11.4954 18.1568 12.2727 19.7723 13.6683 19.7723H14.7342V27.5446C14.7342 28.1335 14.9682 28.6983 15.3847 29.1148C15.8011 29.5313 16.3659 29.7652 16.9549 29.7652H25.8375C26.4265 29.7652 26.9913 29.5313 27.4077 29.1148C27.8242 28.6983 28.0582 28.1335 28.0582 27.5446V19.7723H30.2788V28.6549C30.2788 28.9494 30.3958 29.2318 30.604 29.44C30.8122 29.6482 31.0947 29.7652 31.3891 29.7652C31.6836 29.7652 31.966 29.6482 32.1743 29.44C32.3825 29.2318 32.4995 28.9494 32.4995 28.6549V19.7723H33.5654C34.9622 19.7723 35.7383 18.1568 34.8656 17.0664L31.4791 12.8339C31.2712 12.5738 31.0074 12.3639 30.7074 12.2195C30.4074 12.0752 30.0788 12.0002 29.7459 12H17.4879ZM19.1756 19.7723C18.8811 19.7723 18.5987 19.8893 18.3904 20.0975C18.1822 20.3057 18.0652 20.5881 18.0652 20.8826V25.3239C18.0652 25.6184 18.1822 25.9008 18.3904 26.109C18.5987 26.3173 18.8811 26.4342 19.1756 26.4342H23.6169C23.9113 26.4342 24.1937 26.3173 24.402 26.109C24.6102 25.9008 24.7272 25.6184 24.7272 25.3239V20.8826C24.7272 20.5881 24.6102 20.3057 24.402 20.0975C24.1937 19.8893 23.9113 19.7723 23.6169 19.7723H19.1756Z" fill="white"/>
</svg>
