<svg width="48" height="49" viewBox="0 0 48 49" fill="none" xmlns="http://www.w3.org/2000/svg">
<rect x="0.25" y="0.5" width="47.5" height="47.5" rx="23.75" fill="white"/>
<rect x="0.25" y="0.5" width="47.5" height="47.5" rx="23.75" stroke="black" stroke-width="0.5"/>
<path d="M24.5913 25.275H27.3661C28.1553 25.275 28.6549 24.8405 28.6549 24.1429C28.6549 23.4856 28.1553 23.0117 27.3661 23.0117H24.5913C24.4996 23.0117 24.4199 23.0905 24.4199 23.1694V25.1173C24.4336 25.209 24.4987 25.275 24.5913 25.275ZM24.5913 29.7632H27.4586C28.3396 29.7632 28.8657 29.3158 28.8657 28.5256C28.8657 27.8418 28.3661 27.2881 27.4586 27.2881H24.5913C24.4996 27.2881 24.4199 27.3678 24.4199 27.4467V29.5917C24.4336 29.6972 24.4987 29.7632 24.5913 29.7632ZM34.7434 12.7988L26.5365 20.9849H27.8785C29.9694 20.9849 31.206 22.3003 31.206 23.735C31.206 24.8671 30.4433 25.6967 29.6275 26.0643C29.4964 26.1175 29.4964 26.3017 29.6403 26.354C30.5872 26.7225 31.2582 27.7107 31.2582 28.8676C31.2582 30.4993 30.1674 31.8028 28.0499 31.8028H22.2364C22.1447 31.8028 22.065 31.724 22.065 31.6451V25.4464L13.0569 34.4209C12.9377 34.5401 13.0175 34.75 13.188 34.75H34.8497C34.888 34.7495 34.9246 34.7341 34.9516 34.7071C34.9787 34.68 34.9941 34.6434 34.9946 34.6052V12.917C35.034 12.7722 34.8497 12.6933 34.7443 12.7978L34.7434 12.7988Z" fill="black"/>
</svg>
