<svg width="48" height="49" viewBox="0 0 48 49" fill="none" xmlns="http://www.w3.org/2000/svg">
<rect y="0.5" width="48" height="48" rx="24" fill="#0066B3"/>
<path d="M24.5913 25.525H27.3661C28.1553 25.525 28.6549 25.0905 28.6549 24.3929C28.6549 23.7356 28.1553 23.2617 27.3661 23.2617H24.5913C24.4996 23.2617 24.4199 23.3405 24.4199 23.4194V25.3673C24.4336 25.459 24.4987 25.525 24.5913 25.525ZM24.5913 30.0132H27.4586C28.3396 30.0132 28.8657 29.5658 28.8657 28.7756C28.8657 28.0918 28.3661 27.5381 27.4586 27.5381H24.5913C24.4996 27.5381 24.4199 27.6178 24.4199 27.6967V29.8417C24.4336 29.9472 24.4987 30.0132 24.5913 30.0132ZM34.7434 13.0488L26.5365 21.2349H27.8785C29.9694 21.2349 31.206 22.5503 31.206 23.985C31.206 25.1171 30.4433 25.9467 29.6275 26.3143C29.4964 26.3675 29.4964 26.5517 29.6403 26.604C30.5872 26.9725 31.2582 27.9607 31.2582 29.1176C31.2582 30.7493 30.1674 32.0528 28.0499 32.0528H22.2364C22.1447 32.0528 22.065 31.974 22.065 31.8951V25.6964L13.0569 34.6709C12.9377 34.7901 13.0175 35 13.188 35H34.8497C34.888 34.9995 34.9246 34.9841 34.9516 34.9571C34.9787 34.93 34.9941 34.8934 34.9946 34.8552V13.167C35.034 13.0222 34.8497 12.9433 34.7443 13.0478L34.7434 13.0488Z" fill="white"/>
</svg>
