<svg width="48" height="49" viewBox="0 0 48 49" fill="none" xmlns="http://www.w3.org/2000/svg">
<rect x="0.25" y="1" width="47.5" height="47.5" rx="23.75" fill="white"/>
<rect x="0.25" y="1" width="47.5" height="47.5" rx="23.75" stroke="black" stroke-width="0.5"/>
<path d="M20.3717 12.75V13.8557H18.8763L18.3664 20.0091H19.2299L19.4238 17.6686L21.2995 18.8758L19.257 20.0091H19.7025V21.1024L21.2975 21.9302L19.7025 22.5718V23.0859H20.7413L22.5681 22.3511L22.629 23.0859H23.4925L22.7276 13.8557H21.2322V12.75H20.3717ZM19.7075 14.721H21.9358L21.9833 15.2931L19.7075 14.721ZM29.5503 15.3941V18.4708H30.3371L34.1395 17.1962V28.9028H35V15.3941H29.5503ZM19.5965 15.5851L21.3785 16.0331L19.4776 17.0197L19.5965 15.5851ZM27.3512 16.2594V18.4708H28.7854V16.2594H27.3512ZM31.4015 16.2594H34.1396V16.2841L32.3387 16.8877L31.4015 16.2594ZM30.4108 16.6351L31.3045 17.2343L30.4108 17.5339V16.6351ZM22.0945 16.6352L22.2454 18.4572L20.6108 17.4053L22.0945 16.6352ZM22.3153 19.3006L22.5044 21.5829L20.2814 20.4291L22.3153 19.3006ZM26.5864 19.3361V21.5475H31.8449V19.3361H26.5864ZM15.1132 20.8745V23.0859H18.842V20.8745H15.1132ZM15.8302 21.5475H17.36V22.4128H15.8302V21.5475ZM28.1161 22.4128V23.0859H30.3152V22.4128H28.1161ZM13.5834 23.9512V26.1626H32.6098V23.9512H13.5834ZM13.7029 27.0279L15.7824 29.8162V28.374L14.7785 27.0279H13.7029ZM16.6429 27.0279V33.1129C16.4947 33.0955 16.3503 33.0852 16.2127 33.0852C15.5827 33.0852 14.8136 33.2912 14.1643 33.4883C13.5151 33.6854 13 33.8827 13 33.8827L13.3063 34.6914C13.3063 34.6914 13.7953 34.5042 14.4131 34.3166C15.0308 34.1291 15.7914 33.9505 16.2127 33.9505C16.6339 33.9505 17.3945 34.1291 18.0123 34.3166C18.63 34.5041 19.119 34.6914 19.119 34.6914L19.2722 34.75L19.4253 34.6914C19.4253 34.6914 19.9144 34.5042 20.5321 34.3166C21.1498 34.1291 21.9104 33.9505 22.3317 33.9505C22.753 33.9505 23.5136 34.1291 24.1313 34.3166C24.749 34.5041 25.2381 34.6914 25.2381 34.6914L25.3912 34.75L25.5444 34.6914C25.5444 34.6914 26.0334 34.5042 26.6511 34.3166C27.2689 34.1291 28.0295 33.9505 28.4508 33.9505C28.872 33.9505 29.6326 34.1291 30.2503 34.3166C30.8681 34.5041 31.3571 34.6914 31.3571 34.6914L31.4835 34.7398L34.6742 33.9376L34.4654 33.0982L31.5332 33.8353C31.3847 33.78 31.0236 33.6475 30.4991 33.4883C29.961 33.3249 29.3407 33.1558 28.7854 33.1026V27.0279H27.3512V33.232C27.0264 33.3055 26.7017 33.3974 26.4024 33.4883C25.8999 33.6408 25.5564 33.7657 25.3912 33.827C25.2261 33.7657 24.8826 33.6408 24.38 33.4883C23.7308 33.2912 22.9617 33.0852 22.3317 33.0852C21.9921 33.0852 21.6121 33.1459 21.2322 33.232V27.0279H20.3717V33.462C20.3424 33.4708 20.3122 33.4796 20.2834 33.4883C19.7809 33.6408 19.4373 33.7657 19.2722 33.827C19.107 33.7657 18.7635 33.6408 18.261 33.4883C18.2009 33.47 18.1389 33.4519 18.0771 33.4336V27.0279H16.6429ZM24.4112 27.0279L26.4908 29.8162V28.374L25.4869 27.0279H24.4112ZM30.6498 27.0279L29.6459 28.374V29.8162L31.7254 27.0279H30.6498Z" fill="black"/>
</svg>
