<svg width="48" height="48" viewBox="0 0 48 48" fill="none" xmlns="http://www.w3.org/2000/svg">
<rect width="48" height="48" rx="24" fill="#0066B3"/>
<path d="M20.3717 12V13.1057H18.8763L18.3664 19.2591H19.2299L19.4238 16.9186L21.2995 18.1258L19.257 19.2591H19.7025V20.3524L21.2975 21.1802L19.7025 21.8218V22.3359H20.7413L22.5681 21.6011L22.629 22.3359H23.4925L22.7276 13.1057H21.2322V12H20.3717ZM19.7075 13.971H21.9358L21.9833 14.5431L19.7075 13.971ZM29.5503 14.6441V17.7208H30.3371L34.1395 16.4462V28.1528H35V14.6441H29.5503ZM19.5965 14.8351L21.3785 15.2831L19.4776 16.2697L19.5965 14.8351ZM27.3512 15.5094V17.7208H28.7854V15.5094H27.3512ZM31.4015 15.5094H34.1396V15.5341L32.3387 16.1377L31.4015 15.5094ZM30.4108 15.8851L31.3045 16.4843L30.4108 16.7839V15.8851ZM22.0945 15.8852L22.2454 17.7072L20.6108 16.6553L22.0945 15.8852ZM22.3153 18.5506L22.5044 20.8329L20.2814 19.6791L22.3153 18.5506ZM26.5864 18.5861V20.7975H31.8449V18.5861H26.5864ZM15.1132 20.1245V22.3359H18.842V20.1245H15.1132ZM15.8302 20.7975H17.36V21.6628H15.8302V20.7975ZM28.1161 21.6628V22.3359H30.3152V21.6628H28.1161ZM13.5834 23.2012V25.4126H32.6098V23.2012H13.5834ZM13.7029 26.2779L15.7824 29.0662V27.624L14.7785 26.2779H13.7029ZM16.6429 26.2779V32.3629C16.4947 32.3455 16.3503 32.3352 16.2127 32.3352C15.5827 32.3352 14.8136 32.5412 14.1643 32.7383C13.5151 32.9354 13 33.1327 13 33.1327L13.3063 33.9414C13.3063 33.9414 13.7953 33.7542 14.4131 33.5666C15.0308 33.3791 15.7914 33.2005 16.2127 33.2005C16.6339 33.2005 17.3945 33.3791 18.0123 33.5666C18.63 33.7541 19.119 33.9414 19.119 33.9414L19.2722 34L19.4253 33.9414C19.4253 33.9414 19.9144 33.7542 20.5321 33.5666C21.1498 33.3791 21.9104 33.2005 22.3317 33.2005C22.753 33.2005 23.5136 33.3791 24.1313 33.5666C24.749 33.7541 25.2381 33.9414 25.2381 33.9414L25.3912 34L25.5444 33.9414C25.5444 33.9414 26.0334 33.7542 26.6511 33.5666C27.2689 33.3791 28.0295 33.2005 28.4508 33.2005C28.872 33.2005 29.6326 33.3791 30.2503 33.5666C30.8681 33.7541 31.3571 33.9414 31.3571 33.9414L31.4835 33.9898L34.6742 33.1876L34.4654 32.3482L31.5332 33.0853C31.3847 33.03 31.0236 32.8975 30.4991 32.7383C29.961 32.5749 29.3407 32.4058 28.7854 32.3526V26.2779H27.3512V32.482C27.0264 32.5555 26.7017 32.6474 26.4024 32.7383C25.8999 32.8908 25.5564 33.0157 25.3912 33.077C25.2261 33.0157 24.8826 32.8908 24.38 32.7383C23.7308 32.5412 22.9617 32.3352 22.3317 32.3352C21.9921 32.3352 21.6121 32.3959 21.2322 32.482V26.2779H20.3717V32.712C20.3424 32.7208 20.3122 32.7296 20.2834 32.7383C19.7809 32.8908 19.4373 33.0157 19.2722 33.077C19.107 33.0157 18.7635 32.8908 18.261 32.7383C18.2009 32.72 18.1389 32.7019 18.0771 32.6836V26.2779H16.6429ZM24.4112 26.2779L26.4908 29.0662V27.624L25.4869 26.2779H24.4112ZM30.6498 26.2779L29.6459 27.624V29.0662L31.7254 26.2779H30.6498Z" fill="white"/>
</svg>
