<svg width="48" height="49" viewBox="0 0 48 49" fill="none" xmlns="http://www.w3.org/2000/svg">
<rect y="0.5" width="48" height="48" rx="24" fill="#0066B3"/>
<path d="M30.6 29.6C29.379 29.6 28.4 30.579 28.4 31.8C28.4 32.3835 28.6318 32.9431 29.0444 33.3556C29.4569 33.7682 30.0165 34 30.6 34C31.1835 34 31.7431 33.7682 32.1556 33.3556C32.5682 32.9431 32.8 32.3835 32.8 31.8C32.8 31.2165 32.5682 30.6569 32.1556 30.2444C31.7431 29.8318 31.1835 29.6 30.6 29.6ZM13 12V14.2H15.2L19.16 22.549L17.664 25.244C17.499 25.552 17.4 25.915 17.4 26.3C17.4 26.8835 17.6318 27.4431 18.0444 27.8556C18.4569 28.2682 19.0165 28.5 19.6 28.5H32.8V26.3H20.062C19.9891 26.3 19.9191 26.271 19.8675 26.2195C19.816 26.1679 19.787 26.0979 19.787 26.025C19.787 25.97 19.798 25.926 19.82 25.893L20.81 24.1H29.005C29.83 24.1 30.556 23.638 30.93 22.967L34.868 15.85C34.945 15.674 35 15.487 35 15.3C35 15.0083 34.8841 14.7285 34.6778 14.5222C34.4715 14.3159 34.1917 14.2 33.9 14.2H17.631L16.597 12M19.6 29.6C18.379 29.6 17.4 30.579 17.4 31.8C17.4 32.3835 17.6318 32.9431 18.0444 33.3556C18.4569 33.7682 19.0165 34 19.6 34C20.1835 34 20.7431 33.7682 21.1556 33.3556C21.5682 32.9431 21.8 32.3835 21.8 31.8C21.8 31.2165 21.5682 30.6569 21.1556 30.2444C20.7431 29.8318 20.1835 29.6 19.6 29.6Z" fill="white"/>
</svg>
