<svg width="48" height="48" viewBox="0 0 48 48" fill="none" xmlns="http://www.w3.org/2000/svg">
<rect width="48" height="48" rx="24" fill="#0066B3"/>
<path d="M16.5044 33.0153H19.7737V29.7507H16.5044V33.0153ZM13.7719 27.0184V29.7507H16.5044V27.0184H13.7719ZM34.4524 19.4911C33.4321 16.1999 30.7971 13.5785 27.5056 12.545C19.96 10.1897 13 15.8007 13 22.9953H17.2497C17.2497 18.4798 21.73 14.989 26.4809 16.71C28.242 17.3443 29.6526 18.7548 30.287 20.5113C32.0215 25.2574 28.5259 29.7285 24.0145 29.7374V29.7507H24.0012V34C31.2141 34 36.8123 27.045 34.4524 19.4911ZM24.0145 29.7374V25.5103H19.7737V29.7507H24.0012V29.7374H24.0145Z" fill="white"/>
</svg>
