<svg width="48" height="49" viewBox="0 0 48 49" fill="none" xmlns="http://www.w3.org/2000/svg">
<rect x="0.25" y="0.75" width="47.5" height="47.5" rx="23.75" fill="white"/>
<rect x="0.25" y="0.75" width="47.5" height="47.5" rx="23.75" stroke="black" stroke-width="0.5"/>
<path d="M16.5044 33.5153H19.7737V30.2507H16.5044V33.5153ZM13.7719 27.5184V30.2507H16.5044V27.5184H13.7719ZM34.4524 19.9911C33.4321 16.6999 30.7971 14.0785 27.5056 13.045C19.96 10.6897 13 16.3007 13 23.4953H17.2497C17.2497 18.9798 21.73 15.489 26.4809 17.21C28.242 17.8443 29.6526 19.2548 30.287 21.0113C32.0215 25.7574 28.5259 30.2285 24.0145 30.2374V30.2507H24.0012V34.5C31.2141 34.5 36.8123 27.545 34.4524 19.9911ZM24.0145 30.2374V26.0103H19.7737V30.2507H24.0012V30.2374H24.0145Z" fill="black"/>
</svg>
