<svg width="48" height="48" viewBox="0 0 48 48" fill="none" xmlns="http://www.w3.org/2000/svg">
<rect width="48" height="48" rx="24" fill="#0066B3"/>
<path d="M24 15.6926C24.0002 15.2077 23.9052 14.7275 23.7205 14.2794C23.5358 13.8314 23.265 13.4243 22.9235 13.0814C22.5821 12.7385 22.1768 12.4665 21.7307 12.281C21.2845 12.0955 20.8064 12.0001 20.3235 12.0003H16.7238C16.237 11.994 15.7539 12.0849 15.3024 12.2676C14.8509 12.4503 14.44 12.7212 14.0936 13.0647C13.7472 13.4082 13.4721 13.8173 13.2844 14.2683C13.0967 14.7194 13 15.2034 13 15.6923C13 16.1812 13.0967 16.6652 13.2844 17.1162C13.4721 17.5673 13.7472 17.9764 14.0936 18.3199C14.44 18.6633 14.8509 18.9343 15.3024 19.117C15.7539 19.2997 16.237 19.3905 16.7238 19.3843H17.4284V21.1668C17.4284 21.1668 24 20.2759 24 15.6926ZM20.6533 25.4446C20.6533 26.7951 19.5642 27.889 18.2194 27.889C16.8747 27.889 15.7855 26.7951 15.7855 25.4446C15.7855 24.094 16.8747 23.0002 18.2194 23.0002C19.5642 23.0002 20.6533 24.094 20.6533 25.4446ZM18.2194 29.1112C16.4931 29.1112 13.0473 29.9851 13.0473 31.7188V34H23.3915V31.7188C23.3915 29.9844 19.9457 29.1112 18.2194 29.1112ZM29.7806 27.889C31.1253 27.889 32.2145 26.7951 32.2145 25.4446C32.2145 24.094 31.1253 23.0002 29.7806 23.0002C28.4358 23.0002 27.3467 24.094 27.3467 25.4446C27.3467 26.7951 28.4358 27.889 29.7806 27.889ZM29.7806 29.1112C28.0543 29.1112 24.6085 29.9851 24.6085 31.7188V34H34.9527V31.7188C34.9527 29.9844 31.5069 29.1112 29.7806 29.1112ZM28.8934 12.6114C28.4106 12.6112 27.9324 12.7066 27.4863 12.8921C27.0402 13.0776 26.6348 13.3496 26.2934 13.6925C25.952 14.0354 25.6812 14.4425 25.4965 14.8905C25.3118 15.3386 25.2168 15.8188 25.217 16.3037C25.217 20.887 31.0584 21.7779 31.0584 21.7779V19.9954H31.2762C31.763 20.0017 32.2461 19.9108 32.6976 19.7281C33.1491 19.5454 33.56 19.2744 33.9064 18.931C34.2528 18.5875 34.5279 18.1784 34.7156 17.7273C34.9033 17.2763 35 16.7923 35 16.3034C35 15.8145 34.9033 15.3305 34.7156 14.8794C34.5279 14.4284 34.2528 14.0193 33.9064 13.6758C33.56 13.3324 33.1491 13.0614 32.6976 12.8787C32.2461 12.696 31.763 12.6051 31.2762 12.6114H28.8934Z" fill="white"/>
</svg>
