<svg width="48" height="48" viewBox="0 0 48 48" fill="none" xmlns="http://www.w3.org/2000/svg">
<rect width="48" height="48" rx="24" fill="#0066B3"/>
<path d="M24 37C20.8146 36.1833 18.1847 34.3223 16.1103 31.4168C14.0358 28.5113 12.9991 25.2857 13 21.74V13.2L24 9L35 13.2V21.74C35 25.2867 33.9633 28.5127 31.8898 31.4182C29.8163 34.3237 27.1863 36.1843 24 37ZM24 34.06C26.2229 33.36 28.0792 31.9773 29.5687 29.9118C31.0583 27.8463 31.9292 25.5424 32.1813 23H24V11.975L15.75 15.125V22.37C15.75 22.5333 15.7729 22.7433 15.8188 23H24V34.06Z" fill="white"/>
</svg>
