<svg width="48" height="49" viewBox="0 0 48 49" fill="none" xmlns="http://www.w3.org/2000/svg">
<rect x="0.25" y="0.5" width="47.5" height="47.5" rx="23.75" fill="white"/>
<rect x="0.25" y="0.5" width="47.5" height="47.5" rx="23.75" stroke="black" stroke-width="0.5"/>
<path d="M26.9654 15.3172C26.9654 15.3172 26.7264 15.3905 26.3201 15.5249C26.2484 15.305 26.1528 15.0238 26.0094 14.755C25.5553 13.8628 24.8862 13.3983 24.0736 13.3861C24.0138 13.3861 23.966 13.3861 23.9063 13.3983C23.8824 13.3739 23.8585 13.3372 23.8346 13.3128C23.488 12.9217 23.034 12.7384 22.4962 12.7506C21.4566 12.7872 20.417 13.5572 19.5686 14.9261C18.9711 15.8916 18.5289 17.1016 18.3975 18.0304C17.2025 18.4093 16.366 18.6782 16.3421 18.6782C15.7327 18.8737 15.7208 18.8982 15.6371 19.4726C15.5774 19.9126 14 32.4278 14 32.4278L27.1208 34.75V15.2927C27.061 15.2927 27.0013 15.305 26.9654 15.3172ZM23.9302 16.2827C23.2371 16.5027 22.4723 16.7471 21.7195 16.9794C21.9346 16.136 22.3409 15.305 22.8428 14.755C23.034 14.5472 23.2849 14.3272 23.5956 14.1928C23.8824 14.8161 23.9421 15.6838 23.9302 16.2827ZM22.5082 13.4594C22.7472 13.4594 22.9623 13.5083 23.1415 13.6305C22.8547 13.7772 22.5918 13.9972 22.3289 14.2783C21.6717 14.9994 21.1579 16.136 20.9547 17.2238C20.3214 17.4193 19.7119 17.6149 19.1384 17.7982C19.4969 16.0749 20.9069 13.5083 22.5082 13.4594ZM20.4767 23.2247C20.5484 24.3614 23.488 24.618 23.6553 27.2946C23.7868 29.3968 22.5679 30.839 20.7994 30.949C18.6962 31.0834 17.5252 29.8123 17.5252 29.8123L17.9673 27.8691C17.9673 27.8691 19.1384 28.7735 20.0704 28.7124C20.6799 28.6757 20.895 28.1624 20.883 27.808C20.7874 26.3169 18.3975 26.4024 18.2541 23.9581C18.1226 21.8926 19.4491 19.8148 22.3648 19.6193C23.5 19.546 24.0736 19.8393 24.0736 19.8393L23.4044 22.3937C23.4044 22.3937 22.6635 22.0514 21.7792 22.1003C20.4887 22.1859 20.4648 23.017 20.4767 23.2247ZM24.6233 16.0627C24.6113 15.5249 24.5516 14.7672 24.3006 14.1194C25.0893 14.2783 25.4836 15.1827 25.6509 15.7327C25.3522 15.8305 25.0057 15.9405 24.6233 16.0627ZM27.5509 34.7011L33 33.32C33 33.32 30.6579 17.1138 30.6459 17.0038C30.634 16.8938 30.5384 16.8327 30.4547 16.8205C30.3711 16.8082 28.8415 16.7838 28.8415 16.7838C28.8415 16.7838 27.9094 15.8549 27.5509 15.5005V34.7011Z" fill="black"/>
</svg>
