<svg width="48" height="49" viewBox="0 0 48 49" fill="none" xmlns="http://www.w3.org/2000/svg">
<rect y="0.5" width="48" height="48" rx="24" fill="#0066B3"/>
<path d="M26.9654 15.5672C26.9654 15.5672 26.7264 15.6405 26.3201 15.7749C26.2484 15.555 26.1528 15.2738 26.0094 15.005C25.5553 14.1128 24.8862 13.6483 24.0736 13.6361C24.0138 13.6361 23.966 13.6361 23.9063 13.6483C23.8824 13.6239 23.8585 13.5872 23.8346 13.5628C23.488 13.1717 23.034 12.9884 22.4962 13.0006C21.4566 13.0372 20.417 13.8072 19.5686 15.1761C18.9711 16.1416 18.5289 17.3516 18.3975 18.2804C17.2025 18.6593 16.366 18.9282 16.3421 18.9282C15.7327 19.1237 15.7208 19.1482 15.6371 19.7226C15.5774 20.1626 14 32.6778 14 32.6778L27.1208 35V15.5427C27.061 15.5427 27.0013 15.555 26.9654 15.5672ZM23.9302 16.5327C23.2371 16.7527 22.4723 16.9971 21.7195 17.2294C21.9346 16.386 22.3409 15.555 22.8428 15.005C23.034 14.7972 23.2849 14.5772 23.5956 14.4428C23.8824 15.0661 23.9421 15.9338 23.9302 16.5327ZM22.5082 13.7094C22.7472 13.7094 22.9623 13.7583 23.1415 13.8805C22.8547 14.0272 22.5918 14.2472 22.3289 14.5283C21.6717 15.2494 21.1579 16.386 20.9547 17.4738C20.3214 17.6693 19.7119 17.8649 19.1384 18.0482C19.4969 16.3249 20.9069 13.7583 22.5082 13.7094ZM20.4767 23.4747C20.5484 24.6114 23.488 24.868 23.6553 27.5446C23.7868 29.6468 22.5679 31.089 20.7994 31.199C18.6962 31.3334 17.5252 30.0623 17.5252 30.0623L17.9673 28.1191C17.9673 28.1191 19.1384 29.0235 20.0704 28.9624C20.6799 28.9257 20.895 28.4124 20.883 28.058C20.7874 26.5669 18.3975 26.6524 18.2541 24.2081C18.1226 22.1426 19.4491 20.0648 22.3648 19.8693C23.5 19.796 24.0736 20.0893 24.0736 20.0893L23.4044 22.6437C23.4044 22.6437 22.6635 22.3014 21.7792 22.3503C20.4887 22.4359 20.4648 23.267 20.4767 23.4747ZM24.6233 16.3127C24.6113 15.7749 24.5516 15.0172 24.3006 14.3694C25.0893 14.5283 25.4836 15.4327 25.6509 15.9827C25.3522 16.0805 25.0057 16.1905 24.6233 16.3127ZM27.5509 34.9511L33 33.57C33 33.57 30.6579 17.3638 30.6459 17.2538C30.634 17.1438 30.5384 17.0827 30.4547 17.0705C30.3711 17.0582 28.8415 17.0338 28.8415 17.0338C28.8415 17.0338 27.9094 16.1049 27.5509 15.7505V34.9511Z" fill="white"/>
</svg>
