<svg width="212" height="191" viewBox="0 0 212 191" fill="none" xmlns="http://www.w3.org/2000/svg">
<path opacity="0.9" d="M209.486 3.16042C208.229 1.52888 206.374 0.463786 204.331 0.1994C202.288 -0.0649853 200.223 0.492986 198.592 1.7506C196.742 3.17641 194.925 4.63954 193.088 6.08667C189.458 9.02357 185.87 12.012 182.321 15.0519C145.146 47.134 112.347 84.285 84.3803 124.65C78.4052 133.328 72.6087 142.221 67.1133 151.285C66.8734 150.696 66.6336 150.107 66.3884 149.521C56.3624 126.052 39.5858 94.1698 13.4282 86.2732C3.23698 83.5921 -3.53229 96.1126 4.32433 103.255C9.507 108.331 14.3669 113.727 18.8756 119.411C31.2602 134.673 40.0442 153.353 48.6657 171.238C50.4726 175.015 52.2955 178.815 54.1984 182.615C54.8533 184.556 56.0343 186.276 57.6099 187.585C59.1854 188.893 61.0935 189.738 63.1212 190.026C65.149 190.313 67.2167 190.032 69.0938 189.213C70.9709 188.393 72.5836 187.069 73.752 185.387C79.0181 177.757 84.5748 169.373 89.865 161.732C124.354 111.042 162.962 63.3003 204.492 18.1967C206.046 16.4804 207.613 14.7774 209.156 13.0425C210.35 11.6899 211.036 9.96398 211.096 8.16081C211.157 6.35765 210.587 4.58972 209.486 3.16042Z" fill="#22AC37"/>
</svg>
