<svg width="202" height="191" viewBox="0 0 202 191" fill="none" xmlns="http://www.w3.org/2000/svg">
<path d="M187.957 1.7874C179.039 7.01053 169.793 12.9257 161.18 18.663C139.317 33.4924 118.386 49.6518 98.5057 67.0497C94.1865 70.8491 89.8758 74.7813 85.5962 78.7954C79.8279 72.6598 74.0878 66.4791 68.5906 60.4339C62.1895 53.5272 54.5455 45.5385 48.1162 38.5103C43.5456 33.4426 36.8168 25.6856 32.3225 20.4087C22.6417 9.62633 6.47799 22.3409 14.6277 34.2815C24.0344 47.0753 34.4326 61.1656 44.2885 73.592C51.1642 81.9281 58.3167 90.1993 65.6952 98.2642C61.4221 102.596 57.2272 106.943 53.1105 111.307C35.4101 130.264 18.5542 151.789 2.71533 172.354C-5.70552 184.218 10.2661 197.162 20.1107 186.591L20.2463 186.433C23.7378 182.402 31.9411 172.953 35.5202 169.077C45.4072 158.06 57.1528 146.275 67.4946 135.758C73.1273 129.911 78.9606 124.049 84.8843 118.222C86.6414 119.956 88.4078 121.674 90.1837 123.374C106.483 139.023 123.748 153.633 141.878 167.117C143.127 168.027 145.61 169.829 146.878 170.719C148.547 171.916 150.229 173.095 151.923 174.255C153.764 175.525 156.007 176.071 158.225 175.788C160.443 175.506 162.478 174.415 163.941 172.724C165.404 171.034 166.192 168.863 166.153 166.628C166.114 164.392 165.252 162.25 163.731 160.611C161.754 158.47 159.409 156.024 157.406 153.931C148.352 144.552 139.297 135.177 130.243 125.806C121.811 116.993 113.201 107.973 104.785 99.0523C108.891 95.1597 112.975 91.3141 117.037 87.5157C141.398 64.7926 166.714 42.7815 192.401 21.5726C194.434 19.8777 196.449 18.1828 198.463 16.4625C206.658 9.07831 197.593 -3.57415 187.957 1.7874Z" fill="#BE0808"/>
</svg>
